Inter-UI-Regular.ufo
<glyph name="exclam" format="2">
  <advance width="784.0"/>
  <unicode hex="0021"/>
  <outline>
    <contour>
      <point x="528.0" y="2048.0" type="line"/>
      <point x="256.0" y="2048.0" type="line"/>
      <point x="276.0" y="576.0" type="line"/>
      <point x="508.0" y="576.0" type="line"/>
    </contour>
    <component base="period" xOffset="4.0"/>
  </outline>
</glyph>
<glyph name="numbersign" format="1">
  <advance width="1792"/>
  <unicode hex="0023"/>
  <outline>
    <contour>
      <point x="388" y="0" type="line"/>
      <point x="600" y="0" type="line"/>
      <point x="872" y="2048" type="line"/>
      <point x="660" y="2048" type="line"/>
    </contour>
    <contour>
      <point x="948" y="0" type="line"/>
      <point x="1156" y="0" type="line"/>
      <point x="1432" y="2048" type="line"/>
      <point x="1220" y="2048" type="line"/>
    </contour>
    <contour>
      <point x="1664" y="1280" type="line"/>
      <point x="1664" y="1488" type="line"/>
      <point x="256" y="1488" type="line"/>
      <point x="256" y="1280" type="line"/>
    </contour>
    <contour>
      <point x="1536" y="568" type="line"/>
      <point x="1536" y="768" type="line"/>
      <point x="128" y="768" type="line"/>
      <point x="128" y="568" type="line"/>
    </contour>
  </outline>
</glyph>
<glyph name="dollar" format="1">
  <advance width="1820"/>
  <unicode hex="0024"/>
  <outline>
    <contour>
      <point x="804" y="-256" type="line"/>
      <point x="1008" y="-256" type="line"/>
      <point x="1040" y="2304" type="line"/>
      <point x="836" y="2304" type="line"/>
    </contour>
    <component base="S"/>
  </outline>
</glyph>
<glyph name="percent" format="1">
  <advance width="2288"/>
  <unicode hex="0025"/>
  <outline>
    <contour>
      <point x="1256" y="384" type="line" smooth="yes"/>
      <point x="1256" y="160"/>
      <point x="1396" y="-28"/>
      <point x="1656" y="-28" type="curve" smooth="yes"/>
      <point x="1912" y="-28"/>
      <point x="2052" y="160"/>
      <point x="2052" y="384" type="curve" smooth="yes"/>
      <point x="2052" y="492" type="line" smooth="yes"/>
      <point x="2052" y="716"/>
      <point x="1916" y="904"/>
      <point x="1656" y="904" type="curve" smooth="yes"/>
      <point x="1400" y="904"/>
      <point x="1256" y="716"/>
      <point x="1256" y="492" type="curve" smooth="yes"/>
    </contour>
    <contour>
      <point x="1460" y="492" type="line" smooth="yes"/>
      <point x="1460" y="616"/>
      <point x="1516" y="732"/>
      <point x="1656" y="732" type="curve" smooth="yes"/>
      <point x="1800" y="732"/>
      <point x="1848" y="616"/>
      <point x="1848" y="492" type="curve" smooth="yes"/>
      <point x="1848" y="384" type="line" smooth="yes"/>
      <point x="1848" y="260"/>
      <point x="1796" y="144"/>
      <point x="1656" y="144" type="curve" smooth="yes"/>
      <point x="1512" y="144"/>
      <point x="1460" y="260"/>
      <point x="1460" y="384" type="curve" smooth="yes"/>
    </contour>
    <contour>
      <point x="1952" y="2048" type="line"/>
      <point x="1720" y="2048" type="line"/>
      <point x="312" y="0" type="line"/>
      <point x="544" y="0" type="line"/>
    </contour>
    <contour>
      <point x="236" y="1556" type="line" smooth="yes"/>
      <point x="236" y="1332"/>
      <point x="376" y="1144"/>
      <point x="636" y="1144" type="curve" smooth="yes"/>
      <point x="892" y="1144"/>
      <point x="1032" y="1332"/>
      <point x="1032" y="1556" type="curve" smooth="yes"/>
      <point x="1032" y="1664" type="line" smooth="yes"/>
      <point x="1032" y="1888"/>
      <point x="896" y="2076"/>
      <point x="636" y="2076" type="curve" smooth="yes"/>
      <point x="380" y="2076"/>
      <point x="236" y="1888"/>
      <point x="236" y="1664" type="curve" smooth="yes"/>
    </contour>
    <contour>
      <point x="440" y="1664" type="line" smooth="yes"/>
      <point x="440" y="1788"/>
      <point x="496" y="1904"/>
      <point x="636" y="1904" type="curve" smooth="yes"/>
      <point x="780" y="1904"/>
      <point x="828" y="1788"/>
      <point x="828" y="1664" type="curve" smooth="yes"/>
      <point x="828" y="1556" type="line" smooth="yes"/>
      <point x="828" y="1432"/>
      <point x="776" y="1316"/>
      <point x="636" y="1316" type="curve" smooth="yes"/>
      <point x="492" y="1316"/>
      <point x="440" y="1432"/>
      <point x="440" y="1556" type="curve" smooth="yes"/>
    </contour>
  </outline>
</glyph>
<glyph name="ampersand" format="1">
  <advance width="1776"/>
  <unicode hex="0026"/>
  <outline>
    <contour>
      <point x="548" y="1128" type="line"/>
      <point x="296" y="956"/>
      <point x="120" y="800"/>
      <point x="120" y="544" type="curve"/>
      <point x="120" y="212"/>
      <point x="368" y="-28"/>
      <point x="772" y="-28" type="curve"/>
      <point x="968" y="-28"/>
      <point x="1188" y="44"/>
      <point x="1324" y="192" type="curve" smooth="yes"/>
      <point x="1340" y="208"/>
      <point x="1344" y="236"/>
      <point x="1364" y="252" type="curve" smooth="yes"/>
      <point x="1536" y="424"/>
      <point x="1612" y="620"/>
      <point x="1612" y="896" type="curve"/>
      <point x="1384" y="896" type="line"/>
      <point x="1384" y="456"/>
      <point x="1068" y="180"/>
      <point x="772" y="180" type="curve" smooth="yes"/>
      <point x="516" y="180"/>
      <point x="360" y="352"/>
      <point x="360" y="544" type="curve"/>
      <point x="360" y="600"/>
      <point x="404" y="740"/>
      <point x="596" y="880" type="curve" smooth="yes"/>
      <point x="1004" y="1184" type="line" smooth="yes"/>
      <point x="1172" y="1308"/>
      <point x="1276" y="1444"/>
      <point x="1276" y="1640" type="curve"/>
      <point x="1276" y="1868"/>
      <point x="1088" y="2068"/>
      <point x="788" y="2068" type="curve" smooth="yes"/>
      <point x="480" y="2068"/>
      <point x="284" y="1892"/>
      <point x="284" y="1576" type="curve" smooth="yes"/>
      <point x="284" y="1372"/>
      <point x="464" y="1184"/>
      <point x="672" y="936" type="curve" smooth="yes"/>
      <point x="1448" y="0" type="line"/>
      <point x="1732" y="0" type="line"/>
      <point x="792" y="1148" type="line" smooth="yes"/>
      <point x="660" y="1308"/>
      <point x="524" y="1460"/>
      <point x="524" y="1584" type="curve" smooth="yes"/>
      <point x="524" y="1732"/>
      <point x="632" y="1864"/>
      <point x="788" y="1864" type="curve" smooth="yes"/>
      <point x="936" y="1864"/>
      <point x="1036" y="1744"/>
      <point x="1036" y="1640" type="curve"/>
      <point x="1036" y="1500"/>
      <point x="960" y="1424"/>
      <point x="844" y="1348" type="curve"/>
    </contour>
  </outline>
</glyph>
<glyph name="quotesingle" format="1">
  <advance width="624"/>
  <unicode hex="0027"/>
  <outline>
    <contour>
      <point x="420" y="2048" type="line"/>
      <point x="200" y="2048" type="line"/>
      <point x="200" y="1344" type="line"/>
      <point x="420" y="1344" type="line"/>
    </contour>
  </outline>
</glyph>
<glyph name="parenleft" format="2">
  <advance width="1020.0"/>
  <unicode hex="0028"/>
  <guideline x="636.0" y="864.0" angle="0.0"/>
  <outline>
    <contour>
      <point x="300.0" y="864.0" type="curve" smooth="yes"/>
      <point x="300.0" y="360.0"/>
      <point x="436.0" y="-60.0"/>
      <point x="680.0" y="-416.0" type="curve"/>
      <point x="888.0" y="-416.0" type="line"/>
      <point x="696.0" y="-152.0"/>
      <point x="544.0" y="388.0"/>
      <point x="544.0" y="864.0" type="curve" smooth="yes"/>
      <point x="544.0" y="1340.0"/>
      <point x="696.0" y="1880.0"/>
      <point x="888.0" y="2144.0" type="curve"/>
      <point x="680.0" y="2144.0" type="line"/>
      <point x="436.0" y="1788.0"/>
      <point x="300.0" y="1368.0"/>
    </contour>
  </outline>
</glyph>
<glyph name="asterisk" format="1">
  <advance width="1424"/>
  <unicode hex="002A"/>
  <outline>
    <contour>
      <point x="272" y="1032" type="line"/>
      <point x="448" y="904" type="line"/>
      <point x="712" y="1264" type="line"/>
      <point x="976" y="904" type="line"/>
      <point x="1152" y="1032" type="line"/>
      <point x="896" y="1392" type="line"/>
      <point x="1316" y="1528" type="line"/>
      <point x="1248" y="1740" type="line"/>
      <point x="824" y="1600" type="line"/>
      <point x="824" y="2048" type="line"/>
      <point x="600" y="2048" type="line"/>
      <point x="600" y="1600" type="line"/>
      <point x="176" y="1740" type="line"/>
      <point x="108" y="1528" type="line"/>
      <point x="528" y="1392" type="line"/>
    </contour>
  </outline>
</glyph>
<glyph name="plus" format="2">
  <advance width="1808.0"/>
  <unicode hex="002B"/>
  <guideline x="268.0" y="800.0" angle="0.0"/>
  <outline>
    <contour>
      <point x="792.0" y="164.0" type="line"/>
      <point x="1016.0" y="164.0" type="line"/>
      <point x="1016.0" y="1444.0" type="line"/>
      <point x="792.0" y="1444.0" type="line"/>
    </contour>
    <contour>
      <point x="264.0" y="692.0" type="line"/>
      <point x="1544.0" y="692.0" type="line"/>
      <point x="1544.0" y="916.0" type="line"/>
      <point x="264.0" y="916.0" type="line"/>
    </contour>
  </outline>
</glyph>
<glyph name="comma" format="2">
  <advance width="788.0"/>
  <unicode hex="002C"/>
  <outline>
    <contour>
      <point x="568.0" y="280.0" type="line"/>
      <point x="312.0" y="280.0" type="line"/>
      <point x="300.0" y="168.0" type="line" smooth="yes"/>
      <point x="271.0" y="-103.0"/>
      <point x="214.0" y="-373.0"/>
      <point x="188.0" y="-500.0" type="curve"/>
      <point x="368.0" y="-500.0" type="line"/>
      <point x="416.0" y="-364.0"/>
      <point x="518.0" y="-56.0"/>
      <point x="552.0" y="172.0" type="curve" smooth="yes"/>
    </contour>
  </outline>
</glyph>
<glyph name="hyphen" format="2">
  <advance width="1296.0"/>
  <unicode hex="002D"/>
  <outline>
    <contour>
      <point x="1096.0" y="988.0" type="line"/>
      <point x="200.0" y="988.0" type="line"/>
      <point x="200.0" y="768.0" type="line"/>
      <point x="1096.0" y="768.0" type="line"/>
    </contour>
  </outline>
</glyph>
<glyph name="period" format="1">
  <advance width="776"/>
  <unicode hex="002E"/>
  <outline>
    <contour>
      <point x="388" y="-16" type="curve" smooth="yes"/>
      <point x="488" y="-16"/>
      <point x="568" y="64"/>
      <point x="568" y="164" type="curve" smooth="yes"/>
      <point x="568" y="260"/>
      <point x="488" y="340"/>
      <point x="388" y="340" type="curve" smooth="yes"/>
      <point x="292" y="340"/>
      <point x="208" y="264"/>
      <point x="208" y="164" type="curve" smooth="yes"/>
      <point x="208" y="64"/>
      <point x="288" y="-16"/>
    </contour>
  </outline>
</glyph>
<glyph name="slash" format="1">
  <advance width="1040"/>
  <unicode hex="002F"/>
  <outline>
    <contour>
      <point x="932" y="2048" type="line"/>
      <point x="700" y="2048" type="line"/>
      <point x="104" y="-308" type="line"/>
      <point x="336" y="-308" type="line"/>
    </contour>
  </outline>
</glyph>
<glyph name="zero" format="1">
  <advance width="1664"/>
  <unicode hex="0030"/>
  <outline>
    <contour>
      <point x="1516" y="1140" type="line" smooth="yes"/>
      <point x="1516" y="1740"/>
      <point x="1280" y="2076"/>
      <point x="836" y="2076" type="curve" smooth="yes"/>
      <point x="388" y="2076"/>
      <point x="148" y="1740"/>
      <point x="148" y="1140" type="curve" smooth="yes"/>
      <point x="148" y="944" type="line" smooth="yes"/>
      <point x="148" y="340"/>
      <point x="392" y="-28"/>
      <point x="840" y="-28" type="curve" smooth="yes"/>
      <point x="1284" y="-28"/>
      <point x="1516" y="340"/>
      <point x="1516" y="944" type="curve" smooth="yes"/>
    </contour>
    <contour>
      <point x="1268" y="900" type="line" smooth="yes"/>
      <point x="1268" y="516"/>
      <point x="1132" y="192"/>
      <point x="840" y="192" type="curve" smooth="yes"/>
      <point x="544" y="192"/>
      <point x="396" y="516"/>
      <point x="396" y="900" type="curve" smooth="yes"/>
      <point x="396" y="1184" type="line" smooth="yes"/>
      <point x="396" y="1572"/>
      <point x="540" y="1856"/>
      <point x="836" y="1856" type="curve" smooth="yes"/>
      <point x="1128" y="1856"/>
      <point x="1268" y="1572"/>
      <point x="1268" y="1184" type="curve" smooth="yes"/>
    </contour>
  </outline>
</glyph>
<glyph name="one" format="1">
  <advance width="1280"/>
  <unicode hex="0031"/>
  <outline>
    <contour>
      <point x="876.0" y="2048.0" type="line"/>
      <point x="640" y="2048" type="line"/>
      <point x="128.0" y="1748.0" type="line"/>
      <point x="232" y="1564" type="line"/>
      <point x="628" y="1796" type="line"/>
      <point x="640" y="1796" type="line"/>
      <point x="640.0" y="0.0" type="line"/>
      <point x="876.0" y="0.0" type="line"/>
    </contour>
  </outline>
</glyph>
<glyph name="two" format="1">
  <advance width="1680"/>
  <unicode hex="0032"/>
  <outline>
    <contour>
      <point x="1516" y="220" type="line"/>
      <point x="512" y="220" type="line"/>
      <point x="512" y="232" type="line"/>
      <point x="1064" y="796" type="line" smooth="yes"/>
      <point x="1276" y="1012"/>
      <point x="1464" y="1260"/>
      <point x="1464" y="1496" type="curve" smooth="yes"/>
      <point x="1464" y="1832"/>
      <point x="1208" y="2076"/>
      <point x="832" y="2076" type="curve" smooth="yes"/>
      <point x="392" y="2076"/>
      <point x="216" y="1740"/>
      <point x="216" y="1408" type="curve"/>
      <point x="460" y="1408" type="line"/>
      <point x="460" y="1644"/>
      <point x="548" y="1872"/>
      <point x="824" y="1872" type="curve" smooth="yes"/>
      <point x="1072" y="1872"/>
      <point x="1224" y="1692"/>
      <point x="1224" y="1488" type="curve" smooth="yes"/>
      <point x="1224" y="1312"/>
      <point x="1108" y="1176"/>
      <point x="860" y="920" type="curve" smooth="yes"/>
      <point x="140" y="180" type="line"/>
      <point x="140" y="0" type="line"/>
      <point x="1516" y="0" type="line"/>
    </contour>
  </outline>
</glyph>
<glyph name="three" format="2">
  <advance width="1688.0"/>
  <unicode hex="0033"/>
  <outline>
    <contour>
      <point x="824.0" y="-28.0" type="curve" smooth="yes"/>
      <point x="1215.0" y="-28.0"/>
      <point x="1492.0" y="209.0"/>
      <point x="1492.0" y="544.0" type="curve" smooth="yes"/>
      <point x="1492.0" y="780.0"/>
      <point x="1328.0" y="960.0"/>
      <point x="1100.0" y="1036.0" type="curve"/>
      <point x="1100.0" y="1052.0" type="line"/>
      <point x="1307.0" y="1115.0"/>
      <point x="1448.0" y="1295.0"/>
      <point x="1448.0" y="1520.0" type="curve" smooth="yes"/>
      <point x="1448.0" y="1846.0"/>
      <point x="1196.0" y="2076.0"/>
      <point x="832.0" y="2076.0" type="curve" smooth="yes"/>
      <point x="478.0" y="2076.0"/>
      <point x="228.0" y="1858.0"/>
      <point x="228.0" y="1536.0" type="curve"/>
      <point x="468.0" y="1536.0" type="line"/>
      <point x="468.0" y="1740.0"/>
      <point x="615.0" y="1860.0"/>
      <point x="828.0" y="1860.0" type="curve" smooth="yes"/>
      <point x="1051.0" y="1860.0"/>
      <point x="1208.0" y="1729.0"/>
      <point x="1208.0" y="1516.0" type="curve" smooth="yes"/>
      <point x="1208.0" y="1300.0"/>
      <point x="1047.0" y="1152.0"/>
      <point x="804.0" y="1152.0" type="curve" smooth="yes"/>
      <point x="688.0" y="1152.0" type="line"/>
      <point x="688.0" y="924.0" type="line"/>
      <point x="804.0" y="924.0" type="line" smooth="yes"/>
      <point x="1055.0" y="924.0"/>
      <point x="1248.0" y="770.0"/>
      <point x="1248.0" y="544.0" type="curve" smooth="yes"/>
      <point x="1248.0" y="327.0"/>
      <point x="1066.0" y="192.0"/>
      <point x="832.0" y="192.0" type="curve" smooth="yes"/>
      <point x="613.0" y="192.0"/>
      <point x="464.0" y="311.0"/>
      <point x="464.0" y="512.0" type="curve"/>
      <point x="208.0" y="512.0" type="line"/>
      <point x="208.0" y="184.0"/>
      <point x="454.0" y="-28.0"/>
    </contour>
  </outline>
</glyph>
<glyph name="four" format="1">
  <advance width="1688"/>
  <unicode hex="0034"/>
  <outline>
    <contour>
      <point x="1572" y="604" type="line"/>
      <point x="416" y="604" type="line"/>
      <point x="1032" y="1636" type="line"/>
      <point x="1156" y="2048" type="line"/>
      <point x="1032" y="2048" type="line"/>
      <point x="108" y="540" type="line"/>
      <point x="108" y="384" type="line"/>
      <point x="1572" y="384" type="line"/>
    </contour>
    <contour>
      <point x="1292" y="2048" type="line"/>
      <point x="1072" y="2048" type="line"/>
      <point x="1072" y="0" type="line"/>
      <point x="1292" y="0" type="line"/>
    </contour>
  </outline>
</glyph>
<glyph name="five" format="1">
  <advance width="1688"/>
  <unicode hex="0035"/>
  <outline>
    <contour>
      <point x="444" y="948" type="line"/>
      <point x="536" y="1024"/>
      <point x="648" y="1076"/>
      <point x="836" y="1076" type="curve" smooth="yes"/>
      <point x="1048" y="1076"/>
      <point x="1264" y="948"/>
      <point x="1264" y="636" type="curve" smooth="yes"/>
      <point x="1264" y="356"/>
      <point x="1052" y="184"/>
      <point x="820" y="184" type="curve" smooth="yes"/>
      <point x="612" y="184"/>
      <point x="468" y="292"/>
      <point x="428" y="512" type="curve"/>
      <point x="188" y="512" type="line"/>
      <point x="224" y="136"/>
      <point x="480" y="-28"/>
      <point x="804" y="-28" type="curve" smooth="yes"/>
      <point x="1244" y="-28"/>
      <point x="1500" y="248"/>
      <point x="1500" y="640" type="curve" smooth="yes"/>
      <point x="1500" y="1040"/>
      <point x="1236" y="1300"/>
      <point x="836" y="1300" type="curve" smooth="yes"/>
      <point x="696" y="1300"/>
      <point x="556" y="1240"/>
      <point x="480" y="1180" type="curve"/>
      <point x="468" y="1180" type="line"/>
      <point x="552" y="1812" type="line"/>
      <point x="1408" y="1812" type="line"/>
      <point x="1408" y="2048" type="line"/>
      <point x="328" y="2048" type="line"/>
      <point x="208" y="1000" type="line"/>
    </contour>
  </outline>
</glyph>
<glyph name="six" format="1">
  <advance width="1664"/>
  <unicode hex="0036"/>
  <outline>
    <contour>
      <point x="1235.93" y="1536" type="curve"/>
      <point x="1471.51" y="1536" type="line"/>
      <point x="1399" y="1884.5"/>
      <point x="1214.54" y="2076"/>
      <point x="876.772" y="2076" type="curve" smooth="yes"/>
      <point x="421.549" y="2076"/>
      <point x="187.99999999999997" y="1679"/>
      <point x="188" y="1046" type="curve" smooth="yes"/>
      <point x="188" y="978" type="line" smooth="yes"/>
      <point x="188" y="322.48"/>
      <point x="393.527" y="-28"/>
      <point x="854.123" y="-28" type="curve" smooth="yes"/>
      <point x="1272.48" y="-28"/>
      <point x="1504" y="268"/>
      <point x="1504" y="644" type="curve" smooth="yes"/>
      <point x="1504" y="972"/>
      <point x="1321.22" y="1288"/>
      <point x="906.926" y="1288" type="curve" smooth="yes"/>
      <point x="618.543" y="1288"/>
      <point x="277.358" y="1120"/>
      <point x="277.358" y="636" type="curve"/>
      <point x="451.704" y="636" type="line"/>
      <point x="451.704" y="900"/>
      <point x="645.0989999999999" y="1068"/>
      <point x="882.247" y="1068" type="curve" smooth="yes"/>
      <point x="1164.691" y="1068"/>
      <point x="1268.23" y="864"/>
      <point x="1268.23" y="632" type="curve" smooth="yes"/>
      <point x="1268.23" y="368"/>
      <point x="1095.642" y="188"/>
      <point x="874.123" y="188" type="curve" smooth="yes"/>
      <point x="653.222" y="188"/>
      <point x="451.704" y="340"/>
      <point x="451.704" y="652" type="curve"/>
      <point x="431.704" y="1036" type="line"/>
      <point x="431.704" y="1706"/>
      <point x="670.485" y="1856"/>
      <point x="879.509" y="1856" type="curve" smooth="yes"/>
      <point x="1121.182" y="1856"/>
      <point x="1189.22" y="1676.5"/>
    </contour>
  </outline>
</glyph>
<glyph name="seven" format="1">
  <advance width="1560"/>
  <unicode hex="0037"/>
  <outline>
    <contour>
      <point x="1420" y="2048" type="line"/>
      <point x="140" y="2048" type="line"/>
      <point x="140" y="1816" type="line"/>
      <point x="1180" y="1816" type="line"/>
      <point x="332" y="0" type="line"/>
      <point x="604" y="0" type="line"/>
      <point x="1420" y="1792" type="line"/>
    </contour>
  </outline>
</glyph>
<glyph name="eight" format="1">
  <advance width="1688"/>
  <unicode hex="0038"/>
  <outline>
    <contour>
      <point x="1492" y="580" type="curve" smooth="yes"/>
      <point x="1492" y="944"/>
      <point x="1212" y="1164"/>
      <point x="840" y="1164" type="curve" smooth="yes"/>
      <point x="468" y="1164"/>
      <point x="196" y="944"/>
      <point x="196" y="580" type="curve" smooth="yes"/>
      <point x="196" y="208"/>
      <point x="484" y="-28"/>
      <point x="848" y="-28" type="curve" smooth="yes"/>
      <point x="1208" y="-28"/>
      <point x="1492" y="212"/>
    </contour>
    <contour>
      <point x="1248" y="580" type="curve" smooth="yes"/>
      <point x="1248" y="364"/>
      <point x="1076" y="180"/>
      <point x="848" y="180" type="curve" smooth="yes"/>
      <point x="620" y="180"/>
      <point x="436" y="364"/>
      <point x="436" y="584" type="curve" smooth="yes"/>
      <point x="436" y="804"/>
      <point x="620" y="992"/>
      <point x="840" y="992" type="curve" smooth="yes"/>
      <point x="1060" y="992"/>
      <point x="1248" y="804"/>
    </contour>
    <contour>
      <point x="1444" y="1544" type="curve" smooth="yes"/>
      <point x="1444" y="1892"/>
      <point x="1188" y="2076"/>
      <point x="848" y="2076" type="curve" smooth="yes"/>
      <point x="504" y="2076"/>
      <point x="244" y="1892"/>
      <point x="244" y="1544" type="curve" smooth="yes"/>
      <point x="244" y="1188"/>
      <point x="500" y="1016"/>
      <point x="844" y="1016" type="curve" smooth="yes"/>
      <point x="1184" y="1016"/>
      <point x="1444" y="1188"/>
    </contour>
    <contour>
      <point x="1212" y="1536" type="curve" smooth="yes"/>
      <point x="1212" y="1336"/>
      <point x="1036" y="1192"/>
      <point x="848" y="1192" type="curve" smooth="yes"/>
      <point x="656" y="1192"/>
      <point x="476" y="1336"/>
      <point x="476" y="1540" type="curve" smooth="yes"/>
      <point x="476" y="1744"/>
      <point x="656" y="1864"/>
      <point x="840" y="1864" type="curve" smooth="yes"/>
      <point x="1036" y="1864"/>
      <point x="1212" y="1732"/>
    </contour>
  </outline>
</glyph>
<glyph name="nine" format="1">
  <advance width="1688"/>
  <unicode hex="0039"/>
  <outline>
    <contour>
      <point x="456" y="512" type="curve"/>
      <point x="220" y="512" type="line"/>
      <point x="292" y="160"/>
      <point x="492" y="-32"/>
      <point x="816" y="-32" type="curve" smooth="yes"/>
      <point x="1284" y="-32"/>
      <point x="1504" y="368"/>
      <point x="1504" y="1000" type="curve" smooth="yes"/>
      <point x="1504" y="1068" type="line" smooth="yes"/>
      <point x="1504" y="1724"/>
      <point x="1284" y="2076"/>
      <point x="836" y="2076" type="curve" smooth="yes"/>
      <point x="412" y="2076"/>
      <point x="188" y="1760"/>
      <point x="188" y="1416" type="curve" smooth="yes"/>
      <point x="188" y="1076"/>
      <point x="412" y="760"/>
      <point x="804" y="760" type="curve" smooth="yes"/>
      <point x="1088" y="760"/>
      <point x="1416" y="928"/>
      <point x="1416" y="1412" type="curve"/>
      <point x="1240" y="1412" type="line"/>
      <point x="1240" y="1152"/>
      <point x="1064" y="980"/>
      <point x="808" y="980" type="curve" smooth="yes"/>
      <point x="528" y="980"/>
      <point x="424" y="1188"/>
      <point x="424" y="1416" type="curve" smooth="yes"/>
      <point x="424" y="1692"/>
      <point x="580" y="1860"/>
      <point x="816" y="1860" type="curve" smooth="yes"/>
      <point x="1040" y="1860"/>
      <point x="1240" y="1708"/>
      <point x="1240" y="1396" type="curve"/>
      <point x="1260" y="1012" type="line"/>
      <point x="1260" y="340"/>
      <point x="1032" y="192"/>
      <point x="812" y="192" type="curve" smooth="yes"/>
      <point x="572" y="192"/>
      <point x="504" y="368"/>
    </contour>
  </outline>
</glyph>
<glyph name="less" format="1">
  <advance width="1792"/>
  <unicode hex="003C"/>
  <outline>
    <contour>
      <point x="1336" y="328" type="line"/>
      <point x="704" y="892" type="line"/>
      <point x="704" y="900" type="line"/>
      <point x="1336" y="1464" type="line"/>
      <point x="1180" y="1616" type="line"/>
      <point x="380" y="896" type="line"/>
      <point x="1180" y="176" type="line"/>
    </contour>
  </outline>
</glyph>
<glyph name="equal" format="1">
  <advance width="1808"/>
  <unicode hex="003D"/>
  <outline>
    <contour>
      <point x="328" y="732" type="line"/>
      <point x="328" y="512" type="line"/>
      <point x="1480" y="512" type="line"/>
      <point x="1480" y="732" type="line"/>
    </contour>
    <contour>
      <point x="328" y="1280" type="line"/>
      <point x="328" y="1060" type="line"/>
      <point x="1480" y="1060" type="line"/>
      <point x="1480" y="1280" type="line"/>
    </contour>
  </outline>
</glyph>
<glyph name="greater" format="2">
  <advance width="1808.0"/>
  <unicode hex="003E"/>
  <guideline x="268.0" y="800.0" angle="0.0"/>
  <outline>
    <contour>
      <point x="1548.0" y="720.0" type="line"/>
      <point x="1548.0" y="880.0" type="line"/>
      <point x="260.0" y="1536.0" type="line"/>
      <point x="260.0" y="1280.0" type="line"/>
      <point x="1248.0" y="804.0" type="line"/>
      <point x="1240.0" y="820.0" type="line"/>
      <point x="1240.0" y="780.0" type="line"/>
      <point x="1248.0" y="796.0" type="line"/>
      <point x="260.0" y="320.0" type="line"/>
      <point x="260.0" y="64.0" type="line"/>
    </contour>
  </outline>
</glyph>
<glyph name="question" format="1">
  <advance width="1520"/>
  <unicode hex="003F"/>
  <outline>
    <contour>
      <point x="880" y="576" type="line"/>
      <point x="880" y="1112"/>
      <point x="1380" y="1036"/>
      <point x="1380" y="1536" type="curve" smooth="yes"/>
      <point x="1380" y="1848"/>
      <point x="1176" y="2076"/>
      <point x="824" y="2076" type="curve" smooth="yes"/>
      <point x="500" y="2076"/>
      <point x="248" y="1876"/>
      <point x="248" y="1536" type="curve"/>
      <point x="500" y="1536" type="line"/>
      <point x="500" y="1772"/>
      <point x="660" y="1868"/>
      <point x="824" y="1868" type="curve" smooth="yes"/>
      <point x="1012" y="1868"/>
      <point x="1140" y="1744"/>
      <point x="1140" y="1548" type="curve" smooth="yes"/>
      <point x="1140" y="1152"/>
      <point x="640" y="1228"/>
      <point x="640" y="576" type="curve"/>
    </contour>
    <contour>
      <point x="760" y="-32" type="curve" smooth="yes"/>
      <point x="864" y="-32"/>
      <point x="952" y="52"/>
      <point x="952" y="160" type="curve" smooth="yes"/>
      <point x="952" y="268"/>
      <point x="864" y="356"/>
      <point x="760" y="356" type="curve" smooth="yes"/>
      <point x="652" y="356"/>
      <point x="568" y="268"/>
      <point x="568" y="160" type="curve" smooth="yes"/>
      <point x="568" y="52"/>
      <point x="652" y="-32"/>
    </contour>
  </outline>
</glyph>
<glyph name="at" format="1">
  <advance width="2620"/>
  <unicode hex="0040"/>
  <outline>
    <contour>
      <point x="1280" y="1180" type="curve" smooth="yes"/>
      <point x="1520" y="1180"/>
      <point x="1648" y="1084"/>
      <point x="1648" y="748" type="curve" smooth="yes"/>
      <point x="1648" y="416"/>
      <point x="1540" y="256"/>
      <point x="1272" y="256" type="curve" smooth="yes"/>
      <point x="1012" y="256"/>
      <point x="920" y="492"/>
      <point x="920" y="748" type="curve" smooth="yes"/>
      <point x="920" y="980"/>
      <point x="1052" y="1180"/>
    </contour>
    <contour>
      <point x="1360" y="1972" type="curve" smooth="yes"/>
      <point x="588" y="1972"/>
      <point x="128" y="1504"/>
      <point x="128" y="724" type="curve" smooth="yes"/>
      <point x="128" y="-84"/>
      <point x="572" y="-540"/>
      <point x="1388" y="-540" type="curve" smooth="yes"/>
      <point x="1592" y="-540"/>
      <point x="1852" y="-480"/>
      <point x="1976" y="-428" type="curve"/>
      <point x="1920" y="-244" type="line"/>
      <point x="1848" y="-268"/>
      <point x="1616" y="-348"/>
      <point x="1396" y="-348" type="curve" smooth="yes"/>
      <point x="712" y="-348"/>
      <point x="348" y="36"/>
      <point x="348" y="716" type="curve" smooth="yes"/>
      <point x="348" y="1384"/>
      <point x="720" y="1784"/>
      <point x="1348" y="1784" type="curve" smooth="yes"/>
      <point x="1984" y="1784"/>
      <point x="2284" y="1336"/>
      <point x="2284" y="888" type="curve" smooth="yes"/>
      <point x="2284" y="432"/>
      <point x="2236" y="228"/>
      <point x="2032" y="228" type="curve" smooth="yes"/>
      <point x="1912" y="228"/>
      <point x="1848" y="328"/>
      <point x="1848" y="440" type="curve" smooth="yes"/>
      <point x="1848" y="1344" type="line"/>
      <point x="1636" y="1344" type="line"/>
      <point x="1636" y="1232" type="line"/>
      <point x="1624" y="1232" type="line"/>
      <point x="1596" y="1320"/>
      <point x="1440" y="1396"/>
      <point x="1240" y="1376" type="curve" smooth="yes"/>
      <point x="940" y="1344"/>
      <point x="712" y="1096"/>
      <point x="712" y="736" type="curve" smooth="yes"/>
      <point x="712" y="356"/>
      <point x="892" y="64"/>
      <point x="1240" y="52" type="curve" smooth="yes"/>
      <point x="1468" y="44"/>
      <point x="1588" y="156"/>
      <point x="1636" y="272" type="curve"/>
      <point x="1648" y="272" type="line"/>
      <point x="1672" y="100"/>
      <point x="1888" y="40"/>
      <point x="2028" y="40" type="curve" smooth="yes"/>
      <point x="2452" y="40"/>
      <point x="2492" y="496"/>
      <point x="2492" y="884" type="curve" smooth="yes"/>
      <point x="2492" y="1432"/>
      <point x="2108" y="1972"/>
    </contour>
  </outline>
</glyph>
<glyph name="A" format="1">
  <advance width="1792"/>
  <unicode hex="0041"/>
  <outline>
    <contour>
      <point x="896.0" y="2304.0" type="move" name="top"/>
    </contour>
    <contour>
      <point x="936.0" y="0.0" type="move" name="bottom"/>
    </contour>
    <contour>
      <point x="1800.0" y="0.0" type="move" name="right"/>
    </contour>
    <contour>
      <point x="496.0" y="2048.0" type="move" name="tonos"/>
    </contour>
    <contour>
      <point x="1744.0" y="0.0" type="move" name="ogonek"/>
    </contour>
    <contour>
      <point x="1840.0" y="2200.0" type="move" name="top_dd"/>
    </contour>
    <contour>
      <point x="1840.0" y="-560.0" type="move" name="bottom_dd"/>
    </contour>
    <contour>
      <point x="1840.0" y="2200.0" type="move" name="top0315"/>
    </contour>
    <contour>
      <point x="1412" y="768" type="line"/>
      <point x="400" y="768" type="line"/>
      <point x="400" y="548" type="line"/>
      <point x="1412" y="548" type="line"/>
    </contour>
    <component base="Lambda"/>
  </outline>
</glyph>
<glyph name="B" format="1">
  <advance width="1816"/>
  <unicode hex="0042"/>
  <outline>
    <contour>
      <point x="992" y="932" type="line"/>
      <point x="992" y="1044" type="line"/>
      <point x="1228" y="1044"/>
      <point x="1584" y="1104"/>
      <point x="1584" y="1504" type="curve"/>
      <point x="1584" y="1804"/>
      <point x="1384" y="2048"/>
      <point x="956" y="2048" type="curve"/>
      <point x="240" y="2048" type="line"/>
      <point x="240" y="0" type="line"/>
      <point x="488" y="0" type="line"/>
      <point x="488" y="1828" type="line"/>
      <point x="956" y="1828" type="line"/>
      <point x="1228" y="1828"/>
      <point x="1348" y="1684"/>
      <point x="1348" y="1504" type="curve"/>
      <point x="1348" y="1288"/>
      <point x="1172" y="1148"/>
      <point x="948" y="1148" type="curve"/>
      <point x="440" y="1148" type="line"/>
      <point x="440" y="932" type="line"/>
    </contour>
    <contour>
      <point x="980" y="0" type="line"/>
      <point x="1464" y="0"/>
      <point x="1664" y="236"/>
      <point x="1664" y="544" type="curve" smooth="yes"/>
      <point x="1664" y="868"/>
      <point x="1440" y="1044"/>
      <point x="1252" y="1056" type="curve"/>
      <point x="1252" y="1148" type="line"/>
      <point x="552" y="1148" type="line"/>
      <point x="552" y="932" type="line"/>
      <point x="992" y="932" type="line" smooth="yes"/>
      <point x="1260" y="932"/>
      <point x="1428" y="752"/>
      <point x="1428" y="544" type="curve" smooth="yes"/>
      <point x="1428" y="364"/>
      <point x="1304" y="220"/>
      <point x="980" y="220" type="curve" smooth="yes"/>
      <point x="360" y="220" type="line"/>
      <point x="360" y="0" type="line"/>
    </contour>
    <contour>
      <point x="868.0" y="2304.0" type="move" name="top"/>
    </contour>
    <contour>
      <point x="880.0" y="16.0" type="move" name="bottom"/>
    </contour>
    <contour>
      <point x="1788.0" y="2200.0" type="move" name="top_dd"/>
    </contour>
    <contour>
      <point x="1788.0" y="-560.0" type="move" name="bottom_dd"/>
    </contour>
    <contour>
      <point x="1788.0" y="2216.0" type="move" name="top0315"/>
    </contour>
  </outline>
</glyph>
<glyph name="C" format="1">
  <advance width="2048"/>
  <unicode hex="0043"/>
  <outline>
    <contour>
      <point x="1896" y="1408" type="line"/>
      <point x="1820" y="1828"/>
      <point x="1484" y="2076"/>
      <point x="1072" y="2076" type="curve" smooth="yes"/>
      <point x="548" y="2076"/>
      <point x="168" y="1672"/>
      <point x="168" y="1024" type="curve"/>
      <point x="168" y="376"/>
      <point x="548" y="-28"/>
      <point x="1072" y="-28" type="curve" smooth="yes"/>
      <point x="1484" y="-28"/>
      <point x="1820" y="220"/>
      <point x="1896" y="640" type="curve"/>
      <point x="1648" y="640" type="line"/>
      <point x="1588" y="356"/>
      <point x="1344" y="204"/>
      <point x="1072" y="204" type="curve" smooth="yes"/>
      <point x="700" y="204"/>
      <point x="408" y="492"/>
      <point x="408" y="1024" type="curve"/>
      <point x="408" y="1556"/>
      <point x="700" y="1844"/>
      <point x="1072" y="1844" type="curve" smooth="yes"/>
      <point x="1344" y="1844"/>
      <point x="1588" y="1692"/>
      <point x="1648" y="1408" type="curve"/>
    </contour>
    <contour>
      <point x="1072" y="2304" type="move" name="top"/>
    </contour>
    <contour>
      <point x="1072" y="-16" type="move" name="bottom"/>
    </contour>
    <contour>
      <point x="1940" y="2200" type="move" name="top_dd"/>
    </contour>
    <contour>
      <point x="1940" y="-560" type="move" name="bottom_dd"/>
    </contour>
    <contour>
      <point x="1940" y="2244" type="move" name="top0315"/>
    </contour>
  </outline>
</glyph>
<glyph name="D" format="1">
  <advance width="2008"/>
  <unicode hex="0044"/>
  <outline>
    <contour>
      <point x="872" y="0" type="line"/>
      <point x="1496" y="0"/>
      <point x="1848" y="388"/>
      <point x="1848" y="1028" type="curve"/>
      <point x="1848" y="1664"/>
      <point x="1496" y="2048"/>
      <point x="900" y="2048" type="curve"/>
      <point x="368" y="2048" type="line"/>
      <point x="368" y="1828" type="line"/>
      <point x="884" y="1828" type="line"/>
      <point x="1364" y="1828"/>
      <point x="1608" y="1524"/>
      <point x="1608" y="1028" type="curve"/>
      <point x="1608" y="528"/>
      <point x="1364" y="220"/>
      <point x="856" y="220" type="curve"/>
      <point x="380" y="220" type="line"/>
      <point x="380" y="0" type="line"/>
    </contour>
    <contour>
      <point x="488" y="2048" type="line"/>
      <point x="240" y="2048" type="line"/>
      <point x="240" y="0" type="line"/>
      <point x="488" y="0" type="line"/>
    </contour>
    <contour>
      <point x="840" y="2304" type="move" name="top"/>
    </contour>
    <contour>
      <point x="436" y="1016" type="move" name="cross"/>
    </contour>
    <contour>
      <point x="848" y="16" type="move" name="bottom"/>
    </contour>
    <contour>
      <point x="1848" y="2200" type="move" name="top_dd"/>
    </contour>
    <contour>
      <point x="1848" y="-560" type="move" name="bottom_dd"/>
    </contour>
    <contour>
      <point x="1848" y="2216" type="move" name="top0315"/>
    </contour>
  </outline>
</glyph>
<glyph name="E" format="1">
  <advance width="1692"/>
  <unicode hex="0045"/>
  <outline>
    <contour>
      <point x="1504" y="220" type="line"/>
      <point x="436" y="220" type="line"/>
      <point x="436" y="0" type="line"/>
      <point x="1504" y="0" type="line"/>
    </contour>
    <contour>
      <point x="500" y="2048" type="line"/>
      <point x="252" y="2048" type="line"/>
      <point x="252" y="0" type="line"/>
      <point x="500" y="0" type="line"/>
    </contour>
    <contour>
      <point x="1384" y="1136" type="line"/>
      <point x="436" y="1136" type="line"/>
      <point x="436" y="916" type="line"/>
      <point x="1384" y="916" type="line"/>
    </contour>
    <contour>
      <point x="1488" y="2048" type="line"/>
      <point x="436" y="2048" type="line"/>
      <point x="436" y="1828" type="line"/>
      <point x="1488" y="1828" type="line"/>
    </contour>
    <contour>
      <point x="892" y="2304" type="move" name="top"/>
    </contour>
    <contour>
      <point x="892" y="16" type="move" name="bottom"/>
    </contour>
    <contour>
      <point x="12" y="2048" type="move" name="tonos"/>
    </contour>
    <contour>
      <point x="1444" y="0" type="move" name="ogonek"/>
    </contour>
    <contour>
      <point x="1640" y="2200" type="move" name="top_dd"/>
    </contour>
    <contour>
      <point x="1640" y="-560" type="move" name="bottom_dd"/>
    </contour>
    <contour>
      <point x="1640" y="2216" type="move" name="top0315"/>
    </contour>
  </outline>
</glyph>
<glyph name="F" format="1">
  <advance width="1660"/>
  <unicode hex="0046"/>
  <outline>
    <contour>
      <point x="500" y="2048" type="line"/>
      <point x="252" y="2048" type="line"/>
      <point x="252" y="0" type="line"/>
      <point x="500" y="0" type="line"/>
    </contour>
    <contour>
      <point x="1348" y="1136" type="line"/>
      <point x="472" y="1136" type="line"/>
      <point x="472" y="916" type="line"/>
      <point x="1348" y="916" type="line"/>
    </contour>
    <contour>
      <point x="1480" y="2048" type="line"/>
      <point x="472" y="2048" type="line"/>
      <point x="472" y="1828" type="line"/>
      <point x="1480" y="1828" type="line"/>
    </contour>
    <contour>
      <point x="500" y="464" type="move" name="cross"/>
    </contour>
    <contour>
      <point x="892" y="2304" type="move" name="top"/>
    </contour>
    <contour>
      <point x="772" y="16" type="move" name="bottom"/>
    </contour>
    <contour>
      <point x="1592" y="2200" type="move" name="top_dd"/>
    </contour>
    <contour>
      <point x="1592" y="-560" type="move" name="bottom_dd"/>
    </contour>
    <contour>
      <point x="1592" y="2216" type="move" name="top0315"/>
    </contour>
  </outline>
</glyph>
<glyph name="G" format="1">
  <advance width="2076"/>
  <unicode hex="0047"/>
  <outline>
    <contour>
      <point x="1908" y="1016" type="line"/>
      <point x="1168" y="1016" type="line"/>
      <point x="1168" y="796" type="line"/>
      <point x="1908" y="796" type="line"/>
    </contour>
    <contour>
      <point x="1892" y="1408" type="line"/>
      <point x="1772" y="1828"/>
      <point x="1464" y="2076"/>
      <point x="1056" y="2076" type="curve" smooth="yes"/>
      <point x="540" y="2076"/>
      <point x="160" y="1672"/>
      <point x="160" y="1024" type="curve"/>
      <point x="160" y="376"/>
      <point x="540" y="-28"/>
      <point x="1072" y="-28" type="curve" smooth="yes"/>
      <point x="1548" y="-28"/>
      <point x="1908" y="292"/>
      <point x="1908" y="796" type="curve"/>
      <point x="1668" y="796" type="line"/>
      <point x="1668" y="448"/>
      <point x="1420" y="204"/>
      <point x="1072" y="204" type="curve" smooth="yes"/>
      <point x="692" y="204"/>
      <point x="400" y="492"/>
      <point x="400" y="1024" type="curve"/>
      <point x="400" y="1556"/>
      <point x="692" y="1844"/>
      <point x="1056" y="1844" type="curve" smooth="yes"/>
      <point x="1320" y="1844"/>
      <point x="1544" y="1692"/>
      <point x="1640" y="1408" type="curve"/>
    </contour>
    <contour>
      <point x="1056.0" y="2304.0" type="move" name="top"/>
    </contour>
    <contour>
      <point x="1056" y="-16" type="move" name="bottom"/>
    </contour>
    <contour>
      <point x="2016.0" y="2200.0" type="move" name="top_dd"/>
    </contour>
    <contour>
      <point x="2016.0" y="-560.0" type="move" name="bottom_dd"/>
    </contour>
    <contour>
      <point x="2016.0" y="2244.0" type="move" name="top0315"/>
    </contour>
  </outline>
</glyph>
<glyph name="H" format="1">
  <advance width="2092"/>
  <unicode hex="0048"/>
  <outline>
    <contour>
      <point x="1628" y="1136" type="line"/>
      <point x="456" y="1136" type="line"/>
      <point x="456" y="916" type="line"/>
      <point x="1628" y="916" type="line"/>
    </contour>
    <contour>
      <point x="500" y="2048" type="line"/>
      <point x="252" y="2048" type="line"/>
      <point x="252" y="0" type="line"/>
      <point x="500" y="0" type="line"/>
    </contour>
    <contour>
      <point x="1840" y="2048" type="line"/>
      <point x="1592" y="2048" type="line"/>
      <point x="1592" y="0" type="line"/>
      <point x="1840" y="0" type="line"/>
    </contour>
    <contour>
      <point x="1044" y="2304" type="move" name="top"/>
    </contour>
    <contour>
      <point x="1820" y="0" type="move" name="right"/>
    </contour>
    <contour>
      <point x="12" y="2048" type="move" name="tonos"/>
    </contour>
    <contour>
      <point x="1024" y="16" type="move" name="bottom"/>
    </contour>
    <contour>
      <point x="2052" y="2200" type="move" name="top_dd"/>
    </contour>
    <contour>
      <point x="2052" y="-560" type="move" name="bottom_dd"/>
    </contour>
    <contour>
      <point x="2052" y="2216" type="move" name="top0315"/>
    </contour>
  </outline>
</glyph>
<glyph name="I" format="1">
  <advance width="744"/>
  <unicode hex="0049"/>
  <outline>
    <contour>
      <point x="496" y="2048" type="line"/>
      <point x="248" y="2048" type="line"/>
      <point x="248" y="0" type="line"/>
      <point x="496" y="0" type="line"/>
    </contour>
    <contour>
      <point x="356" y="2304" type="move" name="top"/>
    </contour>
    <contour>
      <point x="376" y="16" type="move" name="bottom"/>
    </contour>
    <contour>
      <point x="-8" y="2048" type="move" name="tonos"/>
    </contour>
    <contour>
      <point x="516" y="0" type="move" name="right"/>
    </contour>
    <contour>
      <point x="468" y="0" type="move" name="ogonek"/>
    </contour>
    <contour>
      <point x="764" y="2200" type="move" name="top_dd"/>
    </contour>
    <contour>
      <point x="764" y="-560" type="move" name="bottom_dd"/>
    </contour>
    <contour>
      <point x="764" y="2216" type="move" name="top0315"/>
    </contour>
  </outline>
</glyph>
<glyph name="J" format="1">
  <advance width="1424"/>
  <unicode hex="004A"/>
  <outline>
    <contour>
      <point x="952" y="584" type="line"/>
      <point x="952" y="272"/>
      <point x="772" y="192"/>
      <point x="612" y="192" type="curve" smooth="yes"/>
      <point x="416" y="192"/>
      <point x="248" y="308"/>
      <point x="248" y="512" type="curve"/>
      <point x="8" y="512" type="line"/>
      <point x="8" y="180"/>
      <point x="272" y="-28"/>
      <point x="596" y="-28" type="curve" smooth="yes"/>
      <point x="964" y="-28"/>
      <point x="1200" y="188"/>
      <point x="1200" y="584" type="curve"/>
      <point x="1200" y="2048" type="line"/>
      <point x="952" y="2048" type="line"/>
    </contour>
    <contour>
      <point x="1076" y="2304" type="move" name="top"/>
    </contour>
    <contour>
      <point x="712" y="-16" type="move" name="bottom"/>
    </contour>
    <contour>
      <point x="1564" y="2200" type="move" name="top_dd"/>
    </contour>
    <contour>
      <point x="1564" y="-560" type="move" name="bottom_dd"/>
    </contour>
    <contour>
      <point x="1564" y="2200" type="move" name="top0315"/>
    </contour>
  </outline>
</glyph>
<glyph name="K" format="2">
  <advance width="1836.0"/>
  <unicode hex="004B"/>
  <guideline x="1748.0" y="2048.0" angle="227.6708"/>
  <guideline x="928.0" y="212.0" angle="90.0"/>
  <outline>
    <contour>
      <point x="496.0" y="2048.0" type="line"/>
      <point x="248.0" y="2048.0" type="line"/>
      <point x="248.0" y="0.0" type="line"/>
      <point x="496.0" y="0.0" type="line"/>
    </contour>
    <contour>
      <point x="1764.0" y="2048.0" type="line"/>
      <point x="1440.0" y="2048.0" type="line"/>
      <point x="520.0" y="1032.0" type="line"/>
      <point x="448.0" y="1032.0" type="line"/>
      <point x="448.0" y="612.0" type="line"/>
      <point x="760.0" y="960.0" type="line"/>
      <point x="772.0" y="980.0" type="line"/>
    </contour>
    <contour>
      <point x="1464.0" y="0.0" type="line"/>
      <point x="1764.0" y="0.0" type="line"/>
      <point x="872.0" y="1168.0" type="line"/>
      <point x="736.0" y="976.0" type="line"/>
    </contour>
  </outline>
</glyph>
<glyph name="L" format="1">
  <advance width="1584"/>
  <unicode hex="004C"/>
  <outline>
    <contour>
      <point x="1448" y="220" type="line"/>
      <point x="440" y="220" type="line"/>
      <point x="440" y="0" type="line"/>
      <point x="1448" y="0" type="line"/>
    </contour>
    <contour>
      <point x="496" y="2048" type="line"/>
      <point x="248" y="2048" type="line"/>
      <point x="248" y="0" type="line"/>
      <point x="496" y="0" type="line"/>
    </contour>
    <contour>
      <point x="376" y="2304" type="move" name="top"/>
    </contour>
    <contour>
      <point x="860" y="16" type="move" name="bottom"/>
    </contour>
    <contour>
      <point x="844" y="2000" type="move" name="caron"/>
    </contour>
    <contour>
      <point x="832" y="1092" type="move" name="dot"/>
    </contour>
    <contour>
      <point x="1532" y="2200" type="move" name="top_dd"/>
    </contour>
    <contour>
      <point x="1532" y="-560" type="move" name="bottom_dd"/>
    </contour>
    <contour>
      <point x="1532" y="2200" type="move" name="top0315"/>
    </contour>
  </outline>
</glyph>
<glyph name="M" format="2">
  <advance width="2568.0"/>
  <unicode hex="004D"/>
  <guideline x="1224.0" y="152.0" angle="90.0"/>
  <guideline x="516.0" y="2056.0" angle="90.0"/>
  <guideline x="1932.0" y="2060.0" angle="90.0"/>
  <outline>
    <contour>
      <point x="248.0" y="2048.0" type="line"/>
      <point x="248.0" y="0.0" type="line"/>
      <point x="480.0" y="0.0" type="line"/>
      <point x="480.0" y="1556.0" type="line"/>
      <point x="500.0" y="1556.0" type="line"/>
      <point x="1140.0" y="0.0" type="line"/>
      <point x="1364.0" y="0.0" type="line"/>
      <point x="2004.0" y="1556.0" type="line"/>
      <point x="2024.0" y="1556.0" type="line"/>
      <point x="2024.0" y="0.0" type="line"/>
      <point x="2256.0" y="0.0" type="line"/>
      <point x="2256.0" y="2048.0" type="line"/>
      <point x="1960.0" y="2048.0" type="line"/>
      <point x="1264.0" y="348.0" type="line"/>
      <point x="1240.0" y="348.0" type="line"/>
      <point x="544.0" y="2048.0" type="line"/>
    </contour>
  </outline>
</glyph>
<glyph name="N" format="1">
  <advance width="2064"/>
  <unicode hex="004E"/>
  <outline>
    <contour>
      <point x="1824" y="2048" type="line"/>
      <point x="1580" y="2048" type="line"/>
      <point x="1580" y="436" type="line"/>
      <point x="1560" y="436" type="line"/>
      <point x="480" y="2048" type="line"/>
      <point x="240" y="2048" type="line"/>
      <point x="240" y="0" type="line"/>
      <point x="488" y="0" type="line"/>
      <point x="488" y="1604" type="line"/>
      <point x="508" y="1604" type="line"/>
      <point x="1584" y="0" type="line"/>
      <point x="1824" y="0" type="line"/>
    </contour>
    <contour>
      <point x="1024.0" y="2304.0" type="move" name="top"/>
    </contour>
    <contour>
      <point x="988.0" y="16.0" type="move" name="bottom"/>
    </contour>
    <contour>
      <point x="1776.0" y="0.0" type="move" name="right"/>
    </contour>
    <contour>
      <point x="2012.0" y="2200.0" type="move" name="top_dd"/>
    </contour>
    <contour>
      <point x="2012.0" y="-560.0" type="move" name="bottom_dd"/>
    </contour>
    <contour>
      <point x="2012.0" y="2200.0" type="move" name="top0315"/>
    </contour>
  </outline>
</glyph>
<glyph name="O" format="1">
  <advance width="2152"/>
  <unicode hex="004F"/>
  <outline>
    <contour>
      <point x="1980" y="1024" type="curve"/>
      <point x="1980" y="1672"/>
      <point x="1600" y="2076"/>
      <point x="1076" y="2076" type="curve" smooth="yes"/>
      <point x="552" y="2076"/>
      <point x="172" y="1672"/>
      <point x="172" y="1024" type="curve"/>
      <point x="172" y="376"/>
      <point x="552" y="-28"/>
      <point x="1076" y="-28" type="curve" smooth="yes"/>
      <point x="1600" y="-28"/>
      <point x="1980" y="376"/>
    </contour>
    <contour>
      <point x="1740" y="1024" type="curve"/>
      <point x="1740" y="492"/>
      <point x="1448" y="204"/>
      <point x="1076" y="204" type="curve" smooth="yes"/>
      <point x="704" y="204"/>
      <point x="412" y="492"/>
      <point x="412" y="1024" type="curve"/>
      <point x="412" y="1556"/>
      <point x="704" y="1844"/>
      <point x="1076" y="1844" type="curve" smooth="yes"/>
      <point x="1448" y="1844"/>
      <point x="1740" y="1556"/>
    </contour>
    <contour>
      <point x="1076" y="2304" type="move" name="top"/>
    </contour>
    <contour>
      <point x="1076" y="0" type="move" name="bottom"/>
    </contour>
    <contour>
      <point x="276" y="2048" type="move" name="tonos"/>
    </contour>
    <contour>
      <point x="1988" y="2200" type="move" name="top_dd"/>
    </contour>
    <contour>
      <point x="2052" y="-560" type="move" name="bottom_dd"/>
    </contour>
    <contour>
      <point x="1988" y="2200" type="move" name="top0315"/>
    </contour>
  </outline>
</glyph>
<glyph name="P" format="1">
  <advance width="1768"/>
  <unicode hex="0050"/>
  <outline>
    <contour>
      <point x="928" y="740" type="line"/>
      <point x="1404" y="740"/>
      <point x="1612" y="1032"/>
      <point x="1612" y="1400" type="curve"/>
      <point x="1612" y="1768"/>
      <point x="1404" y="2048"/>
      <point x="924" y="2048" type="curve"/>
      <point x="240" y="2048" type="line"/>
      <point x="240" y="0" type="line"/>
      <point x="488" y="0" type="line"/>
      <point x="488" y="1828" type="line"/>
      <point x="924" y="1828" type="line"/>
      <point x="1256" y="1828"/>
      <point x="1368" y="1652"/>
      <point x="1368" y="1400" type="curve"/>
      <point x="1368" y="1148"/>
      <point x="1256" y="960"/>
      <point x="928" y="960" type="curve"/>
      <point x="440" y="960" type="line"/>
      <point x="440" y="740" type="line"/>
    </contour>
    <contour>
      <point x="36" y="2000" type="move" name="tonos"/>
    </contour>
    <contour>
      <point x="896" y="2304" type="move" name="top"/>
    </contour>
    <contour>
      <point x="728" y="0" type="move" name="bottom"/>
    </contour>
    <contour>
      <point x="1788" y="2200" type="move" name="top_dd"/>
    </contour>
    <contour>
      <point x="1788" y="-560" type="move" name="bottom_dd"/>
    </contour>
    <contour>
      <point x="1788" y="2216" type="move" name="top0315"/>
    </contour>
  </outline>
</glyph>
<glyph name="Q" format="1">
  <advance width="2152"/>
  <unicode hex="0051"/>
  <outline>
    <contour>
      <point x="996" y="640" type="line"/>
      <point x="1344" y="184" type="line"/>
      <point x="1400" y="108" type="line"/>
      <point x="1624" y="-192" type="line"/>
      <point x="1896" y="-192" type="line"/>
      <point x="1556" y="260" type="line"/>
      <point x="1496" y="340" type="line"/>
      <point x="1268" y="640" type="line"/>
    </contour>
    <component base="O"/>
    <contour>
      <point x="1024" y="2304" type="move" name="top"/>
    </contour>
    <contour>
      <point x="1036" y="-28" type="move" name="bottom"/>
    </contour>
    <contour>
      <point x="1956" y="2200" type="move" name="top_dd"/>
    </contour>
    <contour>
      <point x="1956" y="-560" type="move" name="bottom_dd"/>
    </contour>
    <contour>
      <point x="1956" y="2200" type="move" name="top0315"/>
    </contour>
  </outline>
</glyph>
<glyph name="R" format="1">
  <advance width="1784"/>
  <unicode hex="0052"/>
  <outline>
    <contour>
      <point x="240" y="2048" type="line"/>
      <point x="240" y="0" type="line"/>
      <point x="488" y="0" type="line"/>
      <point x="488" y="1828" type="line"/>
      <point x="896" y="1828" type="line" smooth="yes"/>
      <point x="1236" y="1828"/>
      <point x="1368" y="1604"/>
      <point x="1368" y="1408" type="curve" smooth="yes"/>
      <point x="1368" y="1216"/>
      <point x="1240" y="1024"/>
      <point x="896" y="1024" type="curve" smooth="yes"/>
      <point x="432" y="1024" type="line"/>
      <point x="432" y="796" type="line"/>
      <point x="1060" y="796" type="line"/>
      <point x="1136" y="816" type="line"/>
      <point x="1428" y="896"/>
      <point x="1608" y="1120"/>
      <point x="1608" y="1408" type="curve" smooth="yes"/>
      <point x="1608" y="1748"/>
      <point x="1360" y="2048"/>
      <point x="896" y="2048" type="curve"/>
    </contour>
    <contour>
      <point x="1396" y="0" type="line"/>
      <point x="1676" y="0" type="line"/>
      <point x="1676" y="16" type="line"/>
      <point x="1204" y="900" type="line"/>
      <point x="924" y="900" type="line"/>
    </contour>
    <contour>
      <point x="896" y="2304" type="move" name="top"/>
    </contour>
    <contour>
      <point x="840" y="0" type="move" name="bottom"/>
    </contour>
    <contour>
      <point x="1724" y="2200" type="move" name="top_dd"/>
    </contour>
    <contour>
      <point x="1724" y="-560" type="move" name="bottom_dd"/>
    </contour>
    <contour>
      <point x="1724" y="2200" type="move" name="top0315"/>
    </contour>
  </outline>
</glyph>
<glyph name="S" format="1">
  <advance width="1796"/>
  <unicode hex="0053"/>
  <outline>
    <contour>
      <point x="1364" y="1520" type="curve"/>
      <point x="1604" y="1520" type="line"/>
      <point x="1584" y="1844"/>
      <point x="1308" y="2076"/>
      <point x="912" y="2076" type="curve" smooth="yes"/>
      <point x="520" y="2076"/>
      <point x="212" y="1848"/>
      <point x="212" y="1504" type="curve" smooth="yes"/>
      <point x="212" y="1228"/>
      <point x="412" y="1064"/>
      <point x="732" y="972" type="curve" smooth="yes"/>
      <point x="984" y="900" type="line" smooth="yes"/>
      <point x="1260" y="820"/>
      <point x="1392" y="744"/>
      <point x="1392" y="560" type="curve" smooth="yes"/>
      <point x="1392" y="336"/>
      <point x="1176" y="188"/>
      <point x="892" y="188" type="curve" smooth="yes"/>
      <point x="648" y="188"/>
      <point x="432" y="296"/>
      <point x="412" y="528" type="curve"/>
      <point x="156" y="528" type="line"/>
      <point x="180" y="192"/>
      <point x="452" y="-36"/>
      <point x="892" y="-36" type="curve" smooth="yes"/>
      <point x="1364" y="-36"/>
      <point x="1632" y="224"/>
      <point x="1632" y="560" type="curve" smooth="yes"/>
      <point x="1632" y="844"/>
      <point x="1444" y="1016"/>
      <point x="1056" y="1120" type="curve" smooth="yes"/>
      <point x="848" y="1176" type="line" smooth="yes"/>
      <point x="576" y="1248"/>
      <point x="452" y="1348"/>
      <point x="452" y="1512" type="curve" smooth="yes"/>
      <point x="452" y="1712"/>
      <point x="632" y="1856"/>
      <point x="904" y="1856" type="curve" smooth="yes"/>
      <point x="1152" y="1856"/>
      <point x="1328" y="1740"/>
    </contour>
    <contour>
      <point x="892" y="2304" type="move" name="top"/>
    </contour>
    <contour>
      <point x="892" y="-36" type="move" name="bottom"/>
    </contour>
    <contour>
      <point x="1652" y="2200" type="move" name="top_dd"/>
    </contour>
    <contour>
      <point x="1652" y="-560" type="move" name="bottom_dd"/>
    </contour>
    <contour>
      <point x="1652" y="2200" type="move" name="top0315"/>
    </contour>
  </outline>
</glyph>
<glyph name="T" format="2">
  <advance width="1808.0"/>
  <unicode hex="0054"/>
  <guideline x="1264.0" y="176.0" angle="90.0"/>
  <anchor x="904.0" y="0.0" name="bottom"/>
  <anchor x="1664.0" y="-560.0" name="bottom_dd"/>
  <anchor x="936.0" y="0.0" name="cedilla"/>
  <anchor x="904.0" y="1056.0" name="cross"/>
  <anchor x="1140.0" y="88.0" name="cyrtic"/>
  <anchor x="960.0" y="0.0" name="right"/>
  <anchor x="904.0" y="2304.0" name="top"/>
  <anchor x="1664.0" y="2200.0" name="top0315"/>
  <anchor x="1664.0" y="2200.0" name="top_dd"/>
  <outline>
    <contour>
      <point x="1028.0" y="2048.0" type="line"/>
      <point x="780.0" y="2048.0" type="line"/>
      <point x="780.0" y="0.0" type="line"/>
      <point x="1028.0" y="0.0" type="line"/>
    </contour>
    <contour>
      <point x="1672.0" y="2048.0" type="line"/>
      <point x="136.0" y="2048.0" type="line"/>
      <point x="136.0" y="1828.0" type="line"/>
      <point x="1672.0" y="1828.0" type="line"/>
    </contour>
  </outline>
</glyph>
<glyph name="U" format="1">
  <advance width="2096"/>
  <unicode hex="0055"/>
  <outline>
    <contour>
      <point x="1596" y="2048" type="line"/>
      <point x="1596" y="692" type="line" smooth="yes"/>
      <point x="1596" y="372"/>
      <point x="1340" y="196"/>
      <point x="1048" y="196" type="curve" smooth="yes"/>
      <point x="756" y="196"/>
      <point x="500" y="372"/>
      <point x="500" y="692" type="curve" smooth="yes"/>
      <point x="500" y="2048" type="line"/>
      <point x="252" y="2048" type="line"/>
      <point x="252" y="692" type="line"/>
      <point x="252" y="232"/>
      <point x="616" y="-36"/>
      <point x="1048" y="-36" type="curve" smooth="yes"/>
      <point x="1480" y="-36"/>
      <point x="1844" y="232"/>
      <point x="1844" y="692" type="curve"/>
      <point x="1844" y="2048" type="line"/>
    </contour>
    <contour>
      <point x="1048" y="2304" type="move" name="top"/>
    </contour>
    <contour>
      <point x="1048" y="-28" type="move" name="bottom"/>
    </contour>
    <contour>
      <point x="1164" y="0" type="move" name="right"/>
    </contour>
    <contour>
      <point x="1308" y="64" type="move" name="ogonek"/>
    </contour>
    <contour>
      <point x="1832" y="2200" type="move" name="top_dd"/>
    </contour>
    <contour>
      <point x="1832" y="-560" type="move" name="bottom_dd"/>
    </contour>
    <contour>
      <point x="1832" y="2200" type="move" name="top0315"/>
    </contour>
  </outline>
</glyph>
<glyph name="V" format="1">
  <advance width="1864"/>
  <unicode hex="0056"/>
  <outline>
    <contour>
      <point x="312" y="2048" type="line"/>
      <point x="52" y="2048" type="line"/>
      <point x="804" y="0" type="line"/>
      <point x="1060" y="0" type="line"/>
      <point x="1812" y="2048" type="line"/>
      <point x="1552" y="2048" type="line"/>
      <point x="944" y="324" type="line"/>
      <point x="920" y="324" type="line"/>
    </contour>
    <contour>
      <point x="884.0" y="2304.0" type="move" name="top"/>
    </contour>
    <contour>
      <point x="1008.0" y="16.0" type="move" name="bottom"/>
    </contour>
    <contour>
      <point x="1904.0" y="2200.0" type="move" name="top_dd"/>
    </contour>
    <contour>
      <point x="1904.0" y="-560.0" type="move" name="bottom_dd"/>
    </contour>
    <contour>
      <point x="1904.0" y="2216.0" type="move" name="top0315"/>
    </contour>
  </outline>
</glyph>
<glyph name="W" format="2">
  <advance width="2672.0"/>
  <unicode hex="0057"/>
  <guideline x="1128.0" y="360.0" angle="0.0"/>
  <guideline x="1328.0" y="2096.0" angle="90.0"/>
  <guideline x="740.0" y="332.0" angle="90.0"/>
  <guideline x="1916.0" y="356.0" angle="90.0"/>
  <outline>
    <contour>
      <point x="620.0" y="0.0" type="line"/>
      <point x="876.0" y="0.0" type="line"/>
      <point x="1328.0" y="1632.0" type="line"/>
      <point x="1344.0" y="1632.0" type="line"/>
      <point x="1796.0" y="0.0" type="line"/>
      <point x="2052.0" y="0.0" type="line"/>
      <point x="2612.0" y="2048.0" type="line"/>
      <point x="2360.0" y="2048.0" type="line"/>
      <point x="1932.0" y="380.0" type="line"/>
      <point x="1912.0" y="380.0" type="line"/>
      <point x="1476.0" y="2048.0" type="line"/>
      <point x="1196.0" y="2048.0" type="line"/>
      <point x="760.0" y="380.0" type="line"/>
      <point x="740.0" y="380.0" type="line"/>
      <point x="312.0" y="2048.0" type="line"/>
      <point x="60.0" y="2048.0" type="line"/>
    </contour>
  </outline>
</glyph>
<glyph name="X" format="2">
  <advance width="1808.0"/>
  <unicode hex="0058"/>
  <guideline x="1724.0" y="2180.0" angle="90.0"/>
  <guideline x="896.0" y="1372.0" angle="90.0"/>
  <guideline x="68.0" y="2060.0" angle="90.0"/>
  <guideline x="944.0" y="1196.0" angle="0.0"/>
  <guideline x="1352.0" y="852.0" angle="0.0"/>
  <anchor x="904.0" y="16.0" name="bottom"/>
  <anchor x="1848.0" y="-560.0" name="bottom_dd"/>
  <anchor x="964.0" y="1020.0" name="cross"/>
  <anchor x="1596.0" y="0.0" name="right"/>
  <anchor x="904.0" y="2304.0" name="top"/>
  <anchor x="1848.0" y="2216.0" name="top0315"/>
  <anchor x="1848.0" y="2200.0" name="top_dd"/>
  <outline>
    <contour>
      <point x="368.0" y="2048.0" type="line"/>
      <point x="76.0" y="2048.0" type="line"/>
      <point x="736.0" y="1024.0" type="line"/>
      <point x="76.0" y="0.0" type="line"/>
      <point x="368.0" y="0.0" type="line"/>
      <point x="896.0" y="836.0" type="line"/>
      <point x="912.0" y="836.0" type="line"/>
      <point x="1440.0" y="0.0" type="line"/>
      <point x="1732.0" y="0.0" type="line"/>
      <point x="1088.0" y="1024.0" type="line"/>
      <point x="1732.0" y="2048.0" type="line"/>
      <point x="1440.0" y="2048.0" type="line"/>
      <point x="912.0" y="1196.0" type="line"/>
      <point x="896.0" y="1196.0" type="line"/>
    </contour>
  </outline>
</glyph>
<glyph name="Y" format="1">
  <advance width="1888"/>
  <unicode hex="0059"/>
  <outline>
    <contour>
      <point x="364" y="2048" type="line"/>
      <point x="80" y="2048" type="line"/>
      <point x="820" y="844" type="line"/>
      <point x="820" y="0" type="line"/>
      <point x="1068" y="0" type="line"/>
      <point x="1068" y="844" type="line"/>
      <point x="1808" y="2048" type="line"/>
      <point x="1524" y="2048" type="line"/>
      <point x="944" y="1072" type="line"/>
    </contour>
    <contour>
      <point x="920" y="1044" type="line"/>
      <point x="968" y="1044" type="line"/>
      <point x="968" y="1092" type="line"/>
      <point x="920" y="1092" type="line"/>
    </contour>
    <contour>
      <point x="944" y="2304" type="move" name="top"/>
    </contour>
    <contour>
      <point x="944" y="0" type="move" name="bottom"/>
    </contour>
    <contour>
      <point x="924" y="816" type="move" name="cross"/>
    </contour>
    <contour>
      <point x="32" y="2048" type="move" name="tonos"/>
    </contour>
    <contour>
      <point x="1916" y="2200" type="move" name="top_dd"/>
    </contour>
    <contour>
      <point x="1916" y="-560" type="move" name="bottom_dd"/>
    </contour>
    <contour>
      <point x="1916" y="2200" type="move" name="top0315"/>
    </contour>
  </outline>
</glyph>
<glyph name="Z" format="1">
  <advance width="1744"/>
  <unicode hex="005A"/>
  <outline>
    <contour>
      <point x="1584" y="220" type="line"/>
      <point x="276" y="220" type="line"/>
      <point x="276" y="0" type="line"/>
      <point x="1584" y="0" type="line"/>
    </contour>
    <contour>
      <point x="1572" y="1868" type="line"/>
      <point x="1572" y="2048" type="line"/>
      <point x="1424" y="2048" type="line"/>
      <point x="172" y="180" type="line"/>
      <point x="172" y="0" type="line"/>
      <point x="320" y="0" type="line"/>
    </contour>
    <contour>
      <point x="1448" y="2048" type="line"/>
      <point x="160" y="2048" type="line"/>
      <point x="160" y="1828" type="line"/>
      <point x="1448" y="1828" type="line"/>
    </contour>
    <contour>
      <point x="872" y="2304" type="move" name="top"/>
    </contour>
    <contour>
      <point x="872" y="16" type="move" name="bottom"/>
    </contour>
    <contour>
      <point x="1736" y="2200" type="move" name="top_dd"/>
    </contour>
    <contour>
      <point x="1672.0" y="-560.0" type="move" name="bottom_dd"/>
    </contour>
    <contour>
      <point x="1736" y="2200" type="move" name="top0315"/>
    </contour>
  </outline>
</glyph>
<glyph name="bracketleft" format="1">
  <advance width="928"/>
  <unicode hex="005B"/>
  <outline>
    <contour>
      <point x="776" y="2240" type="line"/>
      <point x="264" y="2240" type="line"/>
      <point x="264" y="-448" type="line"/>
      <point x="776" y="-448" type="line"/>
      <point x="776" y="-228" type="line"/>
      <point x="496" y="-228" type="line"/>
      <point x="496" y="2020" type="line"/>
      <point x="776" y="2020" type="line"/>
    </contour>
  </outline>
</glyph>
<glyph name="backslash" format="1">
  <advance width="1008"/>
  <unicode hex="005C"/>
  <outline>
    <contour>
      <point x="88" y="2048" type="line"/>
      <point x="684" y="-308" type="line"/>
      <point x="916" y="-308" type="line"/>
      <point x="320" y="2048" type="line"/>
    </contour>
  </outline>
</glyph>
<glyph name="bracketright" format="1">
  <advance width="912"/>
  <unicode hex="005D"/>
  <outline>
    <contour>
      <point x="144" y="2240" type="line"/>
      <point x="144" y="2020" type="line"/>
      <point x="424" y="2020" type="line"/>
      <point x="424" y="-228" type="line"/>
      <point x="144" y="-228" type="line"/>
      <point x="144" y="-448" type="line"/>
      <point x="656" y="-448" type="line"/>
      <point x="656" y="2240" type="line"/>
    </contour>
  </outline>
</glyph>
<glyph name="asciicircum" format="2">
  <advance width="1320.0"/>
  <unicode hex="005E"/>
  <outline>
    <contour>
      <point x="624.0" y="1872.0" type="line"/>
      <point x="624.0" y="1772.0" type="line"/>
      <point x="696.0" y="1772.0" type="line"/>
      <point x="696.0" y="1872.0" type="line"/>
    </contour>
    <contour>
      <point x="112.0" y="1120.0" type="line"/>
      <point x="352.0" y="1120.0" type="line"/>
      <point x="672.0" y="1812.0" type="line"/>
      <point x="648.0" y="1812.0" type="line"/>
      <point x="972.0" y="1120.0" type="line"/>
      <point x="1208.0" y="1120.0" type="line"/>
      <point x="796.0" y="1984.0" type="line"/>
      <point x="524.0" y="1984.0" type="line"/>
    </contour>
  </outline>
</glyph>
<glyph name="underscore" format="2">
  <advance width="1272.0"/>
  <unicode hex="005F"/>
  <anchor x="632.0" y="216.0" name="_bottom"/>
  <outline>
    <contour>
      <point x="1276.0" y="0.0" type="line"/>
      <point x="-4.0" y="0.0" type="line"/>
      <point x="-4.0" y="-220.0" type="line"/>
      <point x="1276.0" y="-220.0" type="line"/>
    </contour>
  </outline>
</glyph>
<glyph name="grave" format="1">
  <advance width="760"/>
  <unicode hex="0060"/>
  <outline>
    <contour>
      <point x="392" y="2112" type="line"/>
      <point x="60" y="2112" type="line"/>
      <point x="424" y="1704" type="line"/>
      <point x="660" y="1704" type="line"/>
    </contour>
    <contour>
      <point x="504" y="1776" type="move" name="_top"/>
    </contour>
    <contour>
      <point x="504" y="2268" type="move" name="mkmktop_acc"/>
    </contour>
  </outline>
</glyph>
<glyph name="a" format="1">
  <advance width="1572"/>
  <unicode hex="0061"/>
  <outline>
    <contour>
      <point x="1128" y="764" type="line"/>
      <point x="1128" y="556" type="line" smooth="yes"/>
      <point x="1128" y="364"/>
      <point x="972" y="176"/>
      <point x="664" y="176" type="curve" smooth="yes"/>
      <point x="508" y="176"/>
      <point x="372" y="268"/>
      <point x="372" y="424" type="curve" smooth="yes"/>
      <point x="372" y="744"/>
      <point x="924" y="748"/>
      <point x="1080" y="760" type="curve" smooth="yes"/>
    </contour>
    <contour>
      <point x="1128" y="0" type="line"/>
      <point x="1364" y="0" type="line"/>
      <point x="1364" y="948" type="line" smooth="yes"/>
      <point x="1364" y="1400"/>
      <point x="1064" y="1556"/>
      <point x="752" y="1556" type="curve" smooth="yes"/>
      <point x="588" y="1556"/>
      <point x="280" y="1512"/>
      <point x="156" y="1180" type="curve"/>
      <point x="376" y="1096" type="line"/>
      <point x="448" y="1260"/>
      <point x="572" y="1348"/>
      <point x="756" y="1348" type="curve" smooth="yes"/>
      <point x="984" y="1348"/>
      <point x="1128" y="1212"/>
      <point x="1128" y="992" type="curve" smooth="yes"/>
      <point x="1128" y="972" type="line"/>
      <point x="1056" y="964" type="line" smooth="yes"/>
      <point x="796" y="936"/>
      <point x="136" y="912"/>
      <point x="136" y="424" type="curve" smooth="yes"/>
      <point x="136" y="136"/>
      <point x="368" y="-36"/>
      <point x="660" y="-36" type="curve" smooth="yes"/>
      <point x="928" y="-36"/>
      <point x="1068" y="108"/>
      <point x="1116" y="208" type="curve"/>
      <point x="1128" y="208" type="line"/>
    </contour>
    <contour>
      <point x="760.0" y="1792.0" type="move" name="top"/>
    </contour>
    <contour>
      <point x="756.0" y="0.0" type="move" name="bottom"/>
    </contour>
    <contour>
      <point x="1364.0" y="0.0" type="move" name="ogonek"/>
    </contour>
    <contour>
      <point x="760.0" y="1792.0" type="move" name="rhalfring"/>
    </contour>
    <contour>
      <point x="1504.0" y="2176.0" type="move" name="top_dd"/>
    </contour>
    <contour>
      <point x="1504.0" y="-560.0" type="move" name="bottom_dd"/>
    </contour>
    <contour>
      <point x="1272.0" y="908.0" type="move" name="rhotichook"/>
    </contour>
    <contour>
      <point x="1272.0" y="1792.0" type="move" name="top0315"/>
    </contour>
  </outline>
</glyph>
<glyph name="b" format="1">
  <advance width="1604"/>
  <unicode hex="0062"/>
  <outline>
    <contour>
      <point x="200" y="2048" type="line"/>
      <point x="200" y="0" type="line"/>
      <point x="404" y="0" type="line"/>
      <point x="436" y="288" type="line"/>
      <point x="344" y="784" type="line"/>
      <point x="436" y="1172" type="line"/>
      <point x="436" y="2048" type="line"/>
    </contour>
    <component base="rightloop.cn" xOffset="-40"/>
    <contour>
      <point x="872" y="2304" type="move" name="top"/>
    </contour>
    <contour>
      <point x="868" y="-28" type="move" name="bottom"/>
    </contour>
    <contour>
      <point x="1672" y="2200" type="move" name="top_dd"/>
    </contour>
    <contour>
      <point x="1672" y="-560" type="move" name="bottom_dd"/>
    </contour>
    <contour>
      <point x="1672" y="2216" type="move" name="top0315"/>
    </contour>
  </outline>
</glyph>
<glyph name="c" format="1">
  <advance width="1556"/>
  <unicode hex="0063"/>
  <outline>
    <contour>
      <point x="1436" y="1076" type="line"/>
      <point x="1396" y="1364"/>
      <point x="1152" y="1556"/>
      <point x="828" y="1556" type="curve" smooth="yes"/>
      <point x="412" y="1556"/>
      <point x="136" y="1228"/>
      <point x="136" y="768" type="curve" smooth="yes"/>
      <point x="136" y="296"/>
      <point x="404" y="-32"/>
      <point x="832" y="-32" type="curve" smooth="yes"/>
      <point x="1172" y="-32"/>
      <point x="1396" y="176"/>
      <point x="1436" y="448" type="curve"/>
      <point x="1200" y="448" type="line"/>
      <point x="1156" y="280"/>
      <point x="1016" y="180"/>
      <point x="832" y="180" type="curve" smooth="yes"/>
      <point x="552" y="180"/>
      <point x="372" y="412"/>
      <point x="372" y="768" type="curve" smooth="yes"/>
      <point x="372" y="1116"/>
      <point x="556" y="1344"/>
      <point x="832" y="1344" type="curve" smooth="yes"/>
      <point x="1040" y="1344"/>
      <point x="1164" y="1216"/>
      <point x="1200" y="1076" type="curve"/>
    </contour>
    <contour>
      <point x="824" y="1792" type="move" name="top"/>
    </contour>
    <contour>
      <point x="824" y="0" type="move" name="bottom"/>
    </contour>
    <contour>
      <point x="824" y="1792" type="move" name="marktop"/>
    </contour>
    <contour>
      <point x="1456.0" y="2200.0" type="move" name="top_dd"/>
    </contour>
    <contour>
      <point x="1456.0" y="-560.0" type="move" name="bottom_dd"/>
    </contour>
    <contour>
      <point x="1456.0" y="1776.0" type="move" name="top0315"/>
    </contour>
  </outline>
</glyph>
<glyph name="d" format="1">
  <advance width="1684"/>
  <unicode hex="0064"/>
  <outline>
    <contour>
      <point x="1248" y="344" type="line"/>
      <point x="1268" y="0" type="line"/>
      <point x="1484" y="0" type="line"/>
      <point x="1484" y="2048" type="line"/>
      <point x="1248" y="2048" type="line"/>
      <point x="1248" y="1156" type="line"/>
      <point x="1320" y="748" type="line"/>
    </contour>
    <component base="leftloop.cn"/>
    <contour>
      <point x="1544" y="2112" type="move" name="caron"/>
    </contour>
    <contour>
      <point x="1220" y="1796" type="move" name="cross"/>
    </contour>
    <contour>
      <point x="732" y="-28" type="move" name="bottom"/>
    </contour>
    <contour>
      <point x="752" y="2304" type="move" name="top"/>
    </contour>
    <contour>
      <point x="1604" y="2200" type="move" name="top_dd"/>
    </contour>
    <contour>
      <point x="1604" y="-560" type="move" name="bottom_dd"/>
    </contour>
    <contour>
      <point x="1604" y="2216" type="move" name="top0315"/>
    </contour>
  </outline>
</glyph>
<glyph name="e" format="1">
  <advance width="1624"/>
  <unicode hex="0065"/>
  <outline>
    <contour>
      <point x="852" y="-32" type="curve"/>
      <point x="1164" y="-32"/>
      <point x="1392" y="124"/>
      <point x="1464" y="356" type="curve"/>
      <point x="1236" y="420" type="line"/>
      <point x="1176" y="260"/>
      <point x="1044" y="180"/>
      <point x="852" y="180" type="curve" smooth="yes"/>
      <point x="552" y="180"/>
      <point x="372" y="376"/>
      <point x="372" y="768" type="curve"/>
      <point x="372" y="1132"/>
      <point x="524" y="1344"/>
      <point x="812" y="1344" type="curve"/>
      <point x="1084" y="1344"/>
      <point x="1248" y="1152"/>
      <point x="1248" y="892" type="curve"/>
      <point x="304" y="892" type="line"/>
      <point x="304" y="688" type="line"/>
      <point x="1488" y="688" type="line"/>
      <point x="1488" y="788" type="line" smooth="yes"/>
      <point x="1488" y="1360"/>
      <point x="1140" y="1556"/>
      <point x="812" y="1556" type="curve" smooth="yes"/>
      <point x="380" y="1556"/>
      <point x="136" y="1220"/>
      <point x="136" y="764" type="curve"/>
      <point x="136" y="280"/>
      <point x="412" y="-32"/>
    </contour>
    <contour>
      <point x="820.0" y="1792.0" type="move" name="top"/>
    </contour>
    <contour>
      <point x="840.0" y="0.0" type="move" name="bottom"/>
    </contour>
    <contour>
      <point x="1252.0" y="92.0" type="move" name="ogonek"/>
    </contour>
    <contour>
      <point x="1488.0" y="2176.0" type="move" name="top_dd"/>
    </contour>
    <contour>
      <point x="1488.0" y="-560.0" type="move" name="bottom_dd"/>
    </contour>
    <contour>
      <point x="1196.0" y="788.0" type="move" name="rhotichook"/>
    </contour>
    <contour>
      <point x="1416.0" y="1792.0" type="move" name="top0315"/>
    </contour>
  </outline>
</glyph>
<glyph name="f" format="1">
  <advance width="1016"/>
  <unicode hex="0066"/>
  <outline>
    <contour>
      <point x="904" y="1536" type="line"/>
      <point x="76" y="1536" type="line"/>
      <point x="76" y="1316" type="line"/>
      <point x="904" y="1316" type="line"/>
    </contour>
    <contour>
      <point x="324" y="0" type="line"/>
      <point x="560" y="0" type="line"/>
      <point x="560" y="1624" type="line"/>
      <point x="560" y="1776"/>
      <point x="624" y="1856"/>
      <point x="780" y="1856" type="curve" smooth="yes"/>
      <point x="848" y="1856"/>
      <point x="888" y="1840"/>
      <point x="912" y="1832" type="curve"/>
      <point x="980" y="2036" type="line"/>
      <point x="944" y="2052"/>
      <point x="872" y="2076"/>
      <point x="756" y="2076" type="curve" smooth="yes"/>
      <point x="536" y="2076"/>
      <point x="324" y="1944"/>
      <point x="324" y="1680" type="curve"/>
    </contour>
    <contour>
      <point x="548" y="2304" type="move" name="top"/>
    </contour>
    <contour>
      <point x="444" y="0" type="move" name="bottom"/>
    </contour>
    <contour>
      <point x="768" y="1484" type="move" name="top_dd"/>
    </contour>
    <contour>
      <point x="984" y="-560" type="move" name="bottom_dd"/>
    </contour>
    <contour>
      <point x="928" y="2116" type="move" name="top0315"/>
    </contour>
  </outline>
</glyph>
<glyph name="g" format="1">
  <advance width="1580"/>
  <unicode hex="0067"/>
  <outline>
    <contour>
      <point x="1176" y="1528" type="line"/>
      <point x="1176" y="1200" type="line"/>
      <point x="1260" y="768" type="line"/>
      <point x="1104" y="256" type="line"/>
      <point x="1176" y="216" type="line"/>
      <point x="1176" y="20" type="line"/>
      <point x="1172" y="-248"/>
      <point x="996" y="-364"/>
      <point x="740" y="-364" type="curve" smooth="yes"/>
      <point x="484" y="-364"/>
      <point x="380" y="-224"/>
      <point x="324" y="-160" type="curve"/>
      <point x="148" y="-300" type="line"/>
      <point x="244" y="-436"/>
      <point x="420" y="-576"/>
      <point x="740" y="-576" type="curve" smooth="yes"/>
      <point x="1112" y="-576"/>
      <point x="1412" y="-376"/>
      <point x="1412" y="-32" type="curve" smooth="yes"/>
      <point x="1412" y="1528" type="line"/>
    </contour>
    <contour>
      <point x="116" y="752" type="line"/>
      <point x="116" y="320"/>
      <point x="364" y="24"/>
      <point x="712" y="24" type="curve" smooth="yes"/>
      <point x="1128" y="24"/>
      <point x="1276" y="316"/>
      <point x="1328" y="700" type="curve"/>
      <point x="1328" y="812" type="line"/>
      <point x="1276" y="1196"/>
      <point x="1128" y="1556"/>
      <point x="716" y="1556" type="curve" smooth="yes"/>
      <point x="360" y="1556"/>
      <point x="116" y="1232"/>
      <point x="116" y="780" type="curve" smooth="yes"/>
    </contour>
    <contour>
      <point x="360" y="780" type="line"/>
      <point x="360" y="1068"/>
      <point x="496" y="1328"/>
      <point x="788" y="1328" type="curve" smooth="yes"/>
      <point x="1028" y="1328"/>
      <point x="1144" y="1072"/>
      <point x="1164" y="924" type="curve"/>
      <point x="1184" y="828"/>
      <point x="1184" y="676"/>
      <point x="1164" y="588" type="curve"/>
      <point x="1136" y="440"/>
      <point x="1008" y="236"/>
      <point x="772" y="236" type="curve" smooth="yes"/>
      <point x="508" y="236"/>
      <point x="360" y="464"/>
      <point x="360" y="752" type="curve" smooth="yes"/>
    </contour>
    <contour>
      <point x="796.0" y="1792.0" type="move" name="top"/>
    </contour>
    <contour>
      <point x="732.0" y="-616.0" type="move" name="bottom"/>
    </contour>
    <contour>
      <point x="1552.0" y="2200.0" type="move" name="top_dd"/>
    </contour>
    <contour>
      <point x="1552.0" y="-560.0" type="move" name="bottom_dd"/>
    </contour>
    <contour>
      <point x="1552.0" y="1776.0" type="move" name="top0315"/>
    </contour>
  </outline>
</glyph>
<glyph name="h" format="1">
  <advance width="1620"/>
  <unicode hex="0068"/>
  <outline>
    <contour>
      <point x="444" y="928" type="line" smooth="yes"/>
      <point x="444" y="1216"/>
      <point x="652" y="1328"/>
      <point x="840" y="1328" type="curve" smooth="yes"/>
      <point x="1044" y="1328"/>
      <point x="1176" y="1200"/>
      <point x="1176" y="976" type="curve" smooth="yes"/>
      <point x="1176" y="0" type="line"/>
      <point x="1412" y="0" type="line"/>
      <point x="1412" y="976" type="line" smooth="yes"/>
      <point x="1412" y="1356"/>
      <point x="1204" y="1556"/>
      <point x="916" y="1556" type="curve" smooth="yes"/>
      <point x="684" y="1556"/>
      <point x="536" y="1436"/>
      <point x="460" y="1320" type="curve"/>
      <point x="444" y="1320" type="line"/>
      <point x="444" y="2048" type="line"/>
      <point x="208" y="2048" type="line"/>
      <point x="208" y="0" type="line"/>
      <point x="444" y="0" type="line"/>
    </contour>
    <contour>
      <point x="876" y="2304" type="move" name="top"/>
    </contour>
    <contour>
      <point x="356" y="1796" type="move" name="cross"/>
    </contour>
    <contour>
      <point x="812" y="0" type="move" name="bottom"/>
    </contour>
    <contour>
      <point x="1340" y="0" type="move" name="right"/>
    </contour>
    <contour>
      <point x="1520" y="2200" type="move" name="top_dd"/>
    </contour>
    <contour>
      <point x="1520" y="-560" type="move" name="bottom_dd"/>
    </contour>
    <contour>
      <point x="1520" y="2216" type="move" name="top0315"/>
    </contour>
  </outline>
</glyph>
<glyph name="i" format="1">
  <advance width="636"/>
  <unicode hex="0069"/>
  <outline>
    <contour>
      <point x="436" y="1536" type="line"/>
      <point x="200" y="1536" type="line"/>
      <point x="200" y="0" type="line"/>
      <point x="436" y="0" type="line"/>
    </contour>
    <contour>
      <point x="148" y="1920" type="curve" smooth="yes"/>
      <point x="148" y="1832"/>
      <point x="212" y="1760"/>
      <point x="316" y="1760" type="curve"/>
      <point x="420" y="1760"/>
      <point x="484" y="1832"/>
      <point x="484" y="1920" type="curve"/>
      <point x="484" y="2000"/>
      <point x="420" y="2080"/>
      <point x="316" y="2080" type="curve"/>
      <point x="212" y="2080"/>
      <point x="148" y="2000"/>
    </contour>
    <contour>
      <point x="316" y="16" type="move" name="bottom"/>
    </contour>
    <contour>
      <point x="432" y="0" type="move" name="ogonek"/>
    </contour>
    <contour>
      <point x="320" y="2304" type="move" name="top"/>
    </contour>
    <contour>
      <point x="664" y="2200" type="move" name="top_dd"/>
    </contour>
    <contour>
      <point x="664" y="-560" type="move" name="bottom_dd"/>
    </contour>
    <contour>
      <point x="360" y="900" type="move" name="rhotichook"/>
    </contour>
    <contour>
      <point x="664" y="2200" type="move" name="top0315"/>
    </contour>
  </outline>
</glyph>
<glyph name="j" format="1">
  <advance width="704"/>
  <unicode hex="006A"/>
  <outline>
    <contour>
      <point x="236" y="1536" type="line"/>
      <point x="236" y="-112" type="line"/>
      <point x="236" y="-268"/>
      <point x="172" y="-360"/>
      <point x="28" y="-360" type="curve"/>
      <point x="-16" y="-360" type="line"/>
      <point x="-16" y="-580" type="line"/>
      <point x="32" y="-580" type="line"/>
      <point x="328" y="-580"/>
      <point x="472" y="-396"/>
      <point x="472" y="-112" type="curve"/>
      <point x="472" y="1536" type="line"/>
    </contour>
    <contour>
      <point x="188" y="1920" type="curve" smooth="yes"/>
      <point x="188" y="1832"/>
      <point x="252" y="1760"/>
      <point x="356" y="1760" type="curve"/>
      <point x="460" y="1760"/>
      <point x="524" y="1832"/>
      <point x="524" y="1920" type="curve"/>
      <point x="524" y="2000"/>
      <point x="460" y="2080"/>
      <point x="356" y="2080" type="curve"/>
      <point x="252" y="2080"/>
      <point x="188" y="2000"/>
    </contour>
    <contour>
      <point x="356" y="2304" type="move" name="top"/>
    </contour>
    <contour>
      <point x="232" y="-632" type="move" name="bottom"/>
    </contour>
    <contour>
      <point x="652" y="2200" type="move" name="top_dd"/>
    </contour>
    <contour>
      <point x="652" y="-560" type="move" name="bottom_dd"/>
    </contour>
    <contour>
      <point x="652" y="2200" type="move" name="top0315"/>
    </contour>
  </outline>
</glyph>
<glyph name="k" format="1">
  <advance width="1468"/>
  <unicode hex="006B"/>
  <outline>
    <contour>
      <point x="436" y="2048" type="line"/>
      <point x="200" y="2048" type="line"/>
      <point x="200" y="0" type="line"/>
      <point x="436" y="0" type="line"/>
    </contour>
    <contour>
      <point x="1380" y="1536" type="line"/>
      <point x="1080" y="1536" type="line"/>
      <point x="456" y="844" type="line"/>
      <point x="416" y="844" type="line"/>
      <point x="420" y="492" type="line"/>
    </contour>
    <contour>
      <point x="1160" y="0" type="line"/>
      <point x="1444" y="0" type="line"/>
      <point x="744" y="924" type="line"/>
      <point x="600" y="732" type="line"/>
    </contour>
    <contour>
      <point x="688" y="92" type="move" name="bottom"/>
    </contour>
    <contour>
      <point x="292" y="1772" type="move" name="cross"/>
    </contour>
    <contour>
      <point x="716" y="2304" type="move" name="top"/>
    </contour>
    <contour>
      <point x="716" y="2304" type="move" name="marktop"/>
    </contour>
    <contour>
      <point x="1400" y="2200" type="move" name="top_dd"/>
    </contour>
    <contour>
      <point x="1400" y="-560" type="move" name="bottom_dd"/>
    </contour>
    <contour>
      <point x="1220" y="2216" type="move" name="top0315"/>
    </contour>
  </outline>
</glyph>
<glyph name="l" format="1">
  <advance width="636"/>
  <unicode hex="006C"/>
  <outline>
    <contour>
      <point x="436" y="2048" type="line"/>
      <point x="200" y="2048" type="line"/>
      <point x="200" y="0" type="line"/>
      <point x="436" y="0" type="line"/>
    </contour>
    <contour>
      <point x="316" y="2304" type="move" name="top"/>
    </contour>
    <contour>
      <point x="284" y="16" type="move" name="bottom"/>
    </contour>
    <contour>
      <point x="600" y="2112" type="move" name="caron"/>
    </contour>
    <contour>
      <point x="592" y="1064" type="move" name="dot"/>
    </contour>
    <contour>
      <point x="724" y="2124" type="move" name="marktop"/>
    </contour>
    <contour>
      <point x="632" y="2200" type="move" name="top_dd"/>
    </contour>
    <contour>
      <point x="632" y="-560" type="move" name="bottom_dd"/>
    </contour>
    <contour>
      <point x="632" y="2336" type="move" name="top0315"/>
    </contour>
  </outline>
</glyph>
<glyph name="m" format="1">
  <advance width="2372"/>
  <unicode hex="006D"/>
  <outline>
    <contour>
      <point x="1308" y="964" type="line" smooth="yes"/>
      <point x="1308" y="1180"/>
      <point x="1428" y="1328"/>
      <point x="1636" y="1328" type="curve" smooth="yes"/>
      <point x="1764" y="1328"/>
      <point x="1936" y="1252"/>
      <point x="1936" y="1012" type="curve" smooth="yes"/>
      <point x="1936" y="0" type="line"/>
      <point x="2172" y="0" type="line"/>
      <point x="2172" y="1004" type="line" smooth="yes"/>
      <point x="2172" y="1380"/>
      <point x="1964" y="1556"/>
      <point x="1708" y="1556" type="curve" smooth="yes"/>
      <point x="1484" y="1556"/>
      <point x="1308" y="1408"/>
      <point x="1264" y="1280" type="curve"/>
      <point x="1248" y="1280" type="line"/>
      <point x="1180" y="1432"/>
      <point x="1044" y="1556"/>
      <point x="852" y="1556" type="curve" smooth="yes"/>
      <point x="656" y="1556"/>
      <point x="496" y="1408"/>
      <point x="452" y="1276" type="curve"/>
      <point x="436" y="1276" type="line"/>
      <point x="436" y="1536" type="line"/>
      <point x="200" y="1536" type="line"/>
      <point x="200" y="0" type="line"/>
      <point x="436" y="0" type="line"/>
      <point x="436" y="916" type="line" smooth="yes"/>
      <point x="436" y="1168"/>
      <point x="608" y="1328"/>
      <point x="788" y="1328" type="curve" smooth="yes"/>
      <point x="960" y="1328"/>
      <point x="1068" y="1236"/>
      <point x="1068" y="1004" type="curve" smooth="yes"/>
      <point x="1068" y="0" type="line"/>
      <point x="1308" y="0" type="line"/>
    </contour>
    <contour>
      <point x="1256" y="1792" type="move" name="top"/>
    </contour>
    <contour>
      <point x="1192" y="16" type="move" name="bottom"/>
    </contour>
    <contour>
      <point x="1256" y="1792" type="move" name="marktop"/>
    </contour>
    <contour>
      <point x="2424" y="2200" type="move" name="top_dd"/>
    </contour>
    <contour>
      <point x="2424" y="-560" type="move" name="bottom_dd"/>
    </contour>
    <contour>
      <point x="2424" y="1776" type="move" name="top0315"/>
    </contour>
  </outline>
</glyph>
<glyph name="n" format="1">
  <advance width="1604"/>
  <unicode hex="006E"/>
  <outline>
    <contour>
      <point x="436" y="908" type="line" smooth="yes"/>
      <point x="436" y="1196"/>
      <point x="656" y="1328"/>
      <point x="832" y="1328" type="curve" smooth="yes"/>
      <point x="1028" y="1328"/>
      <point x="1168" y="1184"/>
      <point x="1168" y="960" type="curve" smooth="yes"/>
      <point x="1168" y="0" type="line"/>
      <point x="1404" y="0" type="line"/>
      <point x="1404" y="976" type="line" smooth="yes"/>
      <point x="1404" y="1368"/>
      <point x="1196" y="1556"/>
      <point x="908" y="1556" type="curve" smooth="yes"/>
      <point x="676" y="1556"/>
      <point x="524" y="1432"/>
      <point x="452" y="1276" type="curve"/>
      <point x="436" y="1276" type="line"/>
      <point x="436" y="1536" type="line"/>
      <point x="200" y="1536" type="line"/>
      <point x="200" y="0" type="line"/>
      <point x="436" y="0" type="line"/>
    </contour>
    <contour>
      <point x="808" y="1792" type="move" name="top"/>
    </contour>
    <contour>
      <point x="600" y="16" type="move" name="bottom"/>
    </contour>
    <contour>
      <point x="-208" y="2120" type="move" name="caron"/>
    </contour>
    <contour>
      <point x="1200" y="0" type="move" name="right"/>
    </contour>
    <contour>
      <point x="808" y="1792" type="move" name="marktop"/>
    </contour>
    <contour>
      <point x="1392" y="2200" type="move" name="top_dd"/>
    </contour>
    <contour>
      <point x="1392" y="-560" type="move" name="bottom_dd"/>
    </contour>
    <contour>
      <point x="1392" y="1776" type="move" name="top0315"/>
    </contour>
  </outline>
</glyph>
<glyph name="o" format="1">
  <advance width="1648"/>
  <unicode hex="006F"/>
  <outline>
    <contour>
      <point x="816" y="180" type="curve" smooth="yes"/>
      <point x="524" y="180"/>
      <point x="364" y="440"/>
      <point x="364" y="768" type="curve" smooth="yes"/>
      <point x="364" y="1100"/>
      <point x="540" y="1344"/>
      <point x="816" y="1344" type="curve" smooth="yes"/>
      <point x="1104" y="1344"/>
      <point x="1284" y="1132"/>
      <point x="1284" y="768" type="curve" smooth="yes"/>
      <point x="1284" y="400"/>
      <point x="1104" y="180"/>
    </contour>
    <contour>
      <point x="816" y="-32" type="curve" smooth="yes"/>
      <point x="1252" y="-32"/>
      <point x="1520" y="276"/>
      <point x="1520" y="768" type="curve" smooth="yes"/>
      <point x="1520" y="1256"/>
      <point x="1252" y="1556"/>
      <point x="816" y="1556" type="curve" smooth="yes"/>
      <point x="388" y="1556"/>
      <point x="128" y="1224"/>
      <point x="128" y="768" type="curve" smooth="yes"/>
      <point x="128" y="296"/>
      <point x="388" y="-32"/>
    </contour>
    <contour>
      <point x="820" y="1792" type="move" name="top"/>
    </contour>
    <contour>
      <point x="816" y="0" type="move" name="bottom"/>
    </contour>
    <contour>
      <point x="1600" y="2176" type="move" name="top_dd"/>
    </contour>
    <contour>
      <point x="1600" y="-560" type="move" name="bottom_dd"/>
    </contour>
    <contour>
      <point x="1352" y="896" type="move" name="rhotichook"/>
    </contour>
    <contour>
      <point x="1536" y="1792" type="move" name="top0315"/>
    </contour>
  </outline>
</glyph>
<glyph name="p" format="2">
  <advance width="1716.0"/>
  <unicode hex="0070"/>
  <anchor x="332.0" y="-576.0" name="bottom"/>
  <anchor x="1560.0" y="-560.0" name="bottom_dd"/>
  <anchor x="904.0" y="1792.0" name="marktop"/>
  <anchor x="904.0" y="1792.0" name="top"/>
  <anchor x="1560.0" y="1760.0" name="top0315"/>
  <anchor x="1560.0" y="2200.0" name="top_dd"/>
  <outline>
    <contour>
      <point x="216.0" y="-480.0" type="line"/>
      <point x="216.0" y="-576.0" type="line"/>
      <point x="452.0" y="-576.0" type="line"/>
      <point x="452.0" y="-480.0" type="line"/>
    </contour>
    <component base="b" yScale="-1.0" yOffset="1536.0"/>
  </outline>
</glyph>
<glyph name="q" format="1">
  <advance width="1724"/>
  <unicode hex="0071"/>
  <outline>
    <contour>
      <point x="1504" y="1536" type="line"/>
      <point x="1276" y="1536" type="line"/>
      <point x="1276" y="1244" type="line"/>
      <point x="1276" y="1148" type="line"/>
      <point x="1340" y="728" type="line"/>
      <point x="1268" y="392" type="line"/>
      <point x="1268" y="-576" type="line"/>
      <point x="1504" y="-576" type="line"/>
    </contour>
    <component base="leftloop.cn" xOffset="8"/>
    <contour>
      <point x="824" y="1792" type="move" name="top"/>
    </contour>
    <contour>
      <point x="1384" y="-576" type="move" name="bottom"/>
    </contour>
    <contour>
      <point x="824" y="1792" type="move" name="marktop"/>
    </contour>
    <contour>
      <point x="1628" y="2200" type="move" name="top_dd"/>
    </contour>
    <contour>
      <point x="1628" y="-560" type="move" name="bottom_dd"/>
    </contour>
    <contour>
      <point x="1432" y="1792" type="move" name="top0315"/>
    </contour>
  </outline>
</glyph>
<glyph name="r" format="1">
  <advance width="1072"/>
  <unicode hex="0072"/>
  <outline>
    <contour>
      <point x="1056" y="1504" type="line"/>
      <point x="1008" y="1532"/>
      <point x="932" y="1560"/>
      <point x="852" y="1560" type="curve"/>
      <point x="672" y="1560"/>
      <point x="504" y="1420"/>
      <point x="460" y="1272" type="curve"/>
      <point x="444" y="1272" type="line"/>
      <point x="444" y="1536" type="line"/>
      <point x="208" y="1536" type="line"/>
      <point x="208" y="0" type="line"/>
      <point x="444" y="0" type="line"/>
      <point x="444" y="868" type="line"/>
      <point x="448" y="1076"/>
      <point x="592" y="1316"/>
      <point x="844" y="1316" type="curve"/>
      <point x="912" y="1316"/>
      <point x="952" y="1296"/>
      <point x="976" y="1284" type="curve"/>
    </contour>
    <contour>
      <point x="544" y="1792" type="move" name="top"/>
    </contour>
    <contour>
      <point x="324" y="0" type="move" name="bottom"/>
    </contour>
    <contour>
      <point x="924.0" y="2200.0" type="move" name="top_dd"/>
    </contour>
    <contour>
      <point x="924.0" y="-560.0" type="move" name="bottom_dd"/>
    </contour>
    <contour>
      <point x="924.0" y="1792.0" type="move" name="top0315"/>
    </contour>
  </outline>
</glyph>
<glyph name="s" format="1">
  <advance width="1468"/>
  <unicode hex="0073"/>
  <outline>
    <contour>
      <point x="1280" y="1192" type="line"/>
      <point x="1200" y="1416"/>
      <point x="1028" y="1556"/>
      <point x="744" y="1556" type="curve" smooth="yes"/>
      <point x="420" y="1556"/>
      <point x="180" y="1372"/>
      <point x="180" y="1112" type="curve" smooth="yes"/>
      <point x="180" y="924"/>
      <point x="304" y="756"/>
      <point x="584" y="684" type="curve" smooth="yes"/>
      <point x="840" y="620" type="line" smooth="yes"/>
      <point x="992" y="584"/>
      <point x="1060" y="516"/>
      <point x="1060" y="416" type="curve" smooth="yes"/>
      <point x="1060" y="288"/>
      <point x="932" y="172"/>
      <point x="712" y="172" type="curve" smooth="yes"/>
      <point x="484" y="172"/>
      <point x="376" y="296"/>
      <point x="320" y="436" type="curve"/>
      <point x="104" y="356" type="line"/>
      <point x="180" y="164"/>
      <point x="348" y="-32"/>
      <point x="716" y="-32" type="curve" smooth="yes"/>
      <point x="1096" y="-32"/>
      <point x="1300" y="188"/>
      <point x="1300" y="424" type="curve" smooth="yes"/>
      <point x="1300" y="600"/>
      <point x="1184" y="760"/>
      <point x="904" y="828" type="curve" smooth="yes"/>
      <point x="676" y="884" type="line" smooth="yes"/>
      <point x="500" y="928"/>
      <point x="416" y="1020"/>
      <point x="416" y="1124" type="curve" smooth="yes"/>
      <point x="416" y="1256"/>
      <point x="556" y="1356"/>
      <point x="744" y="1356" type="curve" smooth="yes"/>
      <point x="980" y="1356"/>
      <point x="1040" y="1200"/>
      <point x="1068" y="1132" type="curve"/>
    </contour>
    <contour>
      <point x="744" y="1792" type="move" name="top"/>
    </contour>
    <contour>
      <point x="744" y="0" type="move" name="bottom"/>
    </contour>
    <contour>
      <point x="1440" y="2200" type="move" name="top_dd"/>
    </contour>
    <contour>
      <point x="1440" y="-560" type="move" name="bottom_dd"/>
    </contour>
    <contour>
      <point x="1440" y="1776" type="move" name="top0315"/>
    </contour>
  </outline>
</glyph>
<glyph name="t" format="2">
  <advance width="1000.0"/>
  <unicode hex="0074"/>
  <guideline x="852.0" y="1332.0" angle="90.0"/>
  <guideline x="416.0" y="1920.0" angle="90.0"/>
  <outline>
    <contour>
      <point x="860.0" y="1536.0" type="line"/>
      <point x="64.0" y="1536.0" type="line"/>
      <point x="64.0" y="1316.0" type="line"/>
      <point x="860.0" y="1316.0" type="line"/>
    </contour>
    <contour>
      <point x="296.0" y="1864.0" type="line"/>
      <point x="296.0" y="376.0" type="line"/>
      <point x="296.0" y="108.0"/>
      <point x="512.0" y="-20.0"/>
      <point x="712.0" y="-20.0" type="curve" smooth="yes"/>
      <point x="800.0" y="-20.0"/>
      <point x="856.0" y="-4.0"/>
      <point x="888.0" y="8.0" type="curve"/>
      <point x="840.0" y="220.0" type="line"/>
      <point x="820.0" y="216.0"/>
      <point x="788.0" y="208.0"/>
      <point x="736.0" y="208.0" type="curve" smooth="yes"/>
      <point x="632.0" y="208.0"/>
      <point x="532.0" y="240.0"/>
      <point x="532.0" y="440.0" type="curve"/>
      <point x="532.0" y="1864.0" type="line"/>
    </contour>
  </outline>
</glyph>
<glyph name="u" format="1">
  <advance width="1644"/>
  <unicode hex="0075"/>
  <outline>
    <contour>
      <point x="1188" y="608" type="line" smooth="yes"/>
      <point x="1188" y="320"/>
      <point x="968" y="208"/>
      <point x="792" y="208" type="curve" smooth="yes"/>
      <point x="596" y="208"/>
      <point x="456" y="336"/>
      <point x="456" y="560" type="curve" smooth="yes"/>
      <point x="456" y="1536" type="line"/>
      <point x="220" y="1536" type="line"/>
      <point x="220" y="560" type="line" smooth="yes"/>
      <point x="220" y="156"/>
      <point x="492" y="-20"/>
      <point x="716" y="-20" type="curve" smooth="yes"/>
      <point x="948" y="-20"/>
      <point x="1096" y="100"/>
      <point x="1172" y="216" type="curve"/>
      <point x="1188" y="216" type="line"/>
      <point x="1188" y="0" type="line"/>
      <point x="1424" y="0" type="line"/>
      <point x="1424" y="1536" type="line"/>
      <point x="1188" y="1536" type="line"/>
    </contour>
    <contour>
      <point x="824" y="1792" type="move" name="top"/>
    </contour>
    <contour>
      <point x="1276" y="0" type="move" name="ogonek"/>
    </contour>
    <contour>
      <point x="792" y="0" type="move" name="bottomu"/>
    </contour>
    <contour>
      <point x="1480" y="2200" type="move" name="top_dd"/>
    </contour>
    <contour>
      <point x="1480" y="-560" type="move" name="bottom_dd"/>
    </contour>
    <contour>
      <point x="1188" y="900" type="move" name="rhotichook"/>
    </contour>
    <contour>
      <point x="1444" y="1776" type="move" name="top0315"/>
    </contour>
    <contour>
      <point x="792" y="0" type="move" name="bottom"/>
    </contour>
  </outline>
</glyph>
<glyph name="v" format="1">
  <advance width="1568"/>
  <unicode hex="0076"/>
  <outline>
    <contour>
      <point x="1472" y="1536" type="line"/>
      <point x="1216" y="1536" type="line"/>
      <point x="792" y="312" type="line"/>
      <point x="776" y="312" type="line"/>
      <point x="352" y="1536" type="line"/>
      <point x="96" y="1536" type="line"/>
      <point x="664" y="0" type="line"/>
      <point x="904" y="0" type="line"/>
    </contour>
    <contour>
      <point x="760" y="1792" type="move" name="top"/>
    </contour>
    <contour>
      <point x="760" y="0" type="move" name="bottom"/>
    </contour>
    <contour>
      <point x="1360" y="2200" type="move" name="top_dd"/>
    </contour>
    <contour>
      <point x="1360" y="-560" type="move" name="bottom_dd"/>
    </contour>
    <contour>
      <point x="1400" y="1792" type="move" name="top0315"/>
    </contour>
  </outline>
</glyph>
<glyph name="w" format="1">
  <advance width="2296"/>
  <unicode hex="0077"/>
  <outline>
    <contour>
      <point x="2196" y="1536" type="line"/>
      <point x="1948" y="1536" type="line" smooth="yes"/>
      <point x="1616" y="364" type="line"/>
      <point x="1600" y="364" type="line"/>
      <point x="1276" y="1536" type="line"/>
      <point x="1024" y="1536" type="line"/>
      <point x="696" y="360" type="line"/>
      <point x="680" y="360" type="line"/>
      <point x="348" y="1536" type="line" smooth="yes"/>
      <point x="100" y="1536" type="line"/>
      <point x="568" y="0" type="line"/>
      <point x="800" y="0" type="line"/>
      <point x="1136" y="1180" type="line"/>
      <point x="1160" y="1180" type="line"/>
      <point x="1496" y="0" type="line"/>
      <point x="1728" y="0" type="line"/>
    </contour>
    <contour>
      <point x="1148" y="1792" type="move" name="top"/>
    </contour>
    <contour>
      <point x="1148" y="0" type="move" name="bottom"/>
    </contour>
    <contour>
      <point x="1148" y="1792" type="move" name="marktop"/>
    </contour>
    <contour>
      <point x="2112" y="2200" type="move" name="top_dd"/>
    </contour>
    <contour>
      <point x="2112" y="-560" type="move" name="bottom_dd"/>
    </contour>
    <contour>
      <point x="2112" y="1776" type="move" name="top0315"/>
    </contour>
  </outline>
</glyph>
<glyph name="x" format="1">
  <advance width="1520"/>
  <unicode hex="0078"/>
  <outline>
    <contour>
      <point x="392" y="1536" type="line"/>
      <point x="120" y="1536" type="line"/>
      <point x="608" y="768" type="line"/>
      <point x="120" y="0" type="line"/>
      <point x="392" y="0" type="line"/>
      <point x="760" y="596" type="line"/>
      <point x="1128" y="0" type="line"/>
      <point x="1400" y="0" type="line"/>
      <point x="904" y="768" type="line"/>
      <point x="1400" y="1536" type="line"/>
      <point x="1128" y="1536" type="line"/>
      <point x="760" y="908" type="line"/>
    </contour>
    <contour>
      <point x="760" y="0" type="move" name="bottom"/>
    </contour>
    <contour>
      <point x="1184" y="0" type="move" name="right"/>
    </contour>
    <contour>
      <point x="692" y="760" type="move" name="cross"/>
    </contour>
    <contour>
      <point x="760" y="1792" type="move" name="top"/>
    </contour>
    <contour>
      <point x="1396" y="2200" type="move" name="top_dd"/>
    </contour>
    <contour>
      <point x="1396" y="-560" type="move" name="bottom_dd"/>
    </contour>
    <contour>
      <point x="1396" y="1760" type="move" name="top0315"/>
    </contour>
  </outline>
</glyph>
<glyph name="y" format="1">
  <advance width="1568"/>
  <unicode hex="0079"/>
  <outline>
    <contour>
      <point x="612" y="-152" type="line" smooth="yes"/>
      <point x="524" y="-380"/>
      <point x="416" y="-400"/>
      <point x="248" y="-360" type="curve"/>
      <point x="188" y="-568" type="line"/>
      <point x="212" y="-580"/>
      <point x="280" y="-596"/>
      <point x="360" y="-596" type="curve" smooth="yes"/>
      <point x="572" y="-596"/>
      <point x="724" y="-484"/>
      <point x="812" y="-248" type="curve" smooth="yes"/>
      <point x="1472" y="1536" type="line"/>
      <point x="1216" y="1536" type="line"/>
      <point x="748" y="184" type="line"/>
      <point x="676" y="16" type="line"/>
    </contour>
    <contour>
      <point x="352" y="1536" type="line"/>
      <point x="96" y="1536" type="line"/>
      <point x="680" y="-48" type="line"/>
      <point x="864" y="56" type="line"/>
    </contour>
    <contour>
      <point x="760" y="260" type="line"/>
      <point x="808" y="260" type="line"/>
      <point x="808" y="312" type="line"/>
      <point x="760" y="312" type="line"/>
    </contour>
    <contour>
      <point x="780" y="1792" type="move" name="top"/>
    </contour>
    <contour>
      <point x="564" y="-576" type="move" name="bottom"/>
    </contour>
    <contour>
      <point x="780" y="1792" type="move" name="marktop"/>
    </contour>
    <contour>
      <point x="1164" y="2176" type="move" name="top_dd"/>
    </contour>
    <contour>
      <point x="1088" y="-576" type="move" name="bottom_dd"/>
    </contour>
    <contour>
      <point x="780" y="896" type="move" name="rhotichook"/>
    </contour>
    <contour>
      <point x="1356" y="1792" type="move" name="top0315"/>
    </contour>
  </outline>
</glyph>
<glyph name="z" format="2">
  <advance width="1524.0"/>
  <unicode hex="007A"/>
  <guideline x="1348.0" y="500.0" angle="90.0"/>
  <guideline x="172.0" y="380.0" angle="90.0"/>
  <outline>
    <contour>
      <point x="172.0" y="0.0" type="line"/>
      <point x="1376.0" y="0.0" type="line"/>
      <point x="1376.0" y="220.0" type="line"/>
      <point x="500.0" y="220.0" type="line"/>
      <point x="500.0" y="236.0" type="line"/>
      <point x="1348.0" y="1348.0" type="line"/>
      <point x="1348.0" y="1536.0" type="line"/>
      <point x="200.0" y="1536.0" type="line"/>
      <point x="200.0" y="1316.0" type="line"/>
      <point x="1044.0" y="1316.0" type="line"/>
      <point x="1044.0" y="1300.0" type="line"/>
      <point x="172.0" y="180.0" type="line"/>
    </contour>
  </outline>
</glyph>
<glyph name="braceleft" format="1">
  <advance width="928"/>
  <unicode hex="007B"/>
  <outline>
    <contour>
      <point x="800" y="2196" type="line"/>
      <point x="424" y="2092"/>
      <point x="356" y="1844"/>
      <point x="356" y="1556" type="curve"/>
      <point x="356" y="1276" type="line"/>
      <point x="356" y="1080"/>
      <point x="272" y="956"/>
      <point x="72" y="956" type="curve"/>
      <point x="72" y="780" type="line"/>
      <point x="468" y="780"/>
      <point x="580" y="1000"/>
      <point x="580" y="1276" type="curve"/>
      <point x="580" y="1556" type="line"/>
      <point x="580" y="1780"/>
      <point x="644" y="1964"/>
      <point x="856" y="2032" type="curve"/>
    </contour>
    <contour>
      <point x="856" y="-328" type="line"/>
      <point x="644" y="-260"/>
      <point x="580" y="-76"/>
      <point x="580" y="148" type="curve" smooth="yes"/>
      <point x="580" y="424" type="line" smooth="yes"/>
      <point x="580" y="704"/>
      <point x="468" y="924"/>
      <point x="72" y="924" type="curve"/>
      <point x="72" y="748" type="line"/>
      <point x="272" y="748"/>
      <point x="356" y="620"/>
      <point x="356" y="424" type="curve" smooth="yes"/>
      <point x="356" y="148" type="line" smooth="yes"/>
      <point x="356" y="-144"/>
      <point x="424" y="-388"/>
      <point x="800" y="-496" type="curve"/>
    </contour>
  </outline>
</glyph>
<glyph name="bar" format="1">
  <advance width="748"/>
  <unicode hex="007C"/>
  <outline>
    <contour>
      <point x="484" y="2048" type="line"/>
      <point x="264" y="2048" type="line"/>
      <point x="264" y="-384" type="line"/>
      <point x="484" y="-384" type="line"/>
    </contour>
  </outline>
</glyph>
<glyph name="braceright" format="2">
  <advance width="928.0"/>
  <unicode hex="007D"/>
  <outline>
    <contour>
      <point x="112.0" y="-496.0" type="line"/>
      <point x="488.0" y="-388.0"/>
      <point x="556.0" y="-144.0"/>
      <point x="556.0" y="148.0" type="curve" smooth="yes"/>
      <point x="556.0" y="424.0" type="line" smooth="yes"/>
      <point x="556.0" y="620.0"/>
      <point x="640.0" y="748.0"/>
      <point x="840.0" y="748.0" type="curve"/>
      <point x="840.0" y="924.0" type="line"/>
      <point x="444.0" y="924.0"/>
      <point x="332.0" y="704.0"/>
      <point x="332.0" y="424.0" type="curve" smooth="yes"/>
      <point x="332.0" y="148.0" type="line" smooth="yes"/>
      <point x="332.0" y="-76.0"/>
      <point x="268.0" y="-260.0"/>
      <point x="56.0" y="-328.0" type="curve"/>
    </contour>
    <contour>
      <point x="840.0" y="780.0" type="curve"/>
      <point x="840.0" y="956.0" type="line"/>
      <point x="640.0" y="956.0"/>
      <point x="556.0" y="1080.0"/>
      <point x="556.0" y="1276.0" type="curve"/>
      <point x="556.0" y="1556.0" type="line"/>
      <point x="556.0" y="1844.0"/>
      <point x="488.0" y="2092.0"/>
      <point x="112.0" y="2196.0" type="curve"/>
      <point x="56.0" y="2032.0" type="line"/>
      <point x="268.0" y="1964.0"/>
      <point x="332.0" y="1780.0"/>
      <point x="332.0" y="1556.0" type="curve"/>
      <point x="332.0" y="1276.0" type="line"/>
      <point x="332.0" y="1000.0"/>
      <point x="444.0" y="780.0"/>
    </contour>
  </outline>
</glyph>
<glyph name="asciitilde" format="1">
  <advance width="2048"/>
  <unicode hex="007E"/>
  <outline>
    <contour>
      <point x="1584" y="1080" type="line"/>
      <point x="1584" y="912"/>
      <point x="1492" y="760"/>
      <point x="1356" y="760" type="curve" smooth="yes"/>
      <point x="1268" y="760"/>
      <point x="1204" y="808"/>
      <point x="1112" y="896" type="curve" smooth="yes"/>
      <point x="976" y="1016"/>
      <point x="852" y="1104"/>
      <point x="692" y="1104" type="curve" smooth="yes"/>
      <point x="432" y="1104"/>
      <point x="240" y="872"/>
      <point x="240" y="580" type="curve"/>
      <point x="480" y="580" type="line"/>
      <point x="480" y="748"/>
      <point x="556" y="868"/>
      <point x="692" y="868" type="curve" smooth="yes"/>
      <point x="780" y="868"/>
      <point x="860" y="800"/>
      <point x="948" y="720" type="curve" smooth="yes"/>
      <point x="1092" y="592"/>
      <point x="1196" y="524"/>
      <point x="1356" y="524" type="curve" smooth="yes"/>
      <point x="1616" y="524"/>
      <point x="1808" y="792"/>
      <point x="1808" y="1080" type="curve"/>
    </contour>
  </outline>
</glyph>
<glyph name="cent" format="1">
  <advance width="1556"/>
  <unicode hex="00A2"/>
  <outline>
    <contour>
      <point x="940" y="1812" type="line"/>
      <point x="720" y="1812" type="line"/>
      <point x="720" y="1412" type="line"/>
      <point x="940" y="1412" type="line"/>
    </contour>
    <contour>
      <point x="940" y="64" type="line"/>
      <point x="720" y="64" type="line"/>
      <point x="720" y="-336" type="line"/>
      <point x="940" y="-336" type="line"/>
    </contour>
    <component base="c"/>
  </outline>
</glyph>
<glyph name="sterling" format="1">
  <advance width="1760"/>
  <unicode hex="00A3"/>
  <outline>
    <contour>
      <point x="1532" y="0" type="line"/>
      <point x="1536" y="228" type="line"/>
      <point x="176" y="228" type="line"/>
      <point x="176" y="0" type="line"/>
    </contour>
    <contour>
      <point x="1100" y="796" type="line"/>
      <point x="1100" y="1024" type="line"/>
      <point x="168" y="1024" type="line"/>
      <point x="168" y="796" type="line"/>
    </contour>
    <contour>
      <point x="608" y="1428" type="line"/>
      <point x="608" y="1724"/>
      <point x="776" y="1856"/>
      <point x="968" y="1856" type="curve" smooth="yes"/>
      <point x="1148" y="1856"/>
      <point x="1292" y="1800"/>
      <point x="1292" y="1532" type="curve"/>
      <point x="1544" y="1532" type="line"/>
      <point x="1544" y="1852"/>
      <point x="1356" y="2076"/>
      <point x="992" y="2076" type="curve" smooth="yes"/>
      <point x="636" y="2076"/>
      <point x="360" y="1856"/>
      <point x="372" y="1428" type="curve" smooth="yes"/>
      <point x="400" y="560" type="line" smooth="yes"/>
      <point x="400" y="440"/>
      <point x="368" y="252"/>
      <point x="276" y="228" type="curve"/>
      <point x="528" y="152" type="line"/>
      <point x="636" y="228"/>
      <point x="648" y="392"/>
      <point x="640" y="560" type="curve" smooth="yes"/>
    </contour>
  </outline>
</glyph>
<glyph name="currency" format="1">
  <advance width="2020"/>
  <unicode hex="00A4"/>
  <outline>
    <contour>
      <point x="408" y="836" type="curve"/>
      <point x="408" y="1192"/>
      <point x="676" y="1480"/>
      <point x="1004" y="1480" type="curve" smooth="yes"/>
      <point x="1332" y="1480"/>
      <point x="1596" y="1192"/>
      <point x="1596" y="836" type="curve" smooth="yes"/>
      <point x="1596" y="484"/>
      <point x="1332" y="192"/>
      <point x="1004" y="192" type="curve" smooth="yes"/>
      <point x="676" y="192"/>
      <point x="408" y="484"/>
    </contour>
    <contour>
      <point x="188" y="836" type="curve"/>
      <point x="188" y="348"/>
      <point x="552" y="-28"/>
      <point x="1004" y="-28" type="curve" smooth="yes"/>
      <point x="1456" y="-28"/>
      <point x="1824" y="348"/>
      <point x="1824" y="836" type="curve" smooth="yes"/>
      <point x="1824" y="1324"/>
      <point x="1456" y="1696"/>
      <point x="1004" y="1696" type="curve" smooth="yes"/>
      <point x="552" y="1696"/>
      <point x="188" y="1324"/>
    </contour>
    <contour>
      <point x="1864" y="1556" type="line"/>
      <point x="1700" y="1724" type="line"/>
      <point x="1424" y="1440" type="line"/>
      <point x="1584" y="1272" type="line"/>
    </contour>
    <contour>
      <point x="596" y="264" type="line"/>
      <point x="432" y="428" type="line"/>
      <point x="156" y="148" type="line"/>
      <point x="316" y="-20" type="line"/>
    </contour>
    <contour>
      <point x="1700" y="-20" type="line"/>
      <point x="1864" y="148" type="line"/>
      <point x="1584" y="428" type="line"/>
      <point x="1424" y="264" type="line"/>
    </contour>
    <contour>
      <point x="432" y="1272" type="line"/>
      <point x="596" y="1440" type="line"/>
      <point x="316" y="1724" type="line"/>
      <point x="156" y="1556" type="line"/>
    </contour>
  </outline>
</glyph>
<glyph name="yen" format="1">
  <advance width="1552"/>
  <unicode hex="00A5"/>
  <outline>
    <contour>
      <point x="1348" y="1020" type="line"/>
      <point x="204" y="1020" type="line"/>
      <point x="204" y="840" type="line"/>
      <point x="1348" y="840" type="line"/>
    </contour>
    <contour>
      <point x="1348" y="624" type="line"/>
      <point x="204" y="624" type="line"/>
      <point x="204" y="444" type="line"/>
      <point x="1348" y="444" type="line"/>
    </contour>
    <contour>
      <point x="708" y="908" type="line"/>
      <point x="736" y="828" type="line"/>
      <point x="900" y="828" type="line"/>
      <point x="1508" y="2048" type="line"/>
      <point x="1232" y="2048" type="line"/>
    </contour>
    <contour>
      <point x="320" y="2048" type="line"/>
      <point x="44" y="2048" type="line"/>
      <point x="652" y="828" type="line"/>
      <point x="816" y="828" type="line"/>
      <point x="844" y="908" type="line"/>
    </contour>
    <contour>
      <point x="900" y="1076" type="line"/>
      <point x="652" y="1076" type="line"/>
      <point x="652" y="0" type="line"/>
      <point x="900" y="0" type="line"/>
    </contour>
  </outline>
</glyph>
<glyph name="brokenbar" format="1">
  <advance width="756"/>
  <unicode hex="00A6"/>
  <outline>
    <contour>
      <point x="268" y="552" type="line"/>
      <point x="268" y="-384" type="line"/>
      <point x="488" y="-384" type="line"/>
      <point x="488" y="552" type="line"/>
    </contour>
    <contour>
      <point x="488" y="2048" type="line"/>
      <point x="268" y="2048" type="line"/>
      <point x="268" y="1116" type="line"/>
      <point x="488" y="1116" type="line"/>
    </contour>
  </outline>
</glyph>
<glyph name="section" format="1">
  <advance width="1560"/>
  <unicode hex="00A7"/>
  <outline>
    <contour>
      <point x="1276" y="1564" type="line"/>
      <point x="1276" y="1864"/>
      <point x="1084" y="2076"/>
      <point x="776" y="2076" type="curve" smooth="yes"/>
      <point x="492" y="2076"/>
      <point x="288" y="1896"/>
      <point x="288" y="1648" type="curve"/>
      <point x="288" y="1520"/>
      <point x="344" y="1416"/>
      <point x="428" y="1332" type="curve"/>
      <point x="428" y="1324" type="line"/>
      <point x="264" y="1276"/>
      <point x="148" y="1104"/>
      <point x="148" y="960" type="curve" smooth="yes"/>
      <point x="148" y="708"/>
      <point x="336" y="576"/>
      <point x="440" y="516" type="curve" smooth="yes"/>
      <point x="828" y="292" type="line" smooth="yes"/>
      <point x="924" y="236"/>
      <point x="1044" y="168"/>
      <point x="1044" y="16" type="curve" smooth="yes"/>
      <point x="1044" y="-132"/>
      <point x="912" y="-204"/>
      <point x="764" y="-204" type="curve" smooth="yes"/>
      <point x="584" y="-204"/>
      <point x="452" y="-96"/>
      <point x="452" y="100" type="curve"/>
      <point x="220" y="100" type="line"/>
      <point x="220" y="-220"/>
      <point x="448" y="-416"/>
      <point x="764" y="-416" type="curve"/>
      <point x="1028" y="-416"/>
      <point x="1272" y="-280"/>
      <point x="1272" y="16" type="curve" smooth="yes"/>
      <point x="1272" y="144"/>
      <point x="1228" y="256"/>
      <point x="1132" y="340" type="curve"/>
      <point x="1132" y="344" type="line"/>
      <point x="1284" y="392"/>
      <point x="1412" y="556"/>
      <point x="1412" y="704" type="curve" smooth="yes"/>
      <point x="1412" y="956"/>
      <point x="1224" y="1084"/>
      <point x="1120" y="1144" type="curve" smooth="yes"/>
      <point x="732" y="1372" type="line" smooth="yes"/>
      <point x="636" y="1428"/>
      <point x="516" y="1524"/>
      <point x="516" y="1648" type="curve" smooth="yes"/>
      <point x="516" y="1748"/>
      <point x="596" y="1864"/>
      <point x="776" y="1864" type="curve" smooth="yes"/>
      <point x="964" y="1864"/>
      <point x="1048" y="1736"/>
      <point x="1048" y="1564" type="curve"/>
    </contour>
    <contour>
      <point x="1192" y="704" type="curve"/>
      <point x="1192" y="540"/>
      <point x="1016" y="432"/>
      <point x="932" y="480" type="curve" smooth="yes"/>
      <point x="560" y="696" type="line" smooth="yes"/>
      <point x="460" y="756"/>
      <point x="368" y="832"/>
      <point x="368" y="960" type="curve" smooth="yes"/>
      <point x="368" y="1128"/>
      <point x="524" y="1244"/>
      <point x="612" y="1192" type="curve" smooth="yes"/>
      <point x="1004" y="964" type="line" smooth="yes"/>
      <point x="1100" y="908"/>
      <point x="1192" y="820"/>
    </contour>
  </outline>
</glyph>
<glyph name="dieresis" format="2">
  <advance width="1664.0"/>
  <unicode hex="00A8"/>
  <outline>
    <contour>
      <point x="544.0" y="1824.0" type="curve" smooth="yes"/>
      <point x="636.0" y="1824.0"/>
      <point x="704.0" y="1900.0"/>
      <point x="704.0" y="1984.0" type="curve" smooth="yes"/>
      <point x="704.0" y="2076.0"/>
      <point x="636.0" y="2144.0"/>
      <point x="544.0" y="2144.0" type="curve" smooth="yes"/>
      <point x="460.0" y="2144.0"/>
      <point x="384.0" y="2076.0"/>
      <point x="384.0" y="1984.0" type="curve" smooth="yes"/>
      <point x="384.0" y="1900.0"/>
      <point x="460.0" y="1824.0"/>
    </contour>
    <contour>
      <point x="1120.0" y="1824.0" type="curve" smooth="yes"/>
      <point x="1212.0" y="1824.0"/>
      <point x="1280.0" y="1900.0"/>
      <point x="1280.0" y="1984.0" type="curve" smooth="yes"/>
      <point x="1280.0" y="2076.0"/>
      <point x="1212.0" y="2144.0"/>
      <point x="1120.0" y="2144.0" type="curve" smooth="yes"/>
      <point x="1036.0" y="2144.0"/>
      <point x="960.0" y="2076.0"/>
      <point x="960.0" y="1984.0" type="curve" smooth="yes"/>
      <point x="960.0" y="1900.0"/>
      <point x="1036.0" y="1824.0"/>
    </contour>
  </outline>
</glyph>
<glyph name="copyright" format="1">
  <advance width="2288"/>
  <unicode hex="00A9"/>
  <outline>
    <contour>
      <point x="1372" y="820" type="line"/>
      <point x="1372" y="640"/>
      <point x="1288" y="572"/>
      <point x="1128" y="572" type="curve" smooth="yes"/>
      <point x="952" y="572"/>
      <point x="860" y="716"/>
      <point x="860" y="920" type="curve" smooth="yes"/>
      <point x="860" y="1084" type="line" smooth="yes"/>
      <point x="860" y="1288"/>
      <point x="952" y="1432"/>
      <point x="1128" y="1432" type="curve" smooth="yes"/>
      <point x="1288" y="1432"/>
      <point x="1376" y="1360"/>
      <point x="1376" y="1184" type="curve"/>
      <point x="1588" y="1184" type="line"/>
      <point x="1588" y="1472"/>
      <point x="1408" y="1616"/>
      <point x="1128" y="1616" type="curve" smooth="yes"/>
      <point x="832" y="1616"/>
      <point x="648" y="1400"/>
      <point x="648" y="1084" type="curve"/>
      <point x="648" y="920" type="line"/>
      <point x="648" y="604"/>
      <point x="832" y="388"/>
      <point x="1128" y="388" type="curve" smooth="yes"/>
      <point x="1408" y="388"/>
      <point x="1588" y="532"/>
      <point x="1588" y="820" type="curve"/>
    </contour>
    <contour>
      <point x="336" y="1004" type="curve"/>
      <point x="336" y="1488"/>
      <point x="700" y="1860"/>
      <point x="1144" y="1860" type="curve" smooth="yes"/>
      <point x="1592" y="1860"/>
      <point x="1952" y="1488"/>
      <point x="1952" y="1004" type="curve" smooth="yes"/>
      <point x="1952" y="516"/>
      <point x="1592" y="144"/>
      <point x="1144" y="144" type="curve" smooth="yes"/>
      <point x="700" y="144"/>
      <point x="336" y="516"/>
    </contour>
    <contour>
      <point x="168" y="1004" type="curve"/>
      <point x="168" y="420"/>
      <point x="608" y="-28"/>
      <point x="1144" y="-28" type="curve" smooth="yes"/>
      <point x="1684" y="-28"/>
      <point x="2120" y="420"/>
      <point x="2120" y="1004" type="curve" smooth="yes"/>
      <point x="2120" y="1584"/>
      <point x="1684" y="2032"/>
      <point x="1144" y="2032" type="curve" smooth="yes"/>
      <point x="608" y="2032"/>
      <point x="168" y="1584"/>
    </contour>
  </outline>
</glyph>
<glyph name="ordfeminine" format="1">
  <advance width="1272"/>
  <unicode hex="00AA"/>
  <outline>
    <contour>
      <point x="804" y="1184" type="line"/>
      <point x="804" y="1112"/>
      <point x="816" y="1036"/>
      <point x="836" y="972" type="curve"/>
      <point x="1080" y="972" type="line"/>
      <point x="1052" y="1052"/>
      <point x="1044" y="1132"/>
      <point x="1044" y="1220" type="curve" smooth="yes"/>
      <point x="1044" y="1652" type="line"/>
      <point x="1044" y="1904"/>
      <point x="884" y="2032"/>
      <point x="644" y="2032" type="curve" smooth="yes"/>
      <point x="384" y="2032"/>
      <point x="216" y="1896"/>
      <point x="216" y="1712" type="curve"/>
      <point x="452" y="1692" type="line"/>
      <point x="452" y="1780"/>
      <point x="524" y="1828"/>
      <point x="644" y="1828" type="curve" smooth="yes"/>
      <point x="752" y="1828"/>
      <point x="804" y="1768"/>
      <point x="804" y="1652" type="curve"/>
    </contour>
    <contour>
      <point x="864" y="1584" type="line"/>
      <point x="664" y="1584" type="line"/>
      <point x="348" y="1584"/>
      <point x="192" y="1468"/>
      <point x="192" y="1264" type="curve" smooth="yes"/>
      <point x="192" y="1076"/>
      <point x="316" y="952"/>
      <point x="536" y="952" type="curve" smooth="yes"/>
      <point x="724" y="952"/>
      <point x="828" y="1060"/>
      <point x="868" y="1148" type="curve"/>
      <point x="844" y="1308" type="line"/>
      <point x="844" y="1240"/>
      <point x="708" y="1152"/>
      <point x="596" y="1152" type="curve" smooth="yes"/>
      <point x="484" y="1152"/>
      <point x="436" y="1196"/>
      <point x="436" y="1272" type="curve" smooth="yes"/>
      <point x="436" y="1352"/>
      <point x="504" y="1424"/>
      <point x="664" y="1424" type="curve"/>
      <point x="864" y="1424" type="line"/>
    </contour>
  </outline>
</glyph>
<glyph name="registered" format="1">
  <advance width="2288"/>
  <unicode hex="00AE"/>
  <outline>
    <contour>
      <point x="1180" y="900" type="line"/>
      <point x="1232" y="900"/>
      <point x="1208" y="900"/>
      <point x="1256" y="928" type="curve" smooth="yes"/>
      <point x="1260" y="928"/>
      <point x="1268" y="948"/>
      <point x="1272" y="948" type="curve" smooth="yes"/>
      <point x="1468" y="1000"/>
      <point x="1572" y="1100"/>
      <point x="1572" y="1252" type="curve"/>
      <point x="1572" y="1488"/>
      <point x="1400" y="1604"/>
      <point x="1128" y="1604" type="curve"/>
      <point x="740" y="1604" type="line"/>
      <point x="740" y="436" type="line"/>
      <point x="948" y="436" type="line"/>
      <point x="948" y="1420" type="line"/>
      <point x="1128" y="1420" type="line"/>
      <point x="1304" y="1420"/>
      <point x="1368" y="1376"/>
      <point x="1368" y="1244" type="curve"/>
      <point x="1368" y="1140"/>
      <point x="1268" y="1084"/>
      <point x="1156" y="1084" type="curve"/>
      <point x="880" y="1084" type="line"/>
      <point x="884" y="900" type="line"/>
    </contour>
    <contour>
      <point x="1164" y="900" type="line"/>
      <point x="1308" y="900"/>
      <point x="1360" y="836"/>
      <point x="1360" y="708" type="curve"/>
      <point x="1360" y="632" type="line"/>
      <point x="1360" y="592"/>
      <point x="1360" y="480"/>
      <point x="1380" y="436" type="curve"/>
      <point x="1592" y="436" type="line"/>
      <point x="1592" y="456" type="line"/>
      <point x="1576" y="500"/>
      <point x="1568" y="564"/>
      <point x="1568" y="632" type="curve"/>
      <point x="1568" y="708" type="line"/>
      <point x="1568" y="892"/>
      <point x="1480" y="1028"/>
      <point x="1192" y="1028" type="curve"/>
    </contour>
    <contour>
      <point x="336" y="1004" type="curve" smooth="yes"/>
      <point x="336" y="1488"/>
      <point x="700" y="1860"/>
      <point x="1144" y="1860" type="curve" smooth="yes"/>
      <point x="1592" y="1860"/>
      <point x="1952" y="1488"/>
      <point x="1952" y="1004" type="curve" smooth="yes"/>
      <point x="1952" y="516"/>
      <point x="1592" y="144"/>
      <point x="1144" y="144" type="curve" smooth="yes"/>
      <point x="700" y="144"/>
      <point x="336" y="516"/>
    </contour>
    <contour>
      <point x="168" y="1004" type="curve" smooth="yes"/>
      <point x="168" y="420"/>
      <point x="608" y="-28"/>
      <point x="1144" y="-28" type="curve" smooth="yes"/>
      <point x="1684" y="-28"/>
      <point x="2120" y="420"/>
      <point x="2120" y="1004" type="curve" smooth="yes"/>
      <point x="2120" y="1584"/>
      <point x="1684" y="2032"/>
      <point x="1144" y="2032" type="curve" smooth="yes"/>
      <point x="608" y="2032"/>
      <point x="168" y="1584"/>
    </contour>
  </outline>
</glyph>
<glyph name="macron" format="2">
  <advance width="1264.0"/>
  <unicode hex="00AF"/>
  <outline>
    <contour>
      <point x="1100.0" y="2048.0" type="line"/>
      <point x="164.0" y="2048.0" type="line"/>
      <point x="164.0" y="1848.0" type="line"/>
      <point x="1100.0" y="1848.0" type="line"/>
    </contour>
  </outline>
</glyph>
<glyph name="degree" format="1">
  <advance width="1272"/>
  <unicode hex="00B0"/>
  <outline>
    <contour>
      <point x="636" y="1076" type="curve" smooth="yes"/>
      <point x="892" y="1076"/>
      <point x="1096" y="1284"/>
      <point x="1096" y="1536" type="curve" smooth="yes"/>
      <point x="1096" y="1792"/>
      <point x="892" y="1996"/>
      <point x="636" y="1996" type="curve" smooth="yes"/>
      <point x="384" y="1996"/>
      <point x="176" y="1792"/>
      <point x="176" y="1536" type="curve" smooth="yes"/>
      <point x="176" y="1284"/>
      <point x="384" y="1076"/>
    </contour>
    <contour>
      <point x="636" y="1276" type="curve" smooth="yes"/>
      <point x="492" y="1276"/>
      <point x="372" y="1396"/>
      <point x="372" y="1540" type="curve" smooth="yes"/>
      <point x="372" y="1684"/>
      <point x="492" y="1804"/>
      <point x="636" y="1804" type="curve" smooth="yes"/>
      <point x="780" y="1804"/>
      <point x="900" y="1684"/>
      <point x="900" y="1540" type="curve" smooth="yes"/>
      <point x="900" y="1396"/>
      <point x="780" y="1276"/>
    </contour>
  </outline>
</glyph>
<glyph name="plusminus" format="2">
  <advance width="1808.0"/>
  <unicode hex="00B1"/>
  <guideline x="268.0" y="800.0" angle="0.0"/>
  <outline>
    <contour>
      <point x="260.0" y="96.0" type="line"/>
      <point x="1548.0" y="96.0" type="line"/>
      <point x="1548.0" y="320.0" type="line"/>
      <point x="260.0" y="320.0" type="line"/>
    </contour>
    <contour>
      <point x="260.0" y="904.0" type="line"/>
      <point x="1548.0" y="904.0" type="line"/>
      <point x="1548.0" y="1128.0" type="line"/>
      <point x="260.0" y="1128.0" type="line"/>
    </contour>
    <contour>
      <point x="792.0" y="496.0" type="line"/>
      <point x="1016.0" y="496.0" type="line"/>
      <point x="1016.0" y="1536.0" type="line"/>
      <point x="792.0" y="1536.0" type="line"/>
    </contour>
  </outline>
</glyph>
<glyph name="two.sups" format="2">
  <advance width="1184.0"/>
  <unicode hex="00B2"/>
  <outline>
    <contour>
      <point x="140.0" y="1024.0" type="line"/>
      <point x="1064.0" y="1024.0" type="line"/>
      <point x="1064.0" y="1200.0" type="line"/>
      <point x="452.0" y="1200.0" type="line"/>
      <point x="452.0" y="1208.0" type="line"/>
      <point x="712.0" y="1436.0" type="line" smooth="yes"/>
      <point x="932.0" y="1628.0"/>
      <point x="1028.0" y="1740.0"/>
      <point x="1028.0" y="1904.0" type="curve" smooth="yes"/>
      <point x="1028.0" y="2112.0"/>
      <point x="848.0" y="2268.0"/>
      <point x="584.0" y="2268.0" type="curve" smooth="yes"/>
      <point x="320.0" y="2268.0"/>
      <point x="132.0" y="2116.0"/>
      <point x="132.0" y="1888.0" type="curve"/>
      <point x="340.0" y="1888.0" type="line"/>
      <point x="340.0" y="2012.0"/>
      <point x="436.0" y="2096.0"/>
      <point x="580.0" y="2096.0" type="curve" smooth="yes"/>
      <point x="716.0" y="2096.0"/>
      <point x="820.0" y="2020.0"/>
      <point x="820.0" y="1900.0" type="curve" smooth="yes"/>
      <point x="820.0" y="1796.0"/>
      <point x="748.0" y="1720.0"/>
      <point x="608.0" y="1596.0" type="curve" smooth="yes"/>
      <point x="140.0" y="1180.0" type="line"/>
    </contour>
  </outline>
</glyph>
<glyph name="three.sups" format="2">
  <advance width="1212.0"/>
  <unicode hex="00B3"/>
  <outline>
    <contour>
      <point x="604.0" y="1008.0" type="curve" smooth="yes"/>
      <point x="892.0" y="1008.0"/>
      <point x="1096.0" y="1160.0"/>
      <point x="1096.0" y="1364.0" type="curve" smooth="yes"/>
      <point x="1096.0" y="1512.0"/>
      <point x="988.0" y="1628.0"/>
      <point x="792.0" y="1656.0" type="curve"/>
      <point x="792.0" y="1664.0" type="line"/>
      <point x="936.0" y="1688.0"/>
      <point x="1048.0" y="1784.0"/>
      <point x="1048.0" y="1928.0" type="curve" smooth="yes"/>
      <point x="1048.0" y="2124.0"/>
      <point x="868.0" y="2268.0"/>
      <point x="608.0" y="2268.0" type="curve" smooth="yes"/>
      <point x="352.0" y="2268.0"/>
      <point x="152.0" y="2124.0"/>
      <point x="148.0" y="1912.0" type="curve"/>
      <point x="356.0" y="1912.0" type="line"/>
      <point x="360.0" y="2024.0"/>
      <point x="472.0" y="2096.0"/>
      <point x="608.0" y="2096.0" type="curve" smooth="yes"/>
      <point x="744.0" y="2096.0"/>
      <point x="836.0" y="2020.0"/>
      <point x="836.0" y="1916.0" type="curve" smooth="yes"/>
      <point x="836.0" y="1804.0"/>
      <point x="724.0" y="1732.0"/>
      <point x="576.0" y="1732.0" type="curve" smooth="yes"/>
      <point x="476.0" y="1732.0" type="line"/>
      <point x="476.0" y="1572.0" type="line"/>
      <point x="576.0" y="1572.0" type="line" smooth="yes"/>
      <point x="756.0" y="1572.0"/>
      <point x="872.0" y="1492.0"/>
      <point x="872.0" y="1380.0" type="curve" smooth="yes"/>
      <point x="872.0" y="1268.0"/>
      <point x="760.0" y="1188.0"/>
      <point x="604.0" y="1188.0" type="curve" smooth="yes"/>
      <point x="456.0" y="1188.0"/>
      <point x="344.0" y="1260.0"/>
      <point x="340.0" y="1368.0" type="curve"/>
      <point x="120.0" y="1368.0" type="line"/>
      <point x="124.0" y="1156.0"/>
      <point x="328.0" y="1008.0"/>
    </contour>
  </outline>
</glyph>
<glyph name="acute" format="2">
  <advance width="1300.0"/>
  <unicode hex="00B4"/>
  <outline>
    <contour>
      <point x="392.0" y="1760.0" type="line"/>
      <point x="600.0" y="1760.0" type="line"/>
      <point x="908.0" y="2216.0" type="line"/>
      <point x="632.0" y="2216.0" type="line"/>
    </contour>
  </outline>
</glyph>
<glyph name="micro" format="2">
  <advance width="1752.0"/>
  <unicode hex="00B5"/>
  <guideline x="1416.0" y="692.0" angle="0.0"/>
  <guideline x="1416.0" y="304.0" angle="0.0"/>
  <guideline x="1320.0" y="400.0" angle="0.0"/>
  <guideline x="872.0" y="-184.0" angle="90.0"/>
  <outline>
    <contour>
      <point x="216.0" y="-576.0" type="line"/>
      <point x="452.0" y="-576.0" type="line"/>
      <point x="452.0" y="228.0" type="line"/>
      <point x="464.0" y="228.0" type="line"/>
      <point x="548.0" y="66.0"/>
      <point x="705.0" y="-20.0"/>
      <point x="876.0" y="-20.0" type="curve" smooth="yes"/>
      <point x="1047.0" y="-20.0"/>
      <point x="1205.0" y="66.0"/>
      <point x="1288.0" y="228.0" type="curve"/>
      <point x="1300.0" y="228.0" type="line"/>
      <point x="1300.0" y="0.0" type="line"/>
      <point x="1536.0" y="0.0" type="line"/>
      <point x="1536.0" y="1536.0" type="line"/>
      <point x="1300.0" y="1536.0" type="line"/>
      <point x="1300.0" y="628.0" type="line" smooth="yes"/>
      <point x="1300.0" y="380.0"/>
      <point x="1132.0" y="208.0"/>
      <point x="876.0" y="208.0" type="curve" smooth="yes"/>
      <point x="620.0" y="208.0"/>
      <point x="452.0" y="378.0"/>
      <point x="452.0" y="628.0" type="curve" smooth="yes"/>
      <point x="452.0" y="1536.0" type="line"/>
      <point x="216.0" y="1536.0" type="line"/>
    </contour>
  </outline>
</glyph>
<glyph name="mu" format="2">
  <advance width="1636.0"/>
  <unicode hex="00B5"/>
  <guideline x="1300.0" y="692.0" angle="0.0"/>
  <guideline x="1300.0" y="304.0" angle="0.0"/>
  <guideline x="1204.0" y="400.0" angle="0.0"/>
  <outline>
    <contour>
      <point x="1196.0" y="1536.0" type="line"/>
      <point x="1196.0" y="344.0" type="line"/>
      <point x="1224.0" y="0.0" type="line"/>
      <point x="1420.0" y="0.0" type="line"/>
      <point x="1420.0" y="1536.0" type="line"/>
    </contour>
    <contour>
      <point x="1196.0" y="692.0" type="line"/>
      <point x="1196.0" y="360.0"/>
      <point x="1012.0" y="212.0"/>
      <point x="824.0" y="212.0" type="curve" smooth="yes"/>
      <point x="636.0" y="212.0"/>
      <point x="452.0" y="360.0"/>
      <point x="452.0" y="692.0" type="curve"/>
      <point x="340.0" y="692.0" type="line"/>
      <point x="340.0" y="240.0"/>
      <point x="544.0" y="-28.0"/>
      <point x="828.0" y="-28.0" type="curve" smooth="yes"/>
      <point x="1112.0" y="-28.0"/>
      <point x="1308.0" y="240.0"/>
      <point x="1308.0" y="692.0" type="curve"/>
    </contour>
    <contour>
      <point x="216.0" y="1536.0" type="line"/>
      <point x="216.0" y="-572.0" type="line"/>
      <point x="452.0" y="-572.0" type="line"/>
      <point x="452.0" y="1536.0" type="line"/>
    </contour>
  </outline>
</glyph>
<glyph name="paragraph" format="1">
  <advance width="1248"/>
  <unicode hex="00B6"/>
  <outline>
    <contour>
      <point x="1160" y="0" type="line"/>
      <point x="1160" y="2004" type="line"/>
      <point x="768" y="2004" type="line" smooth="yes"/>
      <point x="332" y="2004"/>
      <point x="92" y="1728"/>
      <point x="92" y="1360" type="curve" smooth="yes"/>
      <point x="92" y="988"/>
      <point x="332" y="716"/>
      <point x="768" y="716" type="curve" smooth="yes"/>
      <point x="884" y="716" type="line"/>
      <point x="884" y="0" type="line"/>
    </contour>
  </outline>
</glyph>
<glyph name="cedilla" format="1">
  <advance width="760"/>
  <unicode hex="00B8"/>
  <outline>
    <contour>
      <point x="288" y="0" type="line"/>
      <point x="244" y="-188" type="line"/>
      <point x="396" y="-200"/>
      <point x="460" y="-224"/>
      <point x="460" y="-316" type="curve" smooth="yes"/>
      <point x="460" y="-408"/>
      <point x="368" y="-444"/>
      <point x="244" y="-444" type="curve"/>
      <point x="252" y="-600" type="line"/>
      <point x="528" y="-600"/>
      <point x="672" y="-480"/>
      <point x="672" y="-308" type="curve" smooth="yes"/>
      <point x="672" y="-152"/>
      <point x="568" y="-88"/>
      <point x="464" y="-72" type="curve"/>
      <point x="480" y="0" type="line"/>
    </contour>
    <contour>
      <point x="380" y="0" type="move" name="_bottom"/>
    </contour>
    <contour>
      <point x="300" y="-604" type="move" name="mkmkbottom_acc"/>
    </contour>
  </outline>
</glyph>
<glyph name="one.sups" format="2">
  <advance width="848.0"/>
  <unicode hex="00B9"/>
  <outline>
    <contour>
      <point x="604.0" y="2252.0" type="line"/>
      <point x="420.0" y="2252.0" type="line"/>
      <point x="408.0" y="2204.0"/>
      <point x="308.0" y="2060.0"/>
      <point x="112.0" y="2060.0" type="curve"/>
      <point x="112.0" y="1888.0" type="line"/>
      <point x="268.0" y="1888.0"/>
      <point x="372.0" y="1944.0"/>
      <point x="396.0" y="1980.0" type="curve"/>
      <point x="408.0" y="1980.0" type="line"/>
      <point x="408.0" y="1024.0" type="line"/>
      <point x="604.0" y="1024.0" type="line"/>
    </contour>
  </outline>
</glyph>
<glyph name="ordmasculine" format="1">
  <advance width="1264"/>
  <unicode hex="00BA"/>
  <outline>
    <contour>
      <point x="156" y="1436" type="line"/>
      <point x="156" y="1152"/>
      <point x="340" y="952"/>
      <point x="636" y="952" type="curve" smooth="yes"/>
      <point x="928" y="952"/>
      <point x="1108" y="1152"/>
      <point x="1108" y="1436" type="curve"/>
      <point x="1108" y="1544" type="line"/>
      <point x="1108" y="1828"/>
      <point x="928" y="2032"/>
      <point x="632" y="2032" type="curve" smooth="yes"/>
      <point x="340" y="2032"/>
      <point x="156" y="1828"/>
      <point x="156" y="1544" type="curve"/>
    </contour>
    <contour>
      <point x="396" y="1544" type="line"/>
      <point x="396" y="1704"/>
      <point x="476" y="1828"/>
      <point x="632" y="1828" type="curve" smooth="yes"/>
      <point x="792" y="1828"/>
      <point x="868" y="1704"/>
      <point x="868" y="1544" type="curve"/>
      <point x="868" y="1436" type="line"/>
      <point x="868" y="1272"/>
      <point x="792" y="1152"/>
      <point x="636" y="1152" type="curve" smooth="yes"/>
      <point x="476" y="1152"/>
      <point x="396" y="1272"/>
      <point x="396" y="1436" type="curve"/>
    </contour>
  </outline>
</glyph>
<glyph name="AE" format="1">
  <advance width="2856"/>
  <unicode hex="00C6"/>
  <outline>
    <contour>
      <point x="1428" y="1860" type="line"/>
      <point x="1452" y="2048" type="line"/>
      <point x="1276" y="2048" type="line"/>
      <point x="64" y="0" type="line"/>
      <point x="360" y="0" type="line"/>
    </contour>
    <contour>
      <point x="1644" y="768" type="line"/>
      <point x="608" y="768" type="line"/>
      <point x="608" y="552" type="line"/>
      <point x="1644" y="552" type="line"/>
    </contour>
    <contour>
      <point x="2696" y="220" type="line"/>
      <point x="1688" y="220" type="line"/>
      <point x="1688" y="0" type="line"/>
      <point x="2696" y="0" type="line"/>
    </contour>
    <contour>
      <point x="1652" y="2048" type="line"/>
      <point x="1408" y="2048" type="line"/>
      <point x="1492" y="0" type="line"/>
      <point x="1736" y="0" type="line"/>
    </contour>
    <contour>
      <point x="2500" y="1152" type="line"/>
      <point x="1632" y="1152" type="line"/>
      <point x="1632" y="932" type="line"/>
      <point x="2500" y="932" type="line"/>
    </contour>
    <contour>
      <point x="2612" y="2048" type="line"/>
      <point x="1604" y="2048" type="line"/>
      <point x="1604" y="1828" type="line"/>
      <point x="2612" y="1828" type="line"/>
    </contour>
    <contour>
      <point x="1480" y="2304" type="move" name="top"/>
    </contour>
    <contour>
      <point x="2740" y="2200" type="move" name="top_dd"/>
    </contour>
    <contour>
      <point x="2740" y="2216" type="move" name="top0315"/>
    </contour>
  </outline>
</glyph>
<glyph name="AE" format="2">
  <advance width="2888.0"/>
  <unicode hex="00C6"/>
  <outline>
    <contour>
      <point x="72.0" y="0.0" type="line"/>
      <point x="368.0" y="0.0" type="line"/>
      <point x="684.0" y="552.0" type="line"/>
      <point x="1476.0" y="552.0" type="line"/>
      <point x="1500.0" y="0.0" type="line"/>
      <point x="2704.0" y="0.0" type="line"/>
      <point x="2704.0" y="220.0" type="line"/>
      <point x="1736.0" y="220.0" type="line"/>
      <point x="1704.0" y="932.0" type="line"/>
      <point x="2508.0" y="932.0" type="line"/>
      <point x="2508.0" y="1152.0" type="line"/>
      <point x="1696.0" y="1152.0" type="line"/>
      <point x="1668.0" y="1828.0" type="line"/>
      <point x="2620.0" y="1828.0" type="line"/>
      <point x="2620.0" y="2048.0" type="line"/>
      <point x="1284.0" y="2048.0" type="line"/>
    </contour>
    <contour>
      <point x="808.0" y="768.0" type="line"/>
      <point x="1424.0" y="1840.0" type="line"/>
      <point x="1468.0" y="768.0" type="line"/>
    </contour>
  </outline>
</glyph>
<glyph name="multiply" format="1">
  <advance width="1792"/>
  <unicode hex="00D7"/>
  <outline>
    <contour>
      <point x="444" y="280" type="line"/>
      <point x="1516" y="1372" type="line"/>
      <point x="1364" y="1528" type="line"/>
      <point x="292" y="436" type="line"/>
    </contour>
    <contour>
      <point x="1348" y="280" type="line"/>
      <point x="1500" y="436" type="line"/>
      <point x="428" y="1528" type="line"/>
      <point x="276" y="1372" type="line"/>
    </contour>
  </outline>
</glyph>
<glyph name="Oslash" format="2">
  <advance width="2144.0"/>
  <unicode hex="00D8"/>
  <guideline x="396.0" y="-96.0" angle="145.6539"/>
  <guideline x="1016.0" y="1852.0" angle="90.0"/>
  <guideline x="1016.0" y="1024.0" angle="56.0077"/>
  <anchor x="1068.0" y="2304.0" name="top"/>
  <anchor x="2020.0" y="2304.0" name="top0315"/>
  <anchor x="2020.0" y="2200.0" name="top_dd"/>
  <outline>
    <contour>
      <point x="432.0" y="-84.0" type="line"/>
      <point x="1856.0" y="2024.0" type="line"/>
      <point x="1704.0" y="2128.0" type="line"/>
      <point x="280.0" y="20.0" type="line"/>
    </contour>
    <contour>
      <point x="1976.0" y="1024.0" type="curve"/>
      <point x="1976.0" y="1672.0"/>
      <point x="1596.0" y="2076.0"/>
      <point x="1072.0" y="2076.0" type="curve" smooth="yes"/>
      <point x="548.0" y="2076.0"/>
      <point x="168.0" y="1672.0"/>
      <point x="168.0" y="1024.0" type="curve"/>
      <point x="168.0" y="376.0"/>
      <point x="548.0" y="-28.0"/>
      <point x="1072.0" y="-28.0" type="curve" smooth="yes"/>
      <point x="1596.0" y="-28.0"/>
      <point x="1976.0" y="376.0"/>
    </contour>
    <contour>
      <point x="1736.0" y="1024.0" type="curve"/>
      <point x="1736.0" y="492.0"/>
      <point x="1444.0" y="204.0"/>
      <point x="1072.0" y="204.0" type="curve" smooth="yes"/>
      <point x="700.0" y="204.0"/>
      <point x="408.0" y="492.0"/>
      <point x="408.0" y="1024.0" type="curve"/>
      <point x="408.0" y="1556.0"/>
      <point x="700.0" y="1844.0"/>
      <point x="1072.0" y="1844.0" type="curve" smooth="yes"/>
      <point x="1444.0" y="1844.0"/>
      <point x="1736.0" y="1556.0"/>
    </contour>
  </outline>
</glyph>
<glyph name="Oslash" format="1">
  <advance width="2032"/>
  <unicode hex="00D8"/>
  <outline>
    <contour>
      <point x="376" y="-84" type="line"/>
      <point x="1800" y="2024" type="line"/>
      <point x="1648" y="2128" type="line"/>
      <point x="224" y="20" type="line"/>
    </contour>
    <component base="O"/>
    <contour>
      <point x="1012.0" y="2304.0" type="move" name="top"/>
    </contour>
    <contour>
      <point x="1964.0" y="2200.0" type="move" name="top_dd"/>
    </contour>
    <contour>
      <point x="1964.0" y="2304.0" type="move" name="top0315"/>
    </contour>
  </outline>
</glyph>
<glyph name="Thorn" format="2">
  <advance width="1776.0"/>
  <unicode hex="00DE"/>
  <outline>
    <contour>
      <point x="232.0" y="2048.0" type="line"/>
      <point x="232.0" y="0.0" type="line"/>
      <point x="480.0" y="0.0" type="line"/>
      <point x="480.0" y="2048.0" type="line"/>
    </contour>
    <contour>
      <point x="348.0" y="1624.0" type="line"/>
      <point x="348.0" y="1404.0" type="line"/>
      <point x="876.0" y="1404.0" type="line" smooth="yes"/>
      <point x="1160.0" y="1404.0"/>
      <point x="1316.0" y="1264.0"/>
      <point x="1316.0" y="1032.0" type="curve" smooth="yes"/>
      <point x="1316.0" y="800.0"/>
      <point x="1160.0" y="668.0"/>
      <point x="876.0" y="668.0" type="curve" smooth="yes"/>
      <point x="348.0" y="668.0" type="line"/>
      <point x="348.0" y="448.0" type="line"/>
      <point x="876.0" y="448.0" type="line" smooth="yes"/>
      <point x="1312.0" y="448.0"/>
      <point x="1552.0" y="712.0"/>
      <point x="1552.0" y="1036.0" type="curve" smooth="yes"/>
      <point x="1552.0" y="1360.0"/>
      <point x="1312.0" y="1624.0"/>
      <point x="876.0" y="1624.0" type="curve" smooth="yes"/>
    </contour>
  </outline>
</glyph>
<glyph name="Thorn" format="1">
  <advance width="1776"/>
  <unicode hex="00DE"/>
  <outline>
    <contour>
      <point x="232" y="2048" type="line"/>
      <point x="232" y="0" type="line"/>
      <point x="480" y="0" type="line"/>
      <point x="480" y="2048" type="line"/>
    </contour>
    <contour>
      <point x="348" y="1624" type="line"/>
      <point x="348" y="1404" type="line"/>
      <point x="876" y="1404" type="line" smooth="yes"/>
      <point x="1160" y="1404"/>
      <point x="1316" y="1264"/>
      <point x="1316" y="1032" type="curve" smooth="yes"/>
      <point x="1316" y="800"/>
      <point x="1160" y="668"/>
      <point x="876" y="668" type="curve" smooth="yes"/>
      <point x="348" y="668" type="line"/>
      <point x="348" y="448" type="line"/>
      <point x="876" y="448" type="line" smooth="yes"/>
      <point x="1312" y="448"/>
      <point x="1552" y="712"/>
      <point x="1552" y="1036" type="curve" smooth="yes"/>
      <point x="1552" y="1360"/>
      <point x="1312" y="1624"/>
      <point x="876" y="1624" type="curve" smooth="yes"/>
    </contour>
  </outline>
</glyph>
<glyph name="germandbls" format="1">
  <advance width="1672"/>
  <unicode hex="00DF"/>
  <outline>
    <contour>
      <point x="456" y="1524" type="line" name="hr00"/>
      <point x="456" y="1796"/>
      <point x="544" y="1924"/>
      <point x="736" y="1924" type="curve" smooth="yes"/>
      <point x="884" y="1924"/>
      <point x="1028" y="1848"/>
      <point x="1028" y="1668" type="curve" smooth="yes"/>
      <point x="1028" y="1456"/>
      <point x="828" y="1356"/>
      <point x="828" y="1128" type="curve" smooth="yes"/>
      <point x="828" y="772"/>
      <point x="1316" y="728"/>
      <point x="1316" y="432" type="curve" smooth="yes"/>
      <point x="1316" y="308"/>
      <point x="1224" y="180"/>
      <point x="988" y="180" type="curve" smooth="yes"/>
      <point x="864" y="180"/>
      <point x="744" y="244"/>
      <point x="684" y="280" type="curve"/>
      <point x="588" y="84" type="line"/>
      <point x="668" y="28"/>
      <point x="828" y="-28"/>
      <point x="1016" y="-28" type="curve" smooth="yes"/>
      <point x="1332" y="-28"/>
      <point x="1548" y="120"/>
      <point x="1548" y="440" type="curve" smooth="yes"/>
      <point x="1548" y="856"/>
      <point x="1068" y="852"/>
      <point x="1068" y="1128" type="curve" smooth="yes"/>
      <point x="1068" y="1300"/>
      <point x="1252" y="1388"/>
      <point x="1252" y="1668" type="curve" smooth="yes"/>
      <point x="1252" y="2016"/>
      <point x="976" y="2140"/>
      <point x="736" y="2140" type="curve" smooth="yes"/>
      <point x="428" y="2140"/>
      <point x="220" y="1932"/>
      <point x="220" y="1524" type="curve" smooth="yes"/>
      <point x="220" y="0" type="line"/>
      <point x="456" y="0" type="line"/>
    </contour>
  </outline>
</glyph>
<glyph name="ae" format="1">
  <advance width="2648"/>
  <unicode hex="00E6"/>
  <outline>
    <contour>
      <point x="1128" y="696" type="line"/>
      <point x="1128" y="556" type="line" smooth="yes"/>
      <point x="1128" y="364"/>
      <point x="972" y="176"/>
      <point x="664" y="176" type="curve" smooth="yes"/>
      <point x="508" y="176"/>
      <point x="372" y="268"/>
      <point x="372" y="424" type="curve" smooth="yes"/>
      <point x="372" y="728"/>
      <point x="924" y="696"/>
      <point x="1080" y="696" type="curve" smooth="yes"/>
    </contour>
    <contour>
      <point x="180" y="1196" type="curve"/>
      <point x="404" y="1116" type="line"/>
      <point x="456" y="1228"/>
      <point x="572" y="1348"/>
      <point x="796" y="1348" type="curve" smooth="yes"/>
      <point x="992" y="1348"/>
      <point x="1128" y="1256"/>
      <point x="1128" y="1012" type="curve" smooth="yes"/>
      <point x="1128" y="904" type="line"/>
      <point x="1056" y="904" type="line" smooth="yes"/>
      <point x="796" y="904"/>
      <point x="136" y="912"/>
      <point x="136" y="424" type="curve" smooth="yes"/>
      <point x="136" y="136"/>
      <point x="368" y="-36"/>
      <point x="660" y="-36" type="curve" smooth="yes"/>
      <point x="916" y="-36"/>
      <point x="1364" y="96"/>
      <point x="1364" y="560" type="curve"/>
      <point x="1364" y="640" type="line"/>
      <point x="1364" y="1012" type="line" smooth="yes"/>
      <point x="1364" y="1500"/>
      <point x="992" y="1556"/>
      <point x="796" y="1556" type="curve" smooth="yes"/>
      <point x="564" y="1556"/>
      <point x="300" y="1476"/>
    </contour>
    <contour>
      <point x="1844" y="-32" type="curve"/>
      <point x="2156" y="-32"/>
      <point x="2384" y="124"/>
      <point x="2456" y="356" type="curve"/>
      <point x="2228" y="420" type="line"/>
      <point x="2168" y="260"/>
      <point x="2036" y="180"/>
      <point x="1844" y="180" type="curve" smooth="yes"/>
      <point x="1544" y="180"/>
      <point x="1364" y="376"/>
      <point x="1364" y="768" type="curve"/>
      <point x="1364" y="1132"/>
      <point x="1516" y="1344"/>
      <point x="1804" y="1344" type="curve"/>
      <point x="2076" y="1344"/>
      <point x="2240" y="1152"/>
      <point x="2240" y="892" type="curve"/>
      <point x="1296" y="900" type="line"/>
      <point x="1296" y="696" type="line"/>
      <point x="2480" y="688" type="line"/>
      <point x="2480" y="788" type="line" smooth="yes"/>
      <point x="2480" y="1360"/>
      <point x="2132" y="1556"/>
      <point x="1804" y="1556" type="curve" smooth="yes"/>
      <point x="1372" y="1556"/>
      <point x="1128" y="1220"/>
      <point x="1128" y="764" type="curve"/>
      <point x="1128" y="280"/>
      <point x="1404" y="-32"/>
    </contour>
    <contour>
      <point x="1276" y="1792" type="move" name="top"/>
    </contour>
    <contour>
      <point x="2456" y="2200" type="move" name="top_dd"/>
    </contour>
    <contour>
      <point x="2456" y="1776" type="move" name="top0315"/>
    </contour>
  </outline>
</glyph>
<glyph name="idieresis" format="1">
  <advance width="1296"/>
  <unicode hex="00EF"/>
  <outline>
    <component base="dotlessi" xOffset="308"/>
    <component base="dieresis" xOffset="-180"/>
    <contour>
      <point x="732" y="900" type="move" name="rhotichook"/>
    </contour>
    <contour>
      <point x="692" y="1776" type="move" name="top"/>
    </contour>
    <contour>
      <point x="1052" y="1776" type="move" name="top0315"/>
    </contour>
    <contour>
      <point x="692" y="2668" type="move" name="mkmktop_acc"/>
    </contour>
    <contour>
      <point x="648" y="0" type="move" name="bottom"/>
    </contour>
  </outline>
</glyph>
<glyph name="eth" format="1">
  <advance width="1556"/>
  <unicode hex="00F0"/>
  <outline>
    <contour>
      <point x="316" y="1960" type="line"/>
      <point x="788" y="1840"/>
      <point x="1188" y="1516"/>
      <point x="1188" y="876" type="curve" smooth="yes"/>
      <point x="1188" y="736" type="line" smooth="yes"/>
      <point x="1188" y="428"/>
      <point x="1020" y="192"/>
      <point x="788" y="192" type="curve" smooth="yes"/>
      <point x="540" y="192"/>
      <point x="384" y="424"/>
      <point x="384" y="644" type="curve"/>
      <point x="384" y="944"/>
      <point x="556" y="1128"/>
      <point x="812" y="1128" type="curve"/>
      <point x="1064" y="1128"/>
      <point x="1188" y="920"/>
      <point x="1188" y="784" type="curve"/>
      <point x="1292" y="784" type="line"/>
      <point x="1292" y="1088"/>
      <point x="1056" y="1348"/>
      <point x="744" y="1348" type="curve"/>
      <point x="392" y="1348"/>
      <point x="128" y="1068"/>
      <point x="128" y="644" type="curve"/>
      <point x="128" y="272"/>
      <point x="396" y="-28"/>
      <point x="784" y="-28" type="curve" smooth="yes"/>
      <point x="1160" y="-28"/>
      <point x="1436" y="284"/>
      <point x="1436" y="736" type="curve"/>
      <point x="1436" y="872" type="line"/>
      <point x="1436" y="1564"/>
      <point x="1000" y="2044"/>
      <point x="384" y="2176" type="curve"/>
    </contour>
    <contour>
      <point x="1320" y="1948" type="line"/>
      <point x="1212" y="2092" type="line"/>
      <point x="464" y="1576" type="line"/>
      <point x="572" y="1436" type="line"/>
    </contour>
  </outline>
</glyph>
<glyph name="divide" format="1">
  <advance width="1792"/>
  <unicode hex="00F7"/>
  <outline>
    <contour>
      <point x="1536" y="996" type="line"/>
      <point x="256" y="996" type="line"/>
      <point x="256" y="776" type="line"/>
      <point x="1536" y="776" type="line"/>
    </contour>
    <contour>
      <point x="728" y="1408" type="curve" smooth="yes"/>
      <point x="728" y="1320"/>
      <point x="784" y="1252"/>
      <point x="896" y="1252" type="curve" smooth="yes"/>
      <point x="1004" y="1252"/>
      <point x="1064" y="1320"/>
      <point x="1064" y="1408" type="curve" smooth="yes"/>
      <point x="1064" y="1500"/>
      <point x="1004" y="1568"/>
      <point x="896" y="1568" type="curve" smooth="yes"/>
      <point x="784" y="1568"/>
      <point x="728" y="1500"/>
    </contour>
    <contour>
      <point x="728" y="384" type="curve" smooth="yes"/>
      <point x="728" y="296"/>
      <point x="784" y="228"/>
      <point x="896" y="228" type="curve" smooth="yes"/>
      <point x="1004" y="228"/>
      <point x="1064" y="296"/>
      <point x="1064" y="384" type="curve" smooth="yes"/>
      <point x="1064" y="476"/>
      <point x="1004" y="548"/>
      <point x="896" y="548" type="curve" smooth="yes"/>
      <point x="784" y="548"/>
      <point x="728" y="476"/>
    </contour>
  </outline>
</glyph>
<glyph name="oslash" format="1">
  <advance width="1680"/>
  <unicode hex="00F8"/>
  <outline>
    <contour>
      <point x="380" y="-84" type="line"/>
      <point x="1452" y="1504" type="line"/>
      <point x="1300" y="1608" type="line"/>
      <point x="228" y="20" type="line"/>
    </contour>
    <component base="o"/>
    <contour>
      <point x="852" y="1792" type="move" name="top"/>
    </contour>
    <contour>
      <point x="1612" y="2200" type="move" name="top_dd"/>
    </contour>
    <contour>
      <point x="1596" y="1792" type="move" name="top0315"/>
    </contour>
  </outline>
</glyph>
<glyph name="thorn" format="1">
  <advance width="1604"/>
  <unicode hex="00FE"/>
  <outline>
    <contour>
      <point x="200" y="2048" type="line"/>
      <point x="200" y="-576" type="line"/>
      <point x="436" y="-576" type="line"/>
      <point x="436" y="288" type="line"/>
      <point x="344" y="784" type="line"/>
      <point x="436" y="1172" type="line"/>
      <point x="436" y="2048" type="line"/>
    </contour>
    <component base="rightloop.cn" xOffset="-40"/>
  </outline>
</glyph>
<glyph name="dcroat" format="1">
  <advance width="1728"/>
  <unicode hex="0111"/>
  <outline>
    <contour>
      <point x="1540" y="2112" type="move" name="caron"/>
    </contour>
    <contour>
      <point x="856" y="0" type="move" name="bottom"/>
    </contour>
    <contour>
      <point x="784" y="2304" type="move" name="top"/>
    </contour>
    <contour>
      <point x="1600" y="2200" type="move" name="top_dd"/>
    </contour>
    <contour>
      <point x="1600" y="-560" type="move" name="bottom_dd"/>
    </contour>
    <contour>
      <point x="856" y="0" type="move" name="markbottom"/>
    </contour>
    <contour>
      <point x="1704" y="2216" type="move" name="top0315"/>
    </contour>
    <contour>
      <point x="1220" y="1800" type="move" name="parenthesses.w2"/>
    </contour>
    <contour>
      <point x="1164" y="288" type="line"/>
      <point x="1188" y="0" type="line"/>
      <point x="1400" y="0" type="line"/>
      <point x="1400" y="2112" type="line"/>
      <point x="1164" y="2112" type="line"/>
    </contour>
    <contour>
      <point x="1664" y="1912" type="line"/>
      <point x="780" y="1912" type="line"/>
      <point x="780" y="1692" type="line"/>
      <point x="1664" y="1692" type="line"/>
    </contour>
    <component base="leftloop.cn"/>
  </outline>
</glyph>
<glyph name="Hbar" format="2">
  <advance width="2032.0"/>
  <unicode hex="0126"/>
  <anchor x="1016.0" y="16.0" name="bottom"/>
  <anchor x="1032.0" y="2304.0" name="top"/>
  <anchor x="1996.0" y="2216.0" name="top0315"/>
  <outline>
    <contour>
      <point x="2000.0" y="1616.0" type="line"/>
      <point x="84.0" y="1616.0" type="line"/>
      <point x="84.0" y="1408.0" type="line"/>
      <point x="2000.0" y="1408.0" type="line"/>
    </contour>
    <contour>
      <point x="1628.0" y="1136.0" type="line"/>
      <point x="456.0" y="1136.0" type="line"/>
      <point x="456.0" y="916.0" type="line"/>
      <point x="1628.0" y="916.0" type="line"/>
    </contour>
    <contour>
      <point x="500.0" y="2048.0" type="line"/>
      <point x="252.0" y="2048.0" type="line"/>
      <point x="252.0" y="0.0" type="line"/>
      <point x="500.0" y="0.0" type="line"/>
    </contour>
    <contour>
      <point x="1840.0" y="2048.0" type="line"/>
      <point x="1592.0" y="2048.0" type="line"/>
      <point x="1592.0" y="0.0" type="line"/>
      <point x="1840.0" y="0.0" type="line"/>
    </contour>
  </outline>
</glyph>
<glyph name="dotlessi" format="1">
  <advance width="652"/>
  <unicode hex="0131"/>
  <outline>
    <contour>
      <point x="336" y="1796" type="move" name="top"/>
    </contour>
    <contour>
      <point x="324" y="0" type="move" name="bottom"/>
    </contour>
    <contour>
      <point x="344" y="900" type="move" name="rhotichook"/>
    </contour>
    <contour>
      <point x="664" y="1776" type="move" name="top0315"/>
    </contour>
    <contour>
      <point x="444" y="1536" type="line"/>
      <point x="208" y="1536" type="line"/>
      <point x="208" y="0" type="line"/>
      <point x="444" y="0" type="line"/>
    </contour>
  </outline>
</glyph>
<glyph name="idotless" format="2">
  <advance width="668.0"/>
  <unicode hex="0131"/>
  <outline>
    <contour>
      <point x="216.0" y="0.0" type="line"/>
      <point x="452.0" y="0.0" type="line"/>
      <point x="452.0" y="1536.0" type="line"/>
      <point x="216.0" y="1536.0" type="line"/>
    </contour>
  </outline>
</glyph>
<glyph name="kgreenlandic" format="1">
  <advance width="1776"/>
  <unicode hex="0138"/>
  <outline>
    <contour>
      <point x="516" y="1488" type="line"/>
      <point x="240" y="1488" type="line"/>
      <point x="240" y="0" type="line"/>
      <point x="516" y="0" type="line"/>
    </contour>
    <contour>
      <point x="1492" y="1488" type="line"/>
      <point x="1160" y="1488" type="line"/>
      <point x="628" y="864" type="line"/>
      <point x="380" y="864" type="line"/>
      <point x="424" y="628" type="line"/>
      <point x="752" y="628" type="line"/>
    </contour>
    <contour>
      <point x="1188" y="0" type="line"/>
      <point x="1536" y="0" type="line"/>
      <point x="792" y="864" type="line"/>
      <point x="616" y="668" type="line"/>
    </contour>
    <contour>
      <point x="848" y="1776" type="move" name="top"/>
    </contour>
    <contour>
      <point x="848" y="16" type="move" name="bottom"/>
    </contour>
    <contour>
      <point x="1608" y="1776" type="move" name="top0315"/>
    </contour>
  </outline>
</glyph>
<glyph name="L_slash" format="2">
  <advance width="1584.0"/>
  <unicode hex="0141"/>
  <anchor x="860.0" y="16.0" name="bottom"/>
  <anchor x="372.0" y="2304.0" name="top"/>
  <anchor x="1532.0" y="2200.0" name="top0315"/>
  <outline>
    <contour>
      <point x="872.0" y="1280.0" type="line"/>
      <point x="60.0" y="1024.0" type="line"/>
      <point x="60.0" y="844.0" type="line"/>
      <point x="872.0" y="1100.0" type="line"/>
    </contour>
    <contour>
      <point x="1448.0" y="220.0" type="line"/>
      <point x="440.0" y="220.0" type="line"/>
      <point x="440.0" y="0.0" type="line"/>
      <point x="1448.0" y="0.0" type="line"/>
    </contour>
    <contour>
      <point x="496.0" y="2048.0" type="line"/>
      <point x="248.0" y="2048.0" type="line"/>
      <point x="248.0" y="0.0" type="line"/>
      <point x="496.0" y="0.0" type="line"/>
    </contour>
  </outline>
</glyph>
<glyph name="Lslash" format="2">
  <advance width="1584.0"/>
  <unicode hex="0141"/>
  <outline>
    <contour>
      <point x="872.0" y="1280.0" type="line"/>
      <point x="60.0" y="1024.0" type="line"/>
      <point x="60.0" y="844.0" type="line"/>
      <point x="872.0" y="1100.0" type="line"/>
    </contour>
    <component base="L"/>
  </outline>
</glyph>
<glyph name="lslash" format="1">
  <advance width="636"/>
  <unicode hex="0142"/>
  <outline>
    <contour>
      <point x="656" y="1280" type="line"/>
      <point x="-16" y="1024" type="line"/>
      <point x="-16" y="848" type="line"/>
      <point x="656" y="1104" type="line"/>
    </contour>
    <component base="l"/>
    <contour>
      <point x="368" y="2304" type="move" name="top"/>
    </contour>
    <contour>
      <point x="380" y="16" type="move" name="bottom"/>
    </contour>
    <contour>
      <point x="760" y="2336" type="move" name="top0315"/>
    </contour>
  </outline>
</glyph>
<glyph name="Eng" format="2">
  <advance width="2080.0"/>
  <unicode hex="014A"/>
  <outline>
    <contour>
      <point x="1588.0" y="36.0" type="line"/>
      <point x="1588.0" y="-160.0" type="line" smooth="yes"/>
      <point x="1588.0" y="-320.0"/>
      <point x="1492.0" y="-368.0"/>
      <point x="1364.0" y="-368.0" type="curve" smooth="yes"/>
      <point x="1336.0" y="-368.0"/>
      <point x="1308.0" y="-364.0"/>
      <point x="1288.0" y="-360.0" type="curve"/>
      <point x="1288.0" y="-564.0" type="line"/>
      <point x="1324.0" y="-576.0"/>
      <point x="1376.0" y="-576.0"/>
      <point x="1424.0" y="-576.0" type="curve" smooth="yes"/>
      <point x="1648.0" y="-576.0"/>
      <point x="1832.0" y="-428.0"/>
      <point x="1832.0" y="-164.0" type="curve" smooth="yes"/>
      <point x="1832.0" y="36.0" type="line"/>
    </contour>
    <component base="N"/>
  </outline>
</glyph>
<glyph name="Eng" format="1">
  <advance width="2080"/>
  <unicode hex="014A"/>
  <outline>
    <contour>
      <point x="1584" y="36" type="line"/>
      <point x="1584" y="-160" type="line" smooth="yes"/>
      <point x="1584" y="-320"/>
      <point x="1492" y="-368"/>
      <point x="1364" y="-368" type="curve" smooth="yes"/>
      <point x="1336" y="-368"/>
      <point x="1308" y="-364"/>
      <point x="1288" y="-360" type="curve"/>
      <point x="1288" y="-564" type="line"/>
      <point x="1324" y="-576"/>
      <point x="1376" y="-576"/>
      <point x="1424" y="-576" type="curve" smooth="yes"/>
      <point x="1648" y="-576"/>
      <point x="1832" y="-428"/>
      <point x="1832" y="-164" type="curve" smooth="yes"/>
      <point x="1832" y="36" type="line"/>
    </contour>
    <component base="N"/>
    <contour>
      <point x="1036" y="2200" type="move" name="top"/>
    </contour>
    <contour>
      <point x="1028" y="16" type="move" name="bottom"/>
    </contour>
    <contour>
      <point x="1984" y="2200" type="move" name="top0315"/>
    </contour>
  </outline>
</glyph>
<glyph name="eng" format="1">
  <advance width="1644"/>
  <unicode hex="014B"/>
  <outline>
    <contour>
      <point x="1188" y="36" type="line"/>
      <point x="1188" y="-164" type="line" smooth="yes"/>
      <point x="1188" y="-324"/>
      <point x="1092" y="-372"/>
      <point x="964" y="-372" type="curve" smooth="yes"/>
      <point x="936" y="-372"/>
      <point x="908" y="-368"/>
      <point x="888" y="-364" type="curve"/>
      <point x="888" y="-564" type="line"/>
      <point x="924" y="-576"/>
      <point x="976" y="-576"/>
      <point x="1024" y="-576" type="curve" smooth="yes"/>
      <point x="1248" y="-576"/>
      <point x="1424" y="-428"/>
      <point x="1424" y="-164" type="curve" smooth="yes"/>
      <point x="1424" y="36" type="line"/>
    </contour>
    <component base="n"/>
    <contour>
      <point x="756" y="1776" type="move" name="top"/>
    </contour>
    <contour>
      <point x="740" y="16" type="move" name="bottom"/>
    </contour>
    <contour>
      <point x="1072" y="-420" type="move" name="parenthesses.w1"/>
    </contour>
    <contour>
      <point x="740" y="16" type="move" name="markbottom"/>
    </contour>
    <contour>
      <point x="1572" y="1776" type="move" name="top0315"/>
    </contour>
  </outline>
</glyph>
<glyph name="OE" format="1">
  <advance width="2636"/>
  <unicode hex="0152"/>
  <outline>
    <contour>
      <point x="1340" y="2304" type="move" name="top"/>
    </contour>
    <contour>
      <point x="1340" y="0" type="move" name="bottom"/>
    </contour>
    <contour>
      <point x="2728" y="2200" type="move" name="top_dd"/>
    </contour>
    <contour>
      <point x="2728" y="-560" type="move" name="bottom_dd"/>
    </contour>
    <contour>
      <point x="2728" y="2200" type="move" name="top0315"/>
    </contour>
    <contour>
      <point x="944" y="2048" type="line"/>
      <point x="484" y="2048"/>
      <point x="176" y="1720"/>
      <point x="176" y="1236" type="curve"/>
      <point x="176" y="816" type="line"/>
      <point x="176" y="332"/>
      <point x="488" y="0"/>
      <point x="944" y="0" type="curve" smooth="yes"/>
      <point x="1340" y="0" type="line"/>
      <point x="1340" y="220" type="line"/>
      <point x="944" y="220" type="line" smooth="yes"/>
      <point x="644" y="220"/>
      <point x="448" y="420"/>
      <point x="448" y="816" type="curve"/>
      <point x="448" y="1236" type="line"/>
      <point x="448" y="1632"/>
      <point x="640" y="1828"/>
      <point x="944" y="1828" type="curve"/>
      <point x="1340" y="1828" type="line"/>
      <point x="1340" y="2048" type="line"/>
    </contour>
    <component base="E" xOffset="1004"/>
  </outline>
</glyph>
<glyph name="OE" format="2">
  <advance width="2652.0"/>
  <unicode hex="0152"/>
  <anchor x="1348.0" y="0.0" name="bottom"/>
  <anchor x="2736.0" y="-560.0" name="bottom_dd"/>
  <anchor x="1348.0" y="2304.0" name="top"/>
  <anchor x="2736.0" y="2200.0" name="top0315"/>
  <anchor x="2736.0" y="2200.0" name="top_dd"/>
  <outline>
    <contour>
      <point x="952.0" y="2048.0" type="line"/>
      <point x="492.0" y="2048.0"/>
      <point x="184.0" y="1720.0"/>
      <point x="184.0" y="1236.0" type="curve"/>
      <point x="184.0" y="816.0" type="line"/>
      <point x="184.0" y="332.0"/>
      <point x="496.0" y="0.0"/>
      <point x="952.0" y="0.0" type="curve" smooth="yes"/>
      <point x="1348.0" y="0.0" type="line"/>
      <point x="1348.0" y="220.0" type="line"/>
      <point x="952.0" y="220.0" type="line" smooth="yes"/>
      <point x="652.0" y="220.0"/>
      <point x="456.0" y="420.0"/>
      <point x="456.0" y="816.0" type="curve"/>
      <point x="456.0" y="1236.0" type="line"/>
      <point x="456.0" y="1632.0"/>
      <point x="648.0" y="1828.0"/>
      <point x="952.0" y="1828.0" type="curve"/>
      <point x="1348.0" y="1828.0" type="line"/>
      <point x="1348.0" y="2048.0" type="line"/>
    </contour>
    <contour>
      <point x="2504.0" y="220.0" type="line"/>
      <point x="1436.0" y="220.0" type="line"/>
      <point x="1436.0" y="0.0" type="line"/>
      <point x="2504.0" y="0.0" type="line"/>
    </contour>
    <contour>
      <point x="1500.0" y="2048.0" type="line"/>
      <point x="1252.0" y="2048.0" type="line"/>
      <point x="1252.0" y="0.0" type="line"/>
      <point x="1500.0" y="0.0" type="line"/>
    </contour>
    <contour>
      <point x="2384.0" y="1136.0" type="line"/>
      <point x="1436.0" y="1136.0" type="line"/>
      <point x="1436.0" y="916.0" type="line"/>
      <point x="2384.0" y="916.0" type="line"/>
    </contour>
    <contour>
      <point x="2488.0" y="2048.0" type="line"/>
      <point x="1436.0" y="2048.0" type="line"/>
      <point x="1436.0" y="1828.0" type="line"/>
      <point x="2488.0" y="1828.0" type="line"/>
    </contour>
  </outline>
</glyph>
<glyph name="longs" format="1">
  <advance width="752"/>
  <unicode hex="017F"/>
  <outline>
    <contour>
      <point x="316" y="0" type="line"/>
      <point x="316" y="1640" type="line" smooth="yes"/>
      <point x="316" y="1816"/>
      <point x="400" y="1920"/>
      <point x="560" y="1920" type="curve" smooth="yes"/>
      <point x="608" y="1920"/>
      <point x="648" y="1916"/>
      <point x="680" y="1908" type="curve"/>
      <point x="712" y="2112" type="line"/>
      <point x="648" y="2128"/>
      <point x="580" y="2140"/>
      <point x="516" y="2140" type="curve" smooth="yes"/>
      <point x="220" y="2140"/>
      <point x="40" y="1964"/>
      <point x="40" y="1640" type="curve" smooth="yes"/>
      <point x="40" y="0" type="line"/>
    </contour>
    <contour>
      <point x="420" y="2420" type="move" name="top"/>
    </contour>
    <contour>
      <point x="168" y="16" type="move" name="bottom"/>
    </contour>
    <contour>
      <point x="532" y="2420" type="move" name="top0315"/>
    </contour>
  </outline>
</glyph>
<glyph name="Bhook" format="2">
  <advance width="2132.0"/>
  <unicode hex="0181"/>
  <outline>
    <contour>
      <point x="616.0" y="1828.0" type="line"/>
      <point x="616.0" y="2048.0" type="line"/>
      <point x="416.0" y="2048.0" type="line" smooth="yes"/>
      <point x="152.0" y="2048.0"/>
      <point x="8.0" y="1864.0"/>
      <point x="8.0" y="1640.0" type="curve" smooth="yes"/>
      <point x="8.0" y="1504.0" type="line"/>
      <point x="240.0" y="1504.0" type="line"/>
      <point x="240.0" y="1580.0" type="line" smooth="yes"/>
      <point x="240.0" y="1708.0"/>
      <point x="260.0" y="1828.0"/>
      <point x="420.0" y="1828.0" type="curve" smooth="yes"/>
    </contour>
    <contour>
      <point x="1300.0" y="932.0" type="line"/>
      <point x="1300.0" y="1044.0" type="line"/>
      <point x="1536.0" y="1044.0"/>
      <point x="1892.0" y="1104.0"/>
      <point x="1892.0" y="1504.0" type="curve"/>
      <point x="1892.0" y="1804.0"/>
      <point x="1692.0" y="2048.0"/>
      <point x="1264.0" y="2048.0" type="curve"/>
      <point x="548.0" y="2048.0" type="line"/>
      <point x="548.0" y="0.0" type="line"/>
      <point x="796.0" y="0.0" type="line"/>
      <point x="796.0" y="1828.0" type="line"/>
      <point x="1264.0" y="1828.0" type="line"/>
      <point x="1536.0" y="1828.0"/>
      <point x="1656.0" y="1684.0"/>
      <point x="1656.0" y="1504.0" type="curve"/>
      <point x="1656.0" y="1288.0"/>
      <point x="1480.0" y="1148.0"/>
      <point x="1256.0" y="1148.0" type="curve"/>
      <point x="748.0" y="1148.0" type="line"/>
      <point x="748.0" y="932.0" type="line"/>
    </contour>
    <contour>
      <point x="1288.0" y="0.0" type="line"/>
      <point x="1772.0" y="0.0"/>
      <point x="1972.0" y="236.0"/>
      <point x="1972.0" y="544.0" type="curve" smooth="yes"/>
      <point x="1972.0" y="868.0"/>
      <point x="1748.0" y="1044.0"/>
      <point x="1560.0" y="1056.0" type="curve"/>
      <point x="1560.0" y="1148.0" type="line"/>
      <point x="860.0" y="1148.0" type="line"/>
      <point x="860.0" y="932.0" type="line"/>
      <point x="1300.0" y="932.0" type="line" smooth="yes"/>
      <point x="1568.0" y="932.0"/>
      <point x="1736.0" y="752.0"/>
      <point x="1736.0" y="544.0" type="curve" smooth="yes"/>
      <point x="1736.0" y="364.0"/>
      <point x="1612.0" y="220.0"/>
      <point x="1288.0" y="220.0" type="curve" smooth="yes"/>
      <point x="668.0" y="220.0" type="line"/>
      <point x="668.0" y="0.0" type="line"/>
    </contour>
  </outline>
</glyph>
<glyph name="Bhook" format="1">
  <advance width="2132"/>
  <unicode hex="0181"/>
  <outline>
    <contour>
      <point x="616" y="1828" type="line"/>
      <point x="616" y="2048" type="line"/>
      <point x="416" y="2048" type="line" smooth="yes"/>
      <point x="152" y="2048"/>
      <point x="8" y="1864"/>
      <point x="8" y="1640" type="curve" smooth="yes"/>
      <point x="8" y="1504" type="line"/>
      <point x="240" y="1504" type="line"/>
      <point x="240" y="1580" type="line" smooth="yes"/>
      <point x="240" y="1708"/>
      <point x="260" y="1828"/>
      <point x="420" y="1828" type="curve" smooth="yes"/>
    </contour>
    <component base="B" xOffset="300"/>
  </outline>
</glyph>
<glyph name="Btopbar" format="2">
  <advance width="1840.0"/>
  <unicode hex="0182"/>
  <guideline x="192.0" y="1684.0" angle="90.0"/>
  <outline>
    <contour>
      <point x="248.0" y="0.0" type="line"/>
      <point x="1016.0" y="0.0" type="line" smooth="yes"/>
      <point x="1456.0" y="0.0"/>
      <point x="1696.0" y="248.0"/>
      <point x="1696.0" y="604.0" type="curve" smooth="yes"/>
      <point x="1696.0" y="960.0"/>
      <point x="1456.0" y="1188.0"/>
      <point x="1016.0" y="1188.0" type="curve" smooth="yes"/>
      <point x="496.0" y="1188.0" type="line"/>
      <point x="496.0" y="1828.0" type="line"/>
      <point x="1484.0" y="1828.0" type="line"/>
      <point x="1484.0" y="2048.0" type="line"/>
      <point x="248.0" y="2048.0" type="line"/>
    </contour>
    <contour>
      <point x="496.0" y="216.0" type="line"/>
      <point x="496.0" y="968.0" type="line"/>
      <point x="1016.0" y="968.0" type="line" smooth="yes"/>
      <point x="1296.0" y="968.0"/>
      <point x="1452.0" y="804.0"/>
      <point x="1452.0" y="608.0" type="curve" smooth="yes"/>
      <point x="1452.0" y="408.0"/>
      <point x="1296.0" y="216.0"/>
      <point x="1016.0" y="216.0" type="curve" smooth="yes"/>
    </contour>
  </outline>
</glyph>
<glyph name="btopbar" format="1">
  <advance width="1700"/>
  <unicode hex="0183"/>
  <outline>
    <contour>
      <point x="1392" y="2048" type="line"/>
      <point x="208" y="2048" type="line"/>
      <point x="208" y="1828" type="line"/>
      <point x="1392" y="1828" type="line"/>
    </contour>
    <component base="b"/>
  </outline>
</glyph>
<glyph name="Tonesix" format="2">
  <advance width="2012.0"/>
  <unicode hex="0184"/>
  <outline>
    <contour>
      <point x="756.0" y="2048.0" type="line"/>
      <point x="28.0" y="2048.0" type="line"/>
      <point x="28.0" y="1828.0" type="line"/>
      <point x="756.0" y="1828.0" type="line"/>
    </contour>
    <contour>
      <point x="692.0" y="1188.0" type="line"/>
      <point x="692.0" y="968.0" type="line"/>
      <point x="1276.0" y="968.0" type="line"/>
      <point x="1556.0" y="968.0"/>
      <point x="1712.0" y="804.0"/>
      <point x="1712.0" y="608.0" type="curve"/>
      <point x="1712.0" y="408.0"/>
      <point x="1556.0" y="216.0"/>
      <point x="1276.0" y="216.0" type="curve"/>
      <point x="756.0" y="216.0" type="line"/>
      <point x="756.0" y="2048.0" type="line"/>
      <point x="508.0" y="2048.0" type="line"/>
      <point x="508.0" y="0.0" type="line"/>
      <point x="1276.0" y="0.0" type="line"/>
      <point x="1716.0" y="0.0"/>
      <point x="1956.0" y="248.0"/>
      <point x="1956.0" y="604.0" type="curve"/>
      <point x="1956.0" y="960.0"/>
      <point x="1716.0" y="1188.0"/>
      <point x="1276.0" y="1188.0" type="curve"/>
    </contour>
  </outline>
</glyph>
<glyph name="Tonesix" format="1">
  <advance width="1784"/>
  <unicode hex="0184"/>
  <outline>
    <contour>
      <point x="304" y="2004" type="line"/>
      <point x="80" y="1720" type="line"/>
      <point x="80" y="1612" type="line"/>
      <point x="304" y="1332" type="line"/>
      <point x="372" y="1332" type="line"/>
      <point x="372" y="2004" type="line"/>
    </contour>
    <component base="afii10046" xOffset="72"/>
  </outline>
</glyph>
<glyph name="tonesix" format="1">
  <advance width="1776"/>
  <unicode hex="0185"/>
  <outline>
    <contour>
      <point x="328" y="2112" type="line"/>
      <point x="104" y="1832" type="line"/>
      <point x="104" y="1720" type="line"/>
      <point x="328" y="1440" type="line"/>
      <point x="392" y="1440" type="line"/>
      <point x="392" y="2112" type="line"/>
    </contour>
    <component base="b" xOffset="132"/>
  </outline>
</glyph>
<glyph name="Oopen" format="2">
  <advance width="2048.0"/>
  <unicode hex="0186"/>
  <outline>
    <contour>
      <point x="984.0" y="-28.0" type="curve" smooth="yes"/>
      <point x="1508.0" y="-28.0"/>
      <point x="1888.0" y="376.0"/>
      <point x="1888.0" y="1024.0" type="curve"/>
      <point x="1888.0" y="1672.0"/>
      <point x="1508.0" y="2076.0"/>
      <point x="984.0" y="2076.0" type="curve" smooth="yes"/>
      <point x="572.0" y="2076.0"/>
      <point x="236.0" y="1828.0"/>
      <point x="160.0" y="1408.0" type="curve"/>
      <point x="408.0" y="1408.0" type="line"/>
      <point x="468.0" y="1692.0"/>
      <point x="712.0" y="1844.0"/>
      <point x="984.0" y="1844.0" type="curve" smooth="yes"/>
      <point x="1356.0" y="1844.0"/>
      <point x="1648.0" y="1556.0"/>
      <point x="1648.0" y="1024.0" type="curve"/>
      <point x="1648.0" y="492.0"/>
      <point x="1356.0" y="204.0"/>
      <point x="984.0" y="204.0" type="curve" smooth="yes"/>
      <point x="712.0" y="204.0"/>
      <point x="468.0" y="356.0"/>
      <point x="408.0" y="640.0" type="curve"/>
      <point x="160.0" y="640.0" type="line"/>
      <point x="236.0" y="220.0"/>
      <point x="572.0" y="-28.0"/>
    </contour>
  </outline>
</glyph>
<glyph name="Chook" format="2">
  <advance width="2172.0"/>
  <unicode hex="0187"/>
  <outline>
    <contour>
      <point x="1896.0" y="1408.0" type="line"/>
      <point x="1896.0" y="1664.0" type="line" smooth="yes"/>
      <point x="1896.0" y="1824.0"/>
      <point x="1992.0" y="1872.0"/>
      <point x="2120.0" y="1872.0" type="curve" smooth="yes"/>
      <point x="2148.0" y="1872.0"/>
      <point x="2176.0" y="1868.0"/>
      <point x="2196.0" y="1864.0" type="curve"/>
      <point x="2196.0" y="2064.0" type="line"/>
      <point x="2160.0" y="2076.0"/>
      <point x="2108.0" y="2076.0"/>
      <point x="2060.0" y="2076.0" type="curve" smooth="yes"/>
      <point x="1836.0" y="2076.0"/>
      <point x="1660.0" y="1928.0"/>
      <point x="1660.0" y="1664.0" type="curve" smooth="yes"/>
      <point x="1660.0" y="1408.0" type="line"/>
    </contour>
    <contour>
      <point x="1896.0" y="1408.0" type="line"/>
      <point x="1820.0" y="1828.0"/>
      <point x="1484.0" y="2076.0"/>
      <point x="1072.0" y="2076.0" type="curve" smooth="yes"/>
      <point x="548.0" y="2076.0"/>
      <point x="168.0" y="1672.0"/>
      <point x="168.0" y="1024.0" type="curve"/>
      <point x="168.0" y="376.0"/>
      <point x="548.0" y="-28.0"/>
      <point x="1072.0" y="-28.0" type="curve" smooth="yes"/>
      <point x="1484.0" y="-28.0"/>
      <point x="1820.0" y="220.0"/>
      <point x="1896.0" y="640.0" type="curve"/>
      <point x="1648.0" y="640.0" type="line"/>
      <point x="1588.0" y="356.0"/>
      <point x="1344.0" y="204.0"/>
      <point x="1072.0" y="204.0" type="curve" smooth="yes"/>
      <point x="700.0" y="204.0"/>
      <point x="408.0" y="492.0"/>
      <point x="408.0" y="1024.0" type="curve"/>
      <point x="408.0" y="1556.0"/>
      <point x="700.0" y="1844.0"/>
      <point x="1072.0" y="1844.0" type="curve" smooth="yes"/>
      <point x="1344.0" y="1844.0"/>
      <point x="1588.0" y="1692.0"/>
      <point x="1648.0" y="1408.0" type="curve"/>
    </contour>
  </outline>
</glyph>
<glyph name="Chook" format="1">
  <advance width="2048"/>
  <unicode hex="0187"/>
  <outline>
    <contour>
      <point x="1628" y="1520" type="line" name="hr00"/>
      <point x="1628" y="1564" type="line" smooth="yes"/>
      <point x="1628" y="1752"/>
      <point x="1724" y="1804"/>
      <point x="1868" y="1804" type="curve" smooth="yes"/>
      <point x="1956" y="1804" type="line"/>
      <point x="1956" y="2036" type="line"/>
      <point x="1916" y="2044"/>
      <point x="1844" y="2044"/>
      <point x="1796" y="2044" type="curve" smooth="yes"/>
      <point x="1596" y="2044"/>
      <point x="1400" y="1876"/>
      <point x="1400" y="1564" type="curve" smooth="yes"/>
      <point x="1400" y="1520" type="line"/>
    </contour>
    <component base="C" xOffset="-124"/>
  </outline>
</glyph>
<glyph name="chook" format="1">
  <advance width="1720"/>
  <unicode hex="0188"/>
  <outline>
    <contour>
      <point x="1444" y="1076" type="line"/>
      <point x="1444" y="1276" type="line" smooth="yes"/>
      <point x="1444" y="1436"/>
      <point x="1540" y="1484"/>
      <point x="1668" y="1484" type="curve" smooth="yes"/>
      <point x="1696" y="1484"/>
      <point x="1724" y="1480"/>
      <point x="1744" y="1476" type="curve"/>
      <point x="1744" y="1676" type="line"/>
      <point x="1708" y="1688"/>
      <point x="1656" y="1688"/>
      <point x="1608" y="1688" type="curve" smooth="yes"/>
      <point x="1384" y="1688"/>
      <point x="1208" y="1540"/>
      <point x="1208" y="1276" type="curve" smooth="yes"/>
      <point x="1208" y="1076" type="line"/>
    </contour>
    <component base="c"/>
  </outline>
</glyph>
<glyph name="Dhook" format="2">
  <advance width="2340.0"/>
  <unicode hex="018A"/>
  <outline>
    <contour>
      <point x="616.0" y="1828.0" type="line"/>
      <point x="616.0" y="2048.0" type="line"/>
      <point x="416.0" y="2048.0" type="line" smooth="yes"/>
      <point x="152.0" y="2048.0"/>
      <point x="8.0" y="1864.0"/>
      <point x="8.0" y="1640.0" type="curve" smooth="yes"/>
      <point x="8.0" y="1504.0" type="line"/>
      <point x="240.0" y="1504.0" type="line"/>
      <point x="240.0" y="1580.0" type="line" smooth="yes"/>
      <point x="240.0" y="1708.0"/>
      <point x="260.0" y="1828.0"/>
      <point x="420.0" y="1828.0" type="curve" smooth="yes"/>
    </contour>
    <contour>
      <point x="1196.0" y="0.0" type="line"/>
      <point x="1820.0" y="0.0"/>
      <point x="2172.0" y="388.0"/>
      <point x="2172.0" y="1028.0" type="curve"/>
      <point x="2172.0" y="1664.0"/>
      <point x="1820.0" y="2048.0"/>
      <point x="1224.0" y="2048.0" type="curve"/>
      <point x="692.0" y="2048.0" type="line"/>
      <point x="692.0" y="1828.0" type="line"/>
      <point x="1208.0" y="1828.0" type="line"/>
      <point x="1688.0" y="1828.0"/>
      <point x="1932.0" y="1524.0"/>
      <point x="1932.0" y="1028.0" type="curve"/>
      <point x="1932.0" y="528.0"/>
      <point x="1688.0" y="220.0"/>
      <point x="1180.0" y="220.0" type="curve"/>
      <point x="704.0" y="220.0" type="line"/>
      <point x="704.0" y="0.0" type="line"/>
    </contour>
    <contour>
      <point x="812.0" y="2048.0" type="line"/>
      <point x="564.0" y="2048.0" type="line"/>
      <point x="564.0" y="0.0" type="line"/>
      <point x="812.0" y="0.0" type="line"/>
    </contour>
  </outline>
</glyph>
<glyph name="Dhook" format="1">
  <advance width="2340"/>
  <unicode hex="018A"/>
  <outline>
    <contour>
      <point x="616" y="1828" type="line"/>
      <point x="616" y="2048" type="line"/>
      <point x="416" y="2048" type="line" smooth="yes"/>
      <point x="152" y="2048"/>
      <point x="8" y="1864"/>
      <point x="8" y="1640" type="curve" smooth="yes"/>
      <point x="8" y="1504" type="line"/>
      <point x="240" y="1504" type="line"/>
      <point x="240" y="1580" type="line" smooth="yes"/>
      <point x="240" y="1708"/>
      <point x="260" y="1828"/>
      <point x="420" y="1828" type="curve" smooth="yes"/>
    </contour>
    <component base="D" xOffset="316"/>
  </outline>
</glyph>
<glyph name="Dtopbar" format="2">
  <advance width="1776.0"/>
  <unicode hex="018B"/>
  <outline>
    <contour>
      <point x="1612.0" y="0.0" type="line"/>
      <point x="1612.0" y="2004.0" type="line"/>
      <point x="380.0" y="2004.0" type="line"/>
      <point x="380.0" y="1772.0" type="line"/>
      <point x="1328.0" y="1772.0" type="line"/>
      <point x="1328.0" y="1196.0" type="line"/>
      <point x="848.0" y="1196.0" type="line" smooth="yes"/>
      <point x="408.0" y="1196.0"/>
      <point x="164.0" y="960.0"/>
      <point x="164.0" y="604.0" type="curve" smooth="yes"/>
      <point x="164.0" y="248.0"/>
      <point x="408.0" y="0.0"/>
      <point x="848.0" y="0.0" type="curve" smooth="yes"/>
    </contour>
    <contour>
      <point x="1328.0" y="228.0" type="line"/>
      <point x="848.0" y="228.0" type="line" smooth="yes"/>
      <point x="564.0" y="228.0"/>
      <point x="452.0" y="408.0"/>
      <point x="452.0" y="608.0" type="curve" smooth="yes"/>
      <point x="452.0" y="804.0"/>
      <point x="564.0" y="964.0"/>
      <point x="848.0" y="964.0" type="curve" smooth="yes"/>
      <point x="1328.0" y="964.0" type="line"/>
    </contour>
  </outline>
</glyph>
<glyph name="Dtopbar" format="1">
  <advance width="1776"/>
  <unicode hex="018B"/>
  <outline>
    <contour>
      <point x="1612" y="0" type="line"/>
      <point x="1612" y="2004" type="line"/>
      <point x="380" y="2004" type="line"/>
      <point x="380" y="1772" type="line"/>
      <point x="1328" y="1772" type="line"/>
      <point x="1328" y="1196" type="line"/>
      <point x="848" y="1196" type="line" smooth="yes"/>
      <point x="408" y="1196"/>
      <point x="164" y="960"/>
      <point x="164" y="604" type="curve" smooth="yes"/>
      <point x="164" y="248"/>
      <point x="408" y="0"/>
      <point x="848" y="0" type="curve" smooth="yes"/>
    </contour>
    <contour>
      <point x="1328" y="228" type="line"/>
      <point x="848" y="228" type="line" smooth="yes"/>
      <point x="564" y="228"/>
      <point x="452" y="408"/>
      <point x="452" y="608" type="curve" smooth="yes"/>
      <point x="452" y="804"/>
      <point x="564" y="964"/>
      <point x="848" y="964" type="curve" smooth="yes"/>
      <point x="1328" y="964" type="line"/>
    </contour>
  </outline>
</glyph>
<glyph name="dtopbar" format="1">
  <advance width="1760"/>
  <unicode hex="018C"/>
  <outline>
    <contour>
      <point x="1188" y="2112" type="line"/>
      <point x="424" y="2112" type="line"/>
      <point x="424" y="1892" type="line"/>
      <point x="1188" y="1892" type="line"/>
    </contour>
    <component base="d" xOffset="-16"/>
  </outline>
</glyph>
<glyph name="deltaturn" format="1">
  <advance width="1520"/>
  <unicode hex="018D"/>
  <outline>
    <contour>
      <point x="1236" y="-516" type="line"/>
      <point x="1236" y="-352" type="line"/>
      <point x="1104" y="-200"/>
      <point x="920" y="-48"/>
      <point x="760" y="100" type="curve"/>
      <point x="776" y="100"/>
      <point x="788" y="100"/>
      <point x="804" y="104" type="curve" smooth="yes"/>
      <point x="1200" y="152"/>
      <point x="1428" y="424"/>
      <point x="1428" y="756" type="curve" smooth="yes"/>
      <point x="1428" y="784" type="line" smooth="yes"/>
      <point x="1428" y="1200"/>
      <point x="1180" y="1516"/>
      <point x="760" y="1516" type="curve" smooth="yes"/>
      <point x="340" y="1516"/>
      <point x="96" y="1200"/>
      <point x="96" y="784" type="curve" smooth="yes"/>
      <point x="96" y="756" type="line" smooth="yes"/>
      <point x="96" y="444"/>
      <point x="308" y="204"/>
      <point x="600" y="-52" type="curve" smooth="yes"/>
      <point x="692" y="-124"/>
      <point x="824" y="-248"/>
      <point x="868" y="-304" type="curve"/>
      <point x="260" y="-304" type="line"/>
      <point x="260" y="-516" type="line"/>
    </contour>
    <contour>
      <point x="1152" y="756" type="line"/>
      <point x="1152" y="500"/>
      <point x="1024" y="272"/>
      <point x="736" y="272" type="curve" smooth="yes"/>
      <point x="688" y="272"/>
      <point x="652" y="276"/>
      <point x="616" y="288" type="curve"/>
      <point x="488" y="372"/>
      <point x="368" y="540"/>
      <point x="368" y="756" type="curve" smooth="yes"/>
      <point x="368" y="784" type="line" smooth="yes"/>
      <point x="368" y="1060"/>
      <point x="488" y="1296"/>
      <point x="760" y="1296" type="curve" smooth="yes"/>
      <point x="1036" y="1296"/>
      <point x="1152" y="1060"/>
      <point x="1152" y="784" type="curve" smooth="yes"/>
    </contour>
  </outline>
</glyph>
<glyph name="Schwa" format="2">
  <advance width="2032.0"/>
  <unicode hex="018F"/>
  <outline>
    <contour>
      <point x="1016.0" y="-28.0" type="curve" smooth="yes"/>
      <point x="1476.0" y="-28.0"/>
      <point x="1848.0" y="368.0"/>
      <point x="1848.0" y="940.0" type="curve" smooth="yes"/>
      <point x="1848.0" y="1056.0" type="line" smooth="yes"/>
      <point x="1848.0" y="1628.0"/>
      <point x="1524.0" y="2032.0"/>
      <point x="936.0" y="2032.0" type="curve" smooth="yes"/>
      <point x="620.0" y="2032.0"/>
      <point x="436.0" y="1936.0"/>
      <point x="380.0" y="1900.0" type="curve"/>
      <point x="448.0" y="1692.0" type="line"/>
      <point x="548.0" y="1736.0"/>
      <point x="700.0" y="1796.0"/>
      <point x="936.0" y="1796.0" type="curve" smooth="yes"/>
      <point x="1380.0" y="1796.0"/>
      <point x="1560.0" y="1468.0"/>
      <point x="1560.0" y="1056.0" type="curve" smooth="yes"/>
      <point x="1560.0" y="940.0" type="line" smooth="yes"/>
      <point x="1560.0" y="532.0"/>
      <point x="1364.0" y="204.0"/>
      <point x="1016.0" y="204.0" type="curve" smooth="yes"/>
      <point x="608.0" y="204.0"/>
      <point x="472.0" y="468.0"/>
      <point x="472.0" y="804.0" type="curve" smooth="yes"/>
      <point x="472.0" y="848.0" type="line"/>
      <point x="1672.0" y="848.0" type="line"/>
      <point x="1672.0" y="1064.0" type="line"/>
      <point x="188.0" y="1064.0" type="line"/>
      <point x="188.0" y="892.0" type="line" smooth="yes"/>
      <point x="188.0" y="328.0"/>
      <point x="468.0" y="-28.0"/>
    </contour>
  </outline>
</glyph>
<glyph name="Schwa" format="1">
  <advance width="2032"/>
  <unicode hex="018F"/>
  <outline>
    <contour>
      <point x="1016" y="-28" type="curve" smooth="yes"/>
      <point x="1476" y="-28"/>
      <point x="1848" y="368"/>
      <point x="1848" y="940" type="curve" smooth="yes"/>
      <point x="1848" y="1056" type="line" smooth="yes"/>
      <point x="1848" y="1628"/>
      <point x="1524" y="2032"/>
      <point x="936" y="2032" type="curve" smooth="yes"/>
      <point x="620" y="2032"/>
      <point x="436" y="1936"/>
      <point x="380" y="1900" type="curve"/>
      <point x="448" y="1692" type="line"/>
      <point x="548" y="1736"/>
      <point x="700" y="1796"/>
      <point x="936" y="1796" type="curve" smooth="yes"/>
      <point x="1380" y="1796"/>
      <point x="1560" y="1468"/>
      <point x="1560" y="1056" type="curve" smooth="yes"/>
      <point x="1560" y="940" type="line" smooth="yes"/>
      <point x="1560" y="532"/>
      <point x="1364" y="204"/>
      <point x="1016" y="204" type="curve" smooth="yes"/>
      <point x="608" y="204"/>
      <point x="472" y="468"/>
      <point x="472" y="804" type="curve" smooth="yes"/>
      <point x="472" y="848" type="line"/>
      <point x="1672" y="848" type="line"/>
      <point x="1672" y="1064" type="line"/>
      <point x="188" y="1064" type="line"/>
      <point x="188" y="892" type="line" smooth="yes"/>
      <point x="188" y="328"/>
      <point x="468" y="-28"/>
    </contour>
    <contour>
      <point x="964" y="2200" type="move" name="top"/>
    </contour>
    <contour>
      <point x="1016" y="0" type="move" name="bottom"/>
    </contour>
    <contour>
      <point x="2008" y="2200" type="move" name="top0315"/>
    </contour>
  </outline>
</glyph>
<glyph name="Epsilon1" format="2">
  <advance width="1776.0"/>
  <unicode hex="0190"/>
  <anchor x="888.0" y="0.0" name="bottom"/>
  <anchor x="888.0" y="2200.0" name="top"/>
  <anchor x="1720.0" y="2200.0" name="top0315"/>
  <outline>
    <contour>
      <point x="1112.0" y="960.0" type="line"/>
      <point x="1112.0" y="1136.0" type="line"/>
      <point x="888.0" y="1136.0" type="line" smooth="yes"/>
      <point x="592.0" y="1136.0"/>
      <point x="480.0" y="1272.0"/>
      <point x="480.0" y="1464.0" type="curve" smooth="yes"/>
      <point x="480.0" y="1652.0"/>
      <point x="608.0" y="1800.0"/>
      <point x="908.0" y="1800.0" type="curve" smooth="yes"/>
      <point x="1136.0" y="1800.0"/>
      <point x="1300.0" y="1668.0"/>
      <point x="1300.0" y="1480.0" type="curve"/>
      <point x="1584.0" y="1480.0" type="line"/>
      <point x="1584.0" y="1820.0"/>
      <point x="1276.0" y="2032.0"/>
      <point x="908.0" y="2032.0" type="curve" smooth="yes"/>
      <point x="480.0" y="2032.0"/>
      <point x="196.0" y="1832.0"/>
      <point x="196.0" y="1460.0" type="curve" smooth="yes"/>
      <point x="196.0" y="1144.0"/>
      <point x="480.0" y="960.0"/>
      <point x="880.0" y="960.0" type="curve"/>
    </contour>
    <contour>
      <point x="880.0" y="1080.0" type="line"/>
      <point x="432.0" y="1080.0"/>
      <point x="164.0" y="896.0"/>
      <point x="164.0" y="560.0" type="curve" smooth="yes"/>
      <point x="164.0" y="140.0"/>
      <point x="488.0" y="-28.0"/>
      <point x="908.0" y="-28.0" type="curve" smooth="yes"/>
      <point x="1252.0" y="-28.0"/>
      <point x="1612.0" y="148.0"/>
      <point x="1612.0" y="556.0" type="curve"/>
      <point x="1328.0" y="556.0" type="line"/>
      <point x="1328.0" y="360.0"/>
      <point x="1168.0" y="200.0"/>
      <point x="908.0" y="200.0" type="curve" smooth="yes"/>
      <point x="628.0" y="200.0"/>
      <point x="452.0" y="316.0"/>
      <point x="452.0" y="556.0" type="curve" smooth="yes"/>
      <point x="452.0" y="800.0"/>
      <point x="600.0" y="908.0"/>
      <point x="888.0" y="908.0" type="curve" smooth="yes"/>
      <point x="1112.0" y="908.0" type="line"/>
      <point x="1112.0" y="1080.0" type="line"/>
    </contour>
  </outline>
</glyph>
